<?xml version="1.0" encoding="utf-8"?>
<!-- Generator: Adobe Illustrator 14.0.0, SVG Export Plug-In . SVG Version: 6.00 Build 43363)  -->
<!DOCTYPE svg PUBLIC "-//W3C//DTD SVG 1.1//EN" "http://www.w3.org/Graphics/SVG/1.1/DTD/svg11.dtd">
<svg version="1.1"
	 id="Layer_1" xmlns:dc="http://purl.org/dc/elements/1.1/" xmlns:sodipodi="http://sodipodi.sourceforge.net/DTD/sodipodi-0.dtd" xmlns:cc="http://creativecommons.org/ns#" xmlns:inkscape="http://www.inkscape.org/namespaces/inkscape" xmlns:rdf="http://www.w3.org/1999/02/22-rdf-syntax-ns#"
	 xmlns="http://www.w3.org/2000/svg" xmlns:xlink="http://www.w3.org/1999/xlink" x="0px" y="0px" width="3200px" height="800px"
	 viewBox="0 0 3200 800" enable-background="new 0 0 3200 800" xml:space="preserve">
<sodipodi:namedview  inkscape:showpageshadow="false" showgrid="false" showborder="true"></sodipodi:namedview>
<g transform="translate(1538, 458) scale(1, -1)">
	<path fill="none" stroke="#000000" d="M121-2v2v2l-2,2h2v2l-2,2h2v2v2v2l-2-2l-2-2l-2-2h2V6l-2-2h-2V2l-2,2l-2,2l-2-2h-2h-2l-2,2v2
		h-2l-2-2v2h-2h-2h-2h-2V6l-2,2h-2h-2l2,2l2,2l2-2v2h2l2-2l2,2l-2,2l-2,2h-2v-2l-2,2l-2-2v2v2l-2-2l-2,2v-2h-2l2-2l2-2l-2-2v2h-2
		l-2,2v2h-2h-2v2l-2,2h2h2l2-2l2,2h2h2l2,2l2,2h-2v2l-2,2l-2,2l2,2h-2h-2l2,2v2h2l2,2v2h2l-2,2l-2-2h-2v-2l-2,2h-2v-2l2-2l-2-2v-2
		h-2h-2v-2v-2v-2l2,2l2,2l2-2h2v-2l2-2h-2v-2l-2,2l-2,2v-2v-2l-2,2h-2v-2l-2,2l-2-2l-2,2h2v2l2,2l-2,2l-2-2h-2h-2l2-2l-2-2h2v-2
		l-2-2l-2,2v2v2l-2,2l-2-2v-2h2l-2-2l2-2l2-2v-2h2h2h2l-2,2v2h2l2-2v-2h2l-2-2l2-2h2v2l2-2l2-2l2-2h2V6V4V2l-2,2l-2,2v2h-2h-2v2
		l-2-2l-2-2l-2,2h2v2l-2,2h-2v2l-2-2l2-2V8h-2l-2,2l-2-2h2V6l-2-2h-2v2v2v2l-2,2h2h2l2,2l-2,2l-2-2v2v2v2h-2l-2,2l-2-2l2-2l-2-2h2h2
		l-2-2l-2-2l2-2l2-2h-2V6l-2,2l-2,2l-2,2h2v2v2h-2l2,2l-2,2h2v2v2h2h2h2l-2,2l2,2h2v2v2h-2h-2v2l2,2l-2,2l-2-2l-2-2v2h-2l-2,2v2v2
		l2-2l2-2v2v2l2-2h2v2l2-2h2h2l-2,2l-2,2h2v2l2-2l2-2l2,2l2,2l-2,2h2v2v2v2v2v2l2-2l2,2v-2h2l2,2v-2v-2l-2-2l-2,2l-2-2l2-2l-2-2h2h2
		l2-2v-2v-2l-2,2l-2,2l-2-2h-2v-2l2-2h2v2l2-2l-2-2l-2-2l-2-2v2v2v2h-2h-2v-2l2-2l-2-2l-2,2l-2,2v-2v-2l2-2l2-2v2h2l2-2v2h2h2v2l2-2
		l2,2l-2,2h2h2l-2,2v2h2l2,2l-2,2l2,2l2-2l2-2l2,2h-2v2v2h2l2-2l2-2l2,2v-2v-2v-2v-2l-2-2l-2-2l2-2h-2v-2l2-2l2-2v2h2l-2,2v2v2v2h2
		l2,2l-2,2h2h2h2v-2l-2-2h2h2l2-2l2,2h2v-2l2,2l-2,2v2h2h2h2l-2-2l2-2l2-2v2v2l2-2l2-2l-2-2h-2h-2l-2,2v-2h-2h-2v-2v-2h2l2,2l2-2
		l2,2v-2h2l-2-2v-2h-2"/>
	<path fill="none" stroke="#000000" d="M111,24l2-2l-2-2h2h2l-2-2l-2-2h2v-2v-2h-2l-2-2l-2,2l2,2v2h-2l2,2l-2,2l2,2v2v2l-2-2h-2v2
		l-2,2l-2,2l2,2h-2h-2l-2,2v-2h-2l-2,2l-2-2h2v-2l2-2l2,2v-2h2l2-2v-2h-2h-2v2l-2-2l-2-2v2v2l-2-2h-2v-2l-2-2h2v-2l2,2l2-2v-2h2l2-2
		v-2v-2l2,2l2-2l2,2l-2,2v2h-2h-2v2l-2,2l2,2v-2h2l2-2l2,2l-2,2l2,2l2-2v-2v-2v-2h-2l2-2v-2v-2V8h-2l2-2l2,2h2h2l2-2v2v2l2,2l2,2
		l-2,2l2,2v-2h2h2v2v2h-2l-2,2l-2,2h2v2l2-2l2-2v2v2v2h-2l-2,2v2h2l2-2v2v2l-2,2h2v2v2h-2l-2-2v2h-2h-2v2v2h2l2-2l2,2l2-2v2v2v2h-2
		l2,2v2v2l-2,2h2v2v2h-2l-2,2l-2-2h-2v2l-2,2h2h2l2,2v-2h2l2-2v2v2l-2,2h2v2v2h-2h-2v-2l-2,2l-2,2l-2-2h2v-2l2-2h-2v-2l-2,2l-2,2
		l-2,2h2v2l2,2h2v2l2,2h-2v2v2v2l-2,2h2v2l-2,2h2h2l-2,2l-2,2h2v2l-2,2h2v2v2h-2h-2v2l2,2h2v-2l2-2h2v2l2-2l-2-2l-2-2l2-2l-2-2h2v-2
		l2-2l-2-2l-2-2h2v-2l-2-2l2-2v-2v-2l-2-2l2-2l2,2l2-2v2v2l-2,2h2v2l-2,2h2v2l-2,2h2v2v2v2v2h-2l2,2v2h-2l2,2v2v2v2h-2l2,2v2h-2h-2
		v-2l-2-2l-2,2l2,2h-2h-2l-2-2v2h-2h-2v-2l2-2h-2v-2l-2,2l-2-2l-2-2l-2,2v-2v-2v-2h2l-2-2l-2,2l-2-2v-2h2l-2-2l2-2l-2-2l-2,2l-2-2
		v-2h2h2h2l-2-2l-2-2l-2-2v2v2l-2,2h-2v-2l2-2l-2-2l2-2h2v-2v-2h2l2-2l2,2l-2,2l-2,2h2h2l-2,2l2,2h2v2v2h2l-2,2v2v2v2h2l2,2l2-2h-2
		v-2l-2-2l2-2l2,2l2-2v2v2v2v2v2v2l-2-2l-2,2v2h2h2h2l2-2l-2-2l2-2l-2-2h2v-2l-2-2l2-2v-2h-2l2-2l2-2l-2-2l2-2l-2-2v2h-2h-2v2l-2,2
		h2h2l-2,2v2h-2h-2v-2l-2-2l-2-2v-2v-2v-2v-2l-2-2h2h2l2-2v2v2l-2,2l2,2l-2,2l2,2v-2h2l2-2l2-2h-2h-2l2-2v-2h-2l2-2l2-2l2-2"/>
	<path fill="none" stroke="#000000" d="M109,66v-2v-2l2-2l2-2l-2-2l2-2v2h2l2,2v-2v-2l2-2l-2-2v-2v-2l-2,2l-2-2l-2-2l-2-2l-2,2l-2-2
		v2h-2l2,2v2h-2l2,2l2-2l2,2v-2v-2l2,2h2v2l2,2h-2h-2l-2,2v2h-2l2,2l-2,2h-2h-2l2-2v-2v-2l2-2h-2h-2l-2-2v-2h-2l2-2l-2-2l2-2l2-2h-2
		v-2l-2,2l-2,2v2v2l-2-2l-2-2l-2,2l2,2l-2,2l2,2v-2h2h2v2l2,2l2,2l2,2l-2,2v-2h-2h-2h-2l2-2v-2h-2l-2,2l-2,2h2v2l2,2l2-2v2h2l2,2
		l-2,2h2h2h2v-2l2,2l-2,2v2h-2l-2-2l-2,2l-2,2v-2v-2v-2v-2l-2,2h-2v2l2,2l-2,2v2h-2h-2v2l-2,2l-2-2v-2h2l-2-2l-2,2l-2-2l2-2h-2v-2
		l-2-2h-2v-2l2-2h2h2l-2,2v2h2l2-2l2,2h-2v2l2,2l2,2l2-2h-2v-2v-2h2l2-2l-2-2h-2v2l-2-2l2-2v-2h-2h-2v2l-2-2l2-2l2-2l2,2l2-2h-2v-2
		v-2h-2h-2v2l-2,2l-2-2l-2-2h-2h-2h-2v2v2h2l2-2l2,2h2v2v2v2l-2-2h-2v-2l-2,2l2,2l-2,2h-2h-2l2,2l2,2l2,2l2,2l-2,2v2h-2h-2v-2l-2-2
		h2h2l-2-2v-2h-2h-2v-2l-2-2h-2h-2l2,2l2,2l2,2l-2,2l2,2v2h-2h-2v2l-2-2h-2h-2h-2h-2l-2,2v-2v-2l2-2l-2-2l-2,2l-2-2v2v2v2h2l-2,2v2
		h-2l2,2l2-2l2,2l2-2l2-2v2v2v2h2h2v-2l-2-2l2-2l2,2l2,2v-2h2l2,2l2-2l-2-2l2-2l2,2l2,2h-2v2l2,2l2-2l2-2l-2-2l2-2h2v2v2v2l2-2l2,2
		v2h-2h-2v2l-2-2h-2v2l-2,2l-2,2v-2h-2l2-2v-2h-2h-2h-2l2,2l-2,2l2,2l-2,2l2,2v-2h2h2h2l-2,2l2,2l-2,2v-2h-2l-2,2l-2-2h-2v2v2h-2
		l2,2v2h2l2,2l2-2l-2-2l-2-2h2h2h2v2v2h2l2-2v-2h-2l2-2l2,2h2v-2l-2-2l-2-2v-2h2l-2-2l2-2h2h2l-2,2l2,2h-2v2v2h2l2-2l2,2h2v2l2,2h-2
		v2l-2-2l-2-2l-2,2h2v2l2,2l2,2v-2h2l2,2l-2,2h2h2l-2,2l-2,2l2,2l2-2h2h2l2,2l2,2h-2h-2h-2v-2l-2,2h-2h-2h-2v-2l-2,2h-2v-2l2-2h2v-2
		v-2h-2h-2v-2l-2-2l-2,2v-2v-2l-2,2l-2,2v2h2"/>
	<path fill="none" stroke="#000000" d="M79,104h2v2l2-2l2,2l-2,2h-2v2l2,2h-2h-2h-2h-2h-2h-2l-2-2v2h-2h-2h-2h-2h-2h-2v-2v-2h-2
		l-2-2v-2v-2l2,2l2,2l2,2l2,2l2-2h2v2l2-2l2-2l2,2l2-2v2v2l2-2l2,2l2-2l-2-2l-2-2h-2v-2l-2,2h-2h-2l-2,2v-2v-2l-2-2l-2,2l2,2h-2v2
		l-2-2h-2v-2v-2h-2l2-2l2,2l2-2v-2v-2l2-2l-2-2l-2,2h-2v-2l-2-2h2h2h2v-2l2,2l2,2v-2v-2v-2h-2l2-2v-2h-2l-2,2l-2,2l-2,2v-2v-2l-2-2
		h-2v2l2,2l-2,2v2v2l-2-2h-2v2v2v2l2-2l2,2l2-2l2,2l2,2h-2h-2h-2h-2l2,2l-2,2h-2v2l-2-2l2-2v-2h-2l-2,2l-2,2l2,2v2h2h2h2l-2,2l2,2
		l2,2l2,2h-2h-2h-2h-2l2-2v-2h-2l-2,2v2h-2h-2v-2l-2,2h-2v-2l-2,2h-2v-2v-2h-2l2-2l2,2l2-2l2,2h2v-2l2,2l2-2l-2-2h-2v-2v-2h-2l-2,2
		l2,2h-2h-2h-2h-2l-2-2v2h-2l2,2l-2,2l2,2l2,2h-2h-2h-2h-2h-2h-2l2-2l-2-2h-2v-2v-2h-2h-2v-2l-2,2H9v2l-2,2h2h2l2-2l2,2l2,2v2h-2
		l-2-2v2h-2l-2-2v2H7l-2-2v2H3H1h-2l2-2l-2-2h2h2l2-2v-2H3l-2,2l-2-2h2v-2l-2-2l2-2v2h2l2,2l2,2l2-2l-2-2h2h2l-2-2l2-2l-2-2v2H7
		l-2,2v-2H3H1h-2l2-2l-2-2h2h2l2,2l2-2l-2-2v-2H3l-2,2l-2-2h2v-2l-2-2l2-2v2h2l2,2l2,2l2-2v2v2v2h2l2,2v2v2l2-2h2v2l2-2h2h2l2,2v2
		h-2l-2-2l-2,2h-2h-2l2,2l2,2l2-2v2v2l2,2l2,2v-2v-2v-2h-2l2-2l2-2l2-2l2,2h2v2l2-2l2-2l2-2h-2h-2h-2v2l-2-2h-2v-2l-2,2h-2v-2l2-2
		l2-2l2,2l2,2v-2v-2v-2h-2h-2h-2l2-2l2-2h2h2l-2,2l2,2h2v2l-2,2l2,2l2-2h2v-2l2,2l-2,2v2v2l2-2h2v-2l2-2l-2-2l-2-2h2h2l2-2v-2h2
		l-2-2l2-2h-2h-2h-2v2l2,2l-2,2l-2-2l-2-2v2v2v2h-2l-2-2l2-2l-2-2v-2h-2l-2,2v-2v-2v-2v-2l-2,2l-2,2l2,2h-2v2l-2-2h-2h-2h-2v2l2,2h2
		v-2l2,2l-2,2v2h-2l2,2v2h-2l-2,2l-2-2l-2,2"/>
	<path fill="none" stroke="#000000" d="M17,94v-2v-2l-2,2l-2-2l-2-2h2v-2l2,2h2v-2l2,2l2,2v-2v-2l-2-2h-2h-2l2-2l2-2l2-2l2-2h2v2
		l2-2l2-2v-2v-2l-2-2l2-2v-2v-2l2,2h2v-2v-2h2l2-2l2,2l2-2l2,2h-2v2v2h-2h-2v-2l-2,2l2,2l2,2l2-2l2,2h-2v2l-2,2l-2-2l-2-2h-2v-2
		l-2,2l2,2l-2,2h2h2h2v2l-2,2l2,2l2,2h2h2l2-2l-2-2l-2,2v-2h-2l2-2v-2h2h2v2l2-2l-2-2l2-2l-2-2v-2h-2l2-2l2-2h2h2l-2,2l-2,2h2h2h2
		v-2l2-2l-2-2v-2v-2l-2-2l2-2l2,2h2v-2l2,2l-2,2l-2,2h2h2l-2,2v2v2l2,2h-2h-2l2,2v2v2l2-2l2,2l2-2l2,2v-2v-2v-2h-2l-2,2v-2v-2l-2-2
		l2-2v-2h2l-2-2l2-2l-2-2v-2v-2l-2,2h-2h-2h-2v-2l-2-2h-2h-2l2,2v2h2l-2,2l-2,2h2v2l2,2l-2,2v-2h-2l-2,2v-2h-2l2-2l-2-2l2-2l2-2h-2
		h-2l2-2l-2-2l-2,2v2v2v2h-2l2,2v2h-2h-2h-2l2-2l-2-2l2-2l2-2h-2h-2h-2v-2l-2-2h2v-2l2-2h-2v-2l-2-2h2v-2l2,2l2,2v2v2l-2,2l2,2l2-2
		h2v-2l-2-2h2h2l-2-2l2-2h-2h-2l2-2l2-2h-2v-2v-2h-2l-2,2v2h2l-2,2l-2-2h-2v-2l2-2l2-2v-2h2l2,2l2,2l2,2v2v2l2-2h2v-2l2,2l2-2l-2-2
		h-2v-2l-2,2l-2-2v-2h2l-2-2l-2,2h-2v-2v-2h2l2-2l-2-2h2v-2l-2-2h-2v2v2h-2l2,2l-2,2l-2-2v-2h-2l-2-2l-2,2h2v2v2h-2l-2-2v-2h-2l-2,2
		l-2-2h2v-2l2-2l2,2l2-2h2v-2l2,2l2,2l2-2l-2-2l-2-2h-2h-2l-2,2V8h-2l-2,2v2h-2l-2,2v2v2l-2,2l2,2l2-2h2h2l-2,2v2h-2l2,2l-2,2h2v2
		l2-2l2-2v-2h-2l2-2l2,2l2-2l2-2l2,2l-2,2h-2v2v2h-2l-2,2l2,2h-2h-2l2,2l-2,2l2,2l-2,2h2h2l-2,2l-2,2l2,2v2h2l2,2v2h-2l-2-2l-2-2
		l-2,2l-2,2l-2,2l-2-2l2-2l2-2h2v-2v-2v-2v-2v-2v-2v-2v-2h-2h-2v-2l-2,2l2,2l2,2l-2,2l-2-2l-2-2v-2h-2l-2-2l-2-2H9v2v2h2h2v2l2,2h2
		v2v2h2h2h2l-2,2l2,2l-2,2v2h-2l-2-2l2-2l-2-2v2h-2l-2,2v2v2l2-2"/>
	<path fill="none" stroke="#000000" d="M15,48h2v2v2h-2l2,2l-2,2h2v2l2-2h2v2l2-2l2-2v-2h2l2,2v2h2l2-2v2v2l-2,2l-2-2l-2-2h-2v2l2,2
		l-2,2v-2h-2l-2,2l-2-2h-2h-2l2,2l-2,2h2v2l2-2h2v2l2-2h2h2l-2,2l-2,2h2v2l2,2h-2v2l-2-2h-2v2l-2,2l-2-2v2h-2l2,2v2h-2l-2-2v2v2
		l-2,2H9H7l-2-2v-2h2h2v2l2-2l-2-2v-2h2l2-2v-2h-2l2-2l2,2h2v-2l2,2l2-2l-2-2h-2h-2l-2-2l-2,2l-2-2v2v2l-2-2l-2,2l-2,2h2h2h2v2l-2,2
		l-2-2l-2,2l2,2l-2,2H1h-2l2-2v-2h-2l2-2v-2h-2l2-2l2-2H1h-2l2-2l-2-2h2v-2l2,2h2v2l2-2h2h2h2v-2l-2-2H9v2l-2-2l-2,2l-2-2H1h-2l2-2
		l-2-2h2h2l-2-2l-2-2l2-2v2h2l2,2v2v2l2-2l2,2v-2v-2l2,2l2,2v-2v-2l-2-2H9v-2l-2,2l-2-2v-2h2h2h2l-2-2l-2-2h2v-2l2,2l2-2l-2-2h2h2
		l-2-2l-2-2l-2-2v2H7l2,2v2H7H5v2l-2,2l2,2l-2,2H1h-2l2-2l-2-2h2v-2l-2-2h2h2l2-2l-2-2H1v2l-2-2l2-2l-2-2h2h2l2,2l2-2H5v-2l-2-2
		l-2,2l-2-2h2v-2l-2-2h2v-2l2-2H1h-2l2-2l-2-2h2h2l2,2v-2h2h2v2l2,2l-2,2v-2H7l-2,2l-2,2h2v2l2,2l2-2l-2-2h2h2l2-2v2v2l2-2h2v2l-2,2
		h2v2l2-2l2-2v-2h-2l-2-2l-2-2h2v-2l2-2h-2h-2h-2v2l-2-2l-2-2v-2h2l2,2l2-2l-2-2l-2-2l2-2v2h2l2-2v2v2v2v2l2-2l2-2l-2-2h2h2h2V6V4
		h-2l-2,2l-2-2h-2h-2l-2-2l-2,2L9,6V4H7L5,6L3,8l2,2V8h2h2v2l-2,2l-2,2l-2-2l-2,2v-2h-2l2-2V8h-2l2-2l2-2H1h-2l2-2l-2-2l2-2v2h2l2,2
		V0v-2l2,2l2-2v2v2l2-2l2-2v2h2l2-2v2v2l2-2l2,2V0v-2l2,2l2,2V0v-2l2,2l2-2l2,2h-2v2l-2,2l2,2l2-2h2v2l2-2l-2-2V0v-2l2,2l2-2l2,2h-2
		v2l2,2l-2,2v2h2h2v2l2-2h2v2l2-2h2V6l2-2l-2-2v2h-2l-2,2l-2-2l-2,2V4V2V0v-2l2,2l2-2v2v2l2-2h2v-2l2,2l2-2v2v2l2,2l2-2"/>
	<path fill="none" stroke="#000000" d="M57,2l-2-2h2v-2l2,2l2-2v2v2l2,2l2,2l2-2h-2V2l-2-2l2-2v2h2l2-2v2v2l2,2h2v2l2-2l-2-2l-2-2h2
		v-2l2,2l2-2v2v2l2-2h2v-2l2,2l2-2v2v2l-2,2l2,2l2-2h2V2l-2-2l2-2v2h2l2-2v2v2l-2,2l2,2l2-2h2h2l-2-2V0h-2l2-2l2,2l2-2v2v2l2-2l2,2
		V0v-2l2,2l2-2v2v2l2-2h2v-2l2,2l2,2V0v-2l2,2l2-2"/>
</g>
</svg>
