<?xml version="1.0" encoding="utf-8"?>
<!-- Generator: Adobe Illustrator 14.0.0, SVG Export Plug-In . SVG Version: 6.00 Build 43363)  -->
<!DOCTYPE svg PUBLIC "-//W3C//DTD SVG 1.1//EN" "http://www.w3.org/Graphics/SVG/1.1/DTD/svg11.dtd">
<svg version="1.1"
	 id="Layer_1" xmlns:dc="http://purl.org/dc/elements/1.1/" xmlns:sodipodi="http://sodipodi.sourceforge.net/DTD/sodipodi-0.dtd" xmlns:cc="http://creativecommons.org/ns#" xmlns:inkscape="http://www.inkscape.org/namespaces/inkscape" xmlns:rdf="http://www.w3.org/1999/02/22-rdf-syntax-ns#"
	 xmlns="http://www.w3.org/2000/svg" xmlns:xlink="http://www.w3.org/1999/xlink" x="0px" y="0px" width="3200px" height="800px"
	 viewBox="0 0 3200 800" enable-background="new 0 0 3200 800" xml:space="preserve">
<sodipodi:namedview  inkscape:showpageshadow="false" showgrid="false" showborder="true"></sodipodi:namedview>
<g transform="translate(1106, 786) scale(1, -1)">
	<path fill="none" stroke="#000000" d="M621,9l3,2v1h-1l-3,3h1h5l1,1v-1v-1l5,1l1-1v1v1l3,2l2,3h1l3-3v1l2,2h1v1l-4,2l4,2l-1,1l1,1
		v-1l3-3v1l2,2l-2,2l-1,1h1v1l3,1l-1,1h1v1l-3,1v1h-1l4,2l-1,1h1l-3,3h-1l1,1l-3,1v1h-1l1,1l2,2l-2,2v1l-3-3v1v4l-1,1h1v1l-3,1v1v1
		l3,1v1v1l-1-1l-2,3v1l-1,5l-2,2v1v1l-1-1l-2,2v1v1l-1,5l-2,2v1h-1l-2,4l-1-1h1v-1v-4v-1h-1l1-1l2-2h1v-1v-5l3-3h1l-1,1l-1-1l1-1
		l2-2h1v-1v-4v-1l-6-5v-1v-1l2-2l1-1l-9-3v1l-3,3v1l-1-1l-3-3h1v-1l-3-2h-1l1-1l3-1l-1-1h1l3-3v-1l3-1l-1-1l1-1l-3-1v-1v-1l-3-3v1
		h-1l-9,3l-2-4v1v1l-3,1v13v1l2,2l1,1v-1v-1l2-2l4,2v1v1l3,1v1v1l3,2h-1l-2,2l-1,1h1v1l-3,1l-1,1h1v1l-3,1v1h-1l-2,2l-1,1l1,1v-1
		l-3,3v1l2,2l1-1v1v1l3,1v1h-1l-2,2v2l3,1v1h-1l1,1l3,1v1l3,3h-1l-2,2v1v1l-4,2l-3-3l-2,2v1l-3-2v-1v-1l3-2v-1l2-2l-2-2v-1l-3,2v1
		l-3-3h-1l1-1v-5v-1l-1,1l-2-3l3-3v-1l3-1v-1h-1l-5-1l-6,6l-4-2h1v-1l-3-2h-1l-2,2v2l3,1v1v1l2,2l1-1v1v1l3,1v1v5v1h-1l-2-2v-1h-1
		l1-1l-3-1v-1l-3-3l-3,2l-1,1l-2,2v2l3,1l-1,1l4,2v1l3-4l3,4v1l2,2l1-1l3-3v1l3-3v1l3,1v1h-1l-2,2l-3,3v1h5h1l3,2v1h-1l1,1l2,2h1v-1
		l3-3l2,4l3,3l1,1v-1v-1l3-3v1l3,2l3-2v-1l-3-2h-1h-5h-1l3-3h1l3-3l3,2l2-2l1-1v1v1l2,2l1,1l3,2h-1l-2,2v1v1l-3,2v1l3,1v1l3,3v1l2,2
		h1l3,2v1h-1l1,1l3,2l-3,2l-1,1l1,1l-3,1v1h-1l-2-2v-1v-1l3-1v-1h-1l1-1l-3-1v-1h-1l-2,3v-1v-4l-1-1h-5h-1l-2-3v-1l-1,1l-2,2v-4
		l-3,1v1h-1l-2,3l2,3l-2,2v1v1v4v1v1v4v1v6l3,3h-1l1,1l2-4l1-1v1l2,3l1-1v1v1l-4,2l-2,2l2,4h1l3,2l-1,1h1v1l2,2l3-3l1-1l-3-2v-1
		l-1,1l-2-3v-1l3-1v-1l12-1v1h1l1,3h1l2,3l1,1v-1l3-3v-6h-1l-2-2v-1v-1l-1,1"/>
	<path fill="none" stroke="#000000" d="M638,135l-2-3h-1l1-1l-4-2h1h5h1l2-3l1-1l2-2h1v-1v-4l-1-1h1l2,3h1v-1l3-2v-1l5,1l1-1l2-2h1
		l-3-3h-1l1-1l2-2l1,1v-1v-1l3-2v1v4l-1,1h1h5l1-1l3-1v-1l-4-3l1-1l3-2v-1l2-2l1-1v1l3,3l2-3l1-1l3-1l-1-1l1-1l3-2l3,2l2-2l4,3v1
		l2,2h1v1l3,2v1l2,8l3,3l-2,3l3,2l-1,1h-5l-3-3v-1l2-2h1l-3-3v-1l-3-1v-1h-1l1-1l-3-1v-1h-1l-2-3v-1l-1,1l-3,3l-2-3h-1l-3,3h1l3,3
		h-1l3,3l1-1v1l2,3h1l2,3h1l3,3h-1l-8,2v1l-3-3h-1l-2-3v-5v-1v-1l-1,1l-5-1v1h-1l1,1v5l2,3l1-1v1v1l2,2h1l3,3h-1l3,3h1h5h1v-1l1,1
		l2-2l-1-1h1l3-3h-1l1,1l6,4v1l-3,2v1l-3,2l-1,1h1l-3,3h-1l-2-4v1h-1l-2,2l-1,1l-2,3h5h1v-1l-3,3l-1,1l-3,3l-8-2v-1l-1,6l-2,3l-3,3
		h-1l-2,2l-1,1h1h5h1l-3,3h-1l1,1v4l-1,1l1,1v-1l-3-3l-3-4l-3-1v-1h-6v-1l-3-1v-1l-3-3h-1l1-1l-3-3v1h-1l-2-2v-1h-1l-2,4l-3,1v1l3,3
		v-1l3,3v1v1l2-4h1v1l2,2l1,1l3,3l2,2h1v1h6l2,2h1l-3,3v1l3,1l-1,1h1l2,3l4-3v-1l2,4l1,5v1h-1l1,5v1v1l2,2l-8-2v-1h-1l-2,2l-3-2
		l-3-3v1l-1-1l1-1l-3-1l-6-1h-1l-2-2l-1-1h1v-1l-6-4l-1-1l-2-2v-1h-1l1-1l-3-2l-3-3h-1l1-1l-3-3l-3-1v-2l-1,1l-5-1l3,4v1l2,2l1,1v-1
		l3,3l2,3l1,6l6-1v1v5l5,1l4,3v1l2,2h1l3,3l3-3h1l1,3h1l2,3l1-1l5,1l1-1l3,3l2-2h1l3,3h-1l-2,2l-1,1h1l3,3h-1l-3,3l1,1l3,1v1h-1
		l-3,3l-2,3h5h1l-3,3h-1l-3,3l1,5l-1,1l1,1l3-3v-1v-1l2-2h1l-1,6l-2,2v1v6v1l-1-1l-2-2v-1v-1l-1,1l-2,3l2,3l-2,2l5,1h1v1l-3,2h-1
		l-2,2v1v1l1-1h4l1-1v1l-1,6h-5l-3,2v1v1l5-1l1,1v5h-1l-2,2v1l-3-3v-1l-1,1l-2,3l2,3l-2,2l-1,1h1v1l5-1l1-1v1v1l3,1v1v1l3,1v1h-6v-1
		l-1,1h-6l-2,2l-1,1l-2,2l-1,1h1v1l3,1v1v1l-3,1v1h-1l-2-2v-1v5l-1,1h1l2,3l-2,3h-1l-2-4v1h-1l-2,2v1l3,3v-1l-1,1l1,1l-4,2"/>
	<path fill="none" stroke="#000000" d="M647,306h1l-3-3h-1l-2-2v4v1v1l-1-1l-2-2v-1h-1l-2-2l-1-1h1v-1l2-2l-2-2v-1l3-3v1l-1-1l1-1
		l2-2l1,1v-1v-1l2-2l1-5v-1v-1l2-2l-2-2l1-1h-1v-5v-1v-1v-4v-1v-1l2-2l-2-2v-1v-1l2-2l-2-3v-1l-1,1l-3,3l-3,3h1l-3-3l3-2l-1-1h1l3-3
		v-1l-1-5l-2,3l-3,2v1h-1l-2-3v-1l-3-1v-1v-1l-1,1l-2-2v-1v-1l5,1h6l-2-2v-1l-3-2l-1-1l-3-3l-2,2l-3-2v6l-3,2v1l-3,3h-1l-2-2v-1h-1
		h-5h-1l4,2l-1,1h1v1l3,1v1h-1l-2,2l-4-2l-2,2v1h-1l-2-2v4l-1,1l1,1v-1h5l1-1v1l-3,3h-1l-2,2l-1,1l-5-1v1v1l3,1l-1,1l-2,3h1h4h1v1
		l-4,2l-2,2v1h-1h-5h-1l1-1l-3-1v-1h-1l1-1l2-8h1l2-3h1l3-3l-3-3v-1l6-4l-1-1h1l2-3h1v-1v-4l2,2l1,1v-1v-1l2-2l1-1v1l-3-3v-1l2-2
		l1-1v1v1l3,1v1h-1l3,3l1-1l5-5l1,1l1-1h-1v-1l-4-2l-5-1v1l-3-3h-1h-5h-1l1,5v1v1l-1-1l-2,2l-3-2v-1v-4l-1-1h1l-3,3h-1l-2,2v1l3,3
		h-1l-2,3l-3-3l-3-3v1l-3,1l-1,1h1l3,3v1l3,1v1h-1l-2,2v1h-1l-2,3h-1l-2,2v1h-1l-2,3l-4,3l3,3h1v5l-3-1v-1l-4-3l-2,2v1v6v1l3,2v1
		l2,2l1,1v-1l-3,3l2,3l1,1v6l-3,1v2l3,2h-1h-5h-1l1-1v-5h-1l-2-3l2-3l-2-3l2-3l-14-3v-1l-1,1l-2,2v1v1l-3,1v-4l3-3l1-1l-1-1l-1,1h1
		l3-3l3-2v-1h-1l3-9l1-1v1l3-3l-9-2l-1-1l1-1v1l-12-6l3-3v-1l2-2h1v-1l2-8l1-1v1v1l2,2l1-1v1l3,2v1h-1l1,1l3,1v1l3,2l-1,1h1l2,3l1-1
		v1v5l2-2h1v1l2,2l-2,2v1v1l2,2l1,1v-1v-1l3-3l2-2h1v-1l3-2v-1v-4v-1v-1l-1-5l1-1v-5v-1l-3,3v1l-3-3v-1l3-1l-1-1l-2-3h-1l-2,2l-3-2
		v-1l3-3v1l-3-3l-3,2l-3-2v-1l-3-3h6l-1-5h-5v1l-1-1l-2-2v-1v-1l-3,4l-3-2v-1v-1l3-1v-1h-1l-2-2l-1-1l-2,3v1l-1-1l-2-2l-1-1h1v-1
		l-3-2h-1l-2,2v1v-5v-1v-1l-1,1l-2,2v1h-1l-2-2v-2l2-2h1l-4-3l-2,4v-1h-1l-2-2l-1-1h1l-3-3l-3,3v-1l-3-1v-1h-1l1-1l2-2h1l-3-3h-1
		l-3,3l-2,2"/>
	<path fill="none" stroke="#000000" d="M510,173l-3-2l3-3v-1l-3-1v-2v1l-3,3h-1l-3-3l-2-4l-1,1l-2,2v1h-1l-2-3h-1l1-1l2-2h-5h-1
		l-2,3v-1l-3-1l-1-1h1l3-3h-1h-5l-3,3v-1v-4v-1v-1l-1,1l-2,2v1v1l-1-1l-2-2v-1v-1l-3-1v-1h-1l-5-1l-3-1v-1v-1l-1,1l-5-1l-1,1h1l-3-3
		h-1h-5h-1l-2-3h-1l-2,2l-3-1v-2v1l-3,3h-1l1,1l3,1v1h5l1-1v1v1l3,1l2-2h1l2,3h1h5l1,1l3,2h5l1-1v1l3,2l-1,13h1l2,3h1v-1l5,1h1l3,3
		h-1l1,1l2,2h1v-1l2-2h1v1l2,2l1-1v1v1l2,2h1l3,2v1h-1l1,1l3,1l-1,1h1l9,3l3,3v-1l3-1l2,2l-2,2v1h-1l-2-2l-46,14l1,1l3,1l-1,1h1l3,3
		l3,2l3,3l-1,1h1v5v1v1v4v1h-1l1,1l-1,5h1v1l-1,5l-2,2l-3-1l-3,3l-1-1h1l-3,3h-1h-5l-6-1v1h-1h-5v-1l-3-1v-1v-1l-3-2h-1l-3-3l-3-3h1
		l-3-3v-1v-4v-1h-1l1-5v-1v-1l2-2h1v-1l8-2l1,5v1l3,2l3,4l3-2l3,1l2-2h1l3-3h-1l1-1v-4v-1h-1l1-1l-3-2v-1v-5v-1l-3,3v1h-1l-2-2v-1
		v-1l-1,1l-2,3h-1l-2-2v-1v-1l-1,1l-2,3h-1l-32-27v-1l-1,1l-2-2v-1v-1l5,1l15-21l1-1l-3-1l-1-1h1v-11v-1v-1l2-2h1h1l-1-1l-3-1v-1h-1
		l-2,4l-3,1l-3-1l-1-1h1l3-3h-1h-5h-1l-2,2v1h-1h-5h-1l1-1l-3-1l-1-1h1v-1l3-1v-1h-1l-5-1v1v1l-3,1v1v1l-1-1l-2-3h-1l-2,3h-1l-2-4v1
		l-3-3h-1l-2,3l-3-2v-1h-1l-2,2l-4-2l-5,1l-1-1h-5v1v4l6,2v-1h5l1,1v-1h5l1-1v1h5l1-1v1v1l2,8h1l-3,2l-3,9v1l-3,2v1l-4,3l1,1l-3,1v1
		l-6,11l-1,1h1v1l-4,2h1v1v5h-1l-2,2v1h-1l-2,2v1h-1l-2-2v-1h-1l-2,2v1l3,2l-1,1l-2,2v1h-1l-2-3l-3,2v1v1l-1-1h-5v1l3,1v1h-1l1,1
		l-3,21l-3,1v1v1l-1-1l-2-2l-3,1l-3-1v-1l-3,2l-3-1v4v1h5h1v-1l2-2h1v1l3,1l-1,1h1h5h1l2-3h1v-1l3,3l3-2h5l-2,2l-1,1l3,3l1-1l2-2h1
		h5h1l-3,3h-1l3,3h1v-1l2-2h1l2,3h1l2-3l1,1v-1l3-3h-1l1-1l-3-1v-1v-1l-1,1l-2-2l-1-1h1v-1l-3-1v-1"/>
	<path fill="none" stroke="#000000" d="M366,222v-1v-4l-1-1h1l-3-3l2-3l-2-3l2-3h1l2-3l3-3h1l3-3l-1,6l-2,2v1l3,2v1h-1l1,1l2,2l4,2
		l2-2h1h5l1-6h-1l1-1v-4v-1h-1l-2-3l-3-3h5l1,1l3,1v1h-1l1,1l3,1v1v1l3,1l-1,1l3,3l-2,3h-1l-2,2v1h-1l-2,2l-1,1h1v1l-3,2v1l-1,5
		l-2,2v1v1l-3,2v1l2,2l-2,2l-3-2h-1l-5,5v1h-1l-2,2v1h-1l-2,2l-3-2h-1l-2,2v1l-3-2l-3,1v1h-1h-5h-1l1,1v4v1h-1l1,1l2,2h1l2,3h1l6,6
		h-1l-2,3v1v5v1v4v1h-1l1,1l-1,5h1v1l-1,5l-2,3h-1l-2,2v1h-1l-2,2l-1,1l1,1v-1l-3,3h-1l1,1l-3,1l-3,3v1v1l-1-1l-2,3v1v4l-1,1l-2,2v1
		l3-3l3-2v-1v-1l3-1v-1h-1l1-1l3-2v-1l2-2h1v-1l2-2h1v-1l2-2h1h1l2,2v1v1l2,2l1,5v1h-1l3,3l1,6l2,3h1v-1l1,1l5,1v-1h-1l-2-2v-1h-1
		l-2-3v-1l-3-3l-1-5h1l-3-3v-1l2-2l-2-2v-1l-4-3l3-3l1,1v-1v-1l-1-5h1l-1-6h1v-1v-4l-1-1h1v-5v-1h-1l1-1l2-2l1-1l2-2h1v-1l3-1v-1
		l3,2l3-1v-1v-1l3-1v-1h-1l1-1v-4v-1h-1l1-1l-3-2h-1l-2-2v-1h-1l4-2l-1-1l1-1l3-1l3,2v1l-3,1v1l3,3l2-3l1-1v1l3,3h-1l3,3h1l2-3l4,2
		v1v1l-4,2h1v1l2,2h1l2-3l1-1v1v1l3,1v1h-1l-2,2v1h5l1-1v1l2,3h1v1l2,2h1v-1l3-1v4l-1,1h1l3-3l3,3h-1l1,1l-3,1v1v1l2,2h1v-1l2-2h1v5
		l2-2h1v1l3,1v1l-3,2v1l3,2l2-2l1-1v1l3,3v-1l-1,1l-2,2v1l3,2l3-3l2,4l1-1v1l3,2v1v1l2,2l1-1v1h5l-2,2v1h-1l1,1l2,2h1l3-3h-1l1,1
		l2,2h1l-3,3h-1l1,1l3,1v1l2-3h1l3,2v1v1l-3,1v1h5l1-1v1v1l3,1l-1,1l1,1l2,2h1l3,3v-1l3-1v4v1l3-2l-1-1h1h5h1l-3,3v1l2,2l1,1v-1v-1
		l2-2h1v-1l2,4l1,1v-1v-1l3-2v1l2,2l1,1v-1l3-3v1l2,2h1l3-3h-1l1,1l2,2h1v-1l2-2l1-1v1l2,3l1,1v-1v-1l2-2h1v-1l1,1l1,3h1h6h-1l-2-2
		v-1v-1l2-2h1l3,3v1l2-4h1l-3-3"/>
	<path fill="none" stroke="#000000" d="M537,315v-1l3-1v-1h-1l1-1l-3-1v-1l5-6h1v1l2,2h1v-1l8-8l1-1v1l12-6l2,3l1,1v-1l2-3l1-1v1
		l3,3h-1l1-1l2,4l1,1v-1v-1l11,1h1l2,3h1v1l2,2l1-1v1v1l2,2h1v-1l3-2v-1l3-1v-2l6,1l-3,3h-1l1,1l3,2l3-2v-1v-1l3-1v-1v6l3-2v-1h-1
		l1-1l2-2l-2-3v-1l2-2h1v-1l2-2h1v-1v-5h-1l-2,2v1h-1l-2,2v1h-1h-5l-3,3h-1l1-1l-3-2v-1l-1,1h-5h-1l-2,3h-1h-6l-2-2l-1-1l-2-3h-1
		l3-3h6l1,1v-1v-1l3-1v-1l-3-3v1l2-4l3,3h1l3,3l2,3l-2-4v-5h-1l1-5v-2l2-2v-6h1v-1v-4v-1v-1l2-2h1v-1l2-2h1l3-2l-1-1h1v-1l2-2l1,1
		v-1l3,3l2,3h1v1v5v1l2,2h1v5l-1,1h1v1v4v1v1l-1-1l-2,3v5v1v1l2,2l1-1v1l6-6l3,3v1l-1,5l-2,2v1h-1l-2-3v1l-3,1v1h-1l1,1l2,2h1v1
		l-3,1l-1,1h1v1l-3,1v1h-1l1,1l6,5h-1l-2,2l-1,1l-2-2l-3,2h-1l1,1l-3,1v1h-1l-2,2l-3-1l-1-1l-2,2l-3-1l-3,1v1h-1l-2-2l-3,1v1l-3-2
		l-3,2h-1l-5-1l-3-2h-1h-5l3-3v-1l-1,1l-2-2v-1h-1l-2,2l-1,1l-2-3h-1l-2,2l-1,1h1v1l2,2h-5v-1l-3-1l-3,1l-1,1h1v1l3,1v1h-1h-5h-1
		l1,1l-3,1v1v1l-1-1l-2-2v-1l-3,2v1l3,3v-1l-1,1l-2,4v-1h-1l-2-2v-1v-1l-1,1l-2,2l-1,1h1l3,2l-1,1h1l-3,3h5l1-1v1v1v4v1v1l-1-1l-3-3
		l-2,2v1l2,3h1v1l3,1l-1,1h1v1l-3,2h-1l1,1l2,2h1v1l-3,1l-1,1h1v1l3,1v1v1l-1-1l-2,2v1h-1l4,2l1,1l-1,1l2,2h-5v-1l2,4h1l3,2v1h-1
		l1,1l-3,1l-1,1h1h1l2,2v1l-3,2v1v1l6-1l-3,3v1l3,1l-1,1h1v1l2,2h1l-3,2v1h-1l1,1l3,1v1h-1l-2,2v1l3,3h-1l1-1l2-2h1v-1l2-2h1v-1v-4
		v-2l2-2l1-1l3-1l-1-1h1v-6l2,3l1-1v1l3,3h-1l1,1l2,2l-2,3h-1l-2-2v-1v-1l-1,1l-2,2v1h-1l-2,2l-1,1h1v1l-1,5l-2,2v1v1l-3,2h-1l1,1
		l2,2l1-1v1l2,3h1h5l1-1l2-2l1,1v-1v-1l2-2l-2-2v-1v-1l2-2h1l-3-3l3-3v-1l2,4l1,5"/>
	<path fill="none" stroke="#000000" d="M582,395l-1,1l1,5v1v5l-1,1h1v1v4l-1,1h1v1v4v1h-1l3,3h1v1l3-3l-1-1h1h6l-3,2l-1,1l1,1l-3,1
		v1l3,3h5h1v-1l2-2l1,1v-1v-5l6-2l3-1l-1-1l1-1v1h5l1-1l2-2h1v-1l3-1v-1h-1l1-1l9-2v-1l2-2h1v-1l2-2h1v-1l3-1l-1-1l1-1l2-2h1l3-2v-1
		v-1l2-2h1v-5l5-1l1,1v-1l-3-3v-5v-1l2-3h1v-1l2-2h1l3-4l2-2l1,6l2,3h1v6h-1h-5v-1l-3-2v1v4v1h-1l3,3h1v-1l2-2l3,3h1v1v4v1l2,3h1v-1
		l2-2l1-1l2-2l1-1l3-2v-1l2-2v-6h1v-1l3-2v-1l-1-5l1-1v1l3-9v-5v-1h-1l1-1v-4v-1v-1l2-2h1l3-3h-1l-2-2l-1-1h1l3-3h-1l-2-2v-1l2-3h1
		l3-3h-1l-1-3h-1h-1l1-1l6-17v-1l-5-5h-1v-1l-3-2h-1l-2-2v-1v-1l-1,1l-2-3l-3-3v1l-1-1v-6l1,1l2,2h1v1l3,1v1l3,2l3,3v1l6,6l6,6v5v1
		l3-3l3,3v-1l-1,1l1,1l3,2h-1l-2,2l-1,1h1l3,3h-1l1,1l3,1v1h-1l1,1l-3,1v1l3,2v1l-3,3l3,2l-1,1l-2,2l-1,1h1l3,3h-1l-2,2v1h-1l-3,3
		l1-1l5,1l-2,2v1l-3,2v1v1l-3,2h-1l1,1l-3,2v-5v-1l2-3l1-1l-2-2h-1v-1l-1,1l1,1l-3,1v-4v-1v-1l2-2l-2-2v-1v-1l-1,1l-2-3l-3,3v-1l3,3
		v1v1l-1-1l-5,5v1h-1l1,5l-1,1h1l-3,3l-1,6h1v1v5h-1l-2,2v1v1v4v1h-1l-2,2l-1,1l1,1l-2,2h-1l-1,6l-2,2v1l-4,3l-3,3l-3,3h-5v1l-3,1v1
		h-1l1-6v-6v-1l-1,1l-5-1v1h-1l-2,2v1h-1l-2,2v1h-1l-2,3h-1l-2,2l-1,1h1v1l-3,1v1h-1l-2,2v1v1l-3,2h-1l-2,2l-3-1l-4,2h1v1l-3,1v1h-1
		h-5v1l-3,1v1h-1l-2,2v1h-1l-2,2v1h-1l-2,2l-1,1h1l2,3l1,1l-3,2l3,3l-3,3l3,3v1l2-4l1-1v1v1l2,2h1v1l-4,2l1,5l-1,1h1l3-3l3,3v-1
		l-1,1l-2,2l-1,1l3,3h1v1l2-4h1l3-3v1l3,1v1v1l-3,1l-1,1l-2,2l-1,1l1,1l2,2h1v1v4v1l3-3v-1l3,3l-1,1l1,1l2,2h1v-1l2-2h1v1l3,1l-1,1
		h1l3,3v1l2,2l-5,1l-3-4h-1l-2,2v1h-1l-2,2v1h-1l-2-2l2-4h-5h-1"/>
	<path fill="none" stroke="#000000" d="M620,477l-2-2l-3,1l-3-1v-1h-1l-2-4l-1-5l-5-1v1l-3-3l2,3l1,1l2,2l-2,2l3,4l3,3h-1l1,1l3,1
		l-1,1h1v1l2,2l1,1v-1l3-3v1v4l-1,1l1,1l2,2l1,1v-1l3-3h-1l3,3l1-1v1v1l-3,1l-1,1h1l3,3v-1l-1,1l1,1l3,1l3,9v1l2,3l1-1v1l3,3v-1l3-1
		v-1h-1l1-1l-3-1v-1h-1l1-6h-1l1-1l-3-1l-1-1h1v-6v1l2,2l1-1v1v1l3,1v1l2,3h1v1l3,1v-4v-1v-1l5,1h1l-3,3h-1l1,1l3,1l3-1v-1v-1l3-1v4
		l-1,1h1h5l1,1v-1v-1l-3-3l2-2h1h6v1l3,1v1h5l-2,2v1v6l-3-3h-1l1,1l-3,1v1h-1l-5-1v1v1l3,1v1v1l-1-1l-2,2l-3-2l-3,3v1l-1-1l-2-4
		l-1,1h-5h-1l1-1l-3-1v-1h-1l-3,3h1v1l2,2h1l3,2l-1,1l1,1v-1l3,3l3-3v-1l-1,1l1,1l2,2h1l3-3v1l3,1v1l-3,3v-1l-1,1l1,1l3,1l3-2v-1
		l1,1l1,3l1,1v-1l2-3l1-5v-1h5l-2,2v1l5,6l1-1v1l-3,3l-3-2v-1h-1l-2,2l-1,1h1v1l3,1v1l3,2v1h1l2,2v1l3,2v1l3,2v1l3,2v2l2,2l1-1v1
		l2,3l1-1v1v1l2,2l1,1l2,2h1v-1l2-2l-2-3h-1l-2-2v-1h-1l-2-2l-1-1l1-1v1l-3-3h-1l1-1l-3-1v-1v-1l-1,1l-2-4v1h-1l-2-3v-1l-1-5l3-3
		l-2-2v-1h-1l1-1l2-2h1v-1l2-2l3,3l1-1l-1-5l1-5v-1l3,3v1l3-3v-1v-1l-3-1v-1v-1l2-2h1l3,3v1l-1-1l1-1l3-3l-4-2l1-1v-4v-1l3-3v1l2,2
		l1,1l2-4l-3-3l3-3l1,1v-1v-1l-3-1l-1-1h1l2-3l1-1l3,3v-4l-1-1h1v-1l-3-2h5h1v-1l-4-2l3-3h1v-1l2-2h-4h-1h-1l1-1v-4v-1v-1l2-2l1-1v1
		l2,3l1,1v-1v-1v-4v-1l-3-2v-1v-1l-1-5l1-1v-4v-1v-1v-4l2,2h1l3-2v-1h-1l-3-3l-2-2v-1l2-3l-2-2v-1v-1v-4l2,2h1l3,3l2,3l1,5l-1,1h1
		l3,2l-1,1h1v1l-3,1v1v1l-1-1l-2,3v1l2,2h1v-1l2-2l1-1v1l3,3h-1l-3,3h-5h-1l1,1l3,1v1v1l-3,1l-1,1h1l3,3v-1l2-2l3-3l1-1v1v5v1v1
		l-4,2h1l2,3l1-1v1v1l-4,2h1v1l2,2l1-1v1v1l-3,1l3,3v1l3,2v1h-1l1,1v5h-1l-2,3l-3-3v-1"/>
	<path fill="none" stroke="#000000" d="M732,479l-1,1l1,5l-1,1h1v1l-2,2l1,3h1v-1l2-2l1-1v1v1v4l-1,1h1l-3,3l-3-3v-1v2v4v1h-1l1,1
		l1-1h4l1,1l-3,1v1h-1l1,1l-3,2h-1l-2,2v1v1l-1-1l-3,3h1h5h1v-1l2-2l1,1v-1l3-2v-1l3-3l3,3l2-3l1-1l-3-2v-1l2-2l3-3h1l2-3h1l3-3
		l-3,9v-1l-1,1l1,1v4v1l-4,3l1,1l-1,5l-2,2l-1,1h1l-3-3v-1l-1,1l-2,2l-1,1h1l3,3v1l-3,2l-3-3v1l-3,3l3,2v1l-3,1l-1,1l-2,2l-3,3v1h-1
		l-2,3h-1l-2,2v1l-6-1v1h-1h-5h-1l-3,3h1l2,3h1v-1l6,1l3-3l3,2l2-2h1l3-3v-1l2-2l1-1v1h1l1-3h1v-1l2-2l1,6h-1l1-1l3-1v4l-1,1l-2,2v1
		v1l-3-3v-1h-1l-2,3h-1l1,1v4v1v1l-1-1l-2,2l-6,1v1l2,2h1v1l-3,1v1l-3-2l-1-1h1l-3,3l3,3h-1l-2,2v1h-1l1,5v1v1l-1-1l-2-2v-1h-6l3,3
		v-1l-1,1l3,3h1v1v5l3,2v1v1l3-3v-1v-1l2,4l-2,2v1l-3,2l-1,1h1v1l2,2l3-3l1,1v4v1v1l-1-1h-5v1l2,2l-2,2v1l3,3h-1l3-3h1v1v5h-1l-2,2
		l1,1l-1,1v-1h-1l-5,1l-1-1h1v-1l-3-2v-1l2-2l-3-3h1v-1l-2-2h-1l-3-2v-1v-1l-1,1l-2,2v1h-1l1,5v1l2,3l1-1v1v1v5v1v4v1v1v4l-1,1h1
		l3-3l3,3v1l-1-1l1-1l2-2l-2-2v-1h-1l1-1l3-3l2-2h1h5l-2,2v1v1v4l-1,1l1,1v4v1v1l3-3v-1h-1l1-1l2-2l1-1v1l6,6v1l-1-1l-2,3h-1l-2,2v1
		l-3-3h-1l-2,2v1v5l2-2l1-1v1v1l2,2l3-3l1-1v1v1l3,2v1l-3,1v1h-1l-2,2l-1,1l1,1l3,1l2-2h1l3-2l2,2l-2,8l-1,1l-2,3l2,3h-5l3,3v1l6,5
		l3,3h-1l1-1l-4-2h-5v-1l-1,1l-2,2l-1,1l-2,2v1h-1l-2,2v1h-1l-2,2l-6,1l-3,3v1l-3,2l9,3h-1l1-1l2-2h1l3-2l2,2l-2,3v1l-3,2h-1h-5v1
		l-3,2v1l-3,1v-4v-1v-1l-1,1l-2,2v1h-1l-2-2v-1h-1l-2,2l-1,1l-2,2v1v1v4l-1,1l-2,2v1h-1l-3,3h1v1l-3,1l-1,1h1v5v1h-1l1,1l-3,1v-5v-5
		v-1h-1l1-1l3-3l-3-1l-1-1l1-1l1,1l2-2v-1h-1l1-1v-4l-1-1h1v-1l-3-1v-1h-1l1-1"/>
	<path fill="none" stroke="#000000" d="M681,692l-3-2h-1l3-3h1v1l3,1l2-2l-2-2l-6-1v-1l2-2l-2-3h-1l1-1l3-2l3,3h-1l3-3l-2-3l-3-3
		l-3,3v1l-1-1l-2-3v-1l2-2l-2-3v-1l2-2h1l2-3h1l2-3h1v-1l3-1v-1v-1l3-2v-1l2-2l1-1v1v1l2,8l1-1l2-2l1,1v-1v-1l3-2l3-3h-1l-2-2l-6-1
		l3-2v-1h-1l1-1l2-2l3,3h1v-1l5,1h1v-1l-3-1v-1l-3-3h-1l-2-4l-1,1l-2,3v1l-3,1l-1,1l-1-3l-1,1l-1-1l1-1v-5v-1v-4v-1h-1h-5h-1l1,1v5
		v5v1v5v1h-1l1,1l3,3l-3,2h-1l-2,3l-3,2l-3,3v1h-1l-2,2l-1,1l-2,2v1v1l-1-1l-2-2v-1l-3,3l3,2l-1,1l-2,3l-3-2v-1v-1l-1,1l-11,12v-1
		l-1,1l1,1l-3,1v1h-1l4,2l-1,1l-3,3h1l-3-3v-1l-1,1l-2,2v1h-1l1,1l3,1v1v1l-4,2l1,1v-1l-3,3v1l2,2h1l-3,3v1l3,1l-1,1h1v1l-3,1l-1,1
		l1,1l-6-1v-1l-1,1l-5-1v1h-1h-4l-1-1v1v1l-1,5h1l3,3v-1l2-2h1v-1l2,4h1v-1l2-2h1v1l2,2h1l3-3v-1l-1,1l1,1l3,1v1l3-4l5,1h1l3-3h-1
		l-5-1v1h-1l-3-3h1h1l2-2l3,1l2-2l1,1v-1l3-2v4l-1,1h1v1l2,2h1v-1l2-2l1-1v1l3-3v-1l-4-2l1-1l2-2h1l3-3h5h1l-3,3l-3,3v1l2,2h1v-1
		l2-2h1v-1l2-2h1l3,3h-1l-2,2l-1,1h1v1l-3,1v1h-1l-5-1l-1,1l-2,2l-1,1h1l3,3l3-2l3,1v1h-1l-2,3h-1l-2,3l-3-3h-1l-2-2v-1v-1l-1,1
		l-2,2v1l-3,3v1l-3,2v1l-1-1l-2,2v1h-1l1,1l-3,1v1h-1l-5,1l-3,2l6,6v-1l-1,1l-2,2v1h-1l-2,2v-4l-3-4v-1l-1,1l-2-2v-1l-3,3v1l-3,2v1
		l-1-1l-5,1v-1h-1l-5-1l-3-3v1h-1l-2,2l3,3v1h-1l-2,3v1l-1,5h-5v-1l-1,1l-2-2l-3,1l-1,1h-5l-3-2l-1-1h1l3-2v-1v-1l-3-2l-6,1v5h-1
		l-2,2l3-1l3,1l-1,1h1l2,3h1v5v1l3,2l-3-1l-1-1l-2-2l1-1h-1h-1l-2,2v1h-1l-2-3h-1l-2,2l-3-1v-1h1l-1-1l-1,1l-5,1v-1h-1h-5h-1l1,1
		l-3,1v1h-1l-5-1l-3,3l-1,1h-5h-1l-2-2l-1-1l-2-3h-1v-6h1v-1l-3-2v-1l-6-4l-1-1h1l3-3h-1l1,1l2,2h1v-1l3-1v-1h-1l-2-4l-3-1v-1l3-2
		v-1h-1l1-1v-4v-1h-1l1-5l-1-1"/>
	<path fill="none" stroke="#000000" d="M533,714h1v-1v-4v-1l3-3h-1l1-5v-1v-1l2-2l1-1v1l2,3l-2,2v1v1v4v1v1l-4,2h1v5v1v1v4v1h-1l1,5
		l-1,1h1v1l1-1h4h1v6v-1l3-1l-1-1h1l3-4l2-2h1v-1l3-3v1v1l3,3l2,2l1-6l-3-3v1l2-4h1v1h6v-1h-1l-3-3l-2-2v-1v-1l2-2l-2-3v-1v-5v-1
		l2-2h1l-3-2v-1v-1v-5l3-3v-1l-1,1l-2-3l3-2l-1-1h1l3-2l-1-1l-2-2v-1h-1l1-1v-4l-1-1l1-1v1l-3-3v-1l5,1h1l3,3v1l2,2l-2,3v1l3,1v1h-1
		l-2,2l-1,1h1v5v1h-1l1,1l3,1v1l3-9v1l-1-1l1-1l3-2v-1l2-2h1v-1l2-2l-2-3l-3,3h-1l1-5v-1h5l-3-3l3-3h1v-1l-3-2h-1l4-2v-1v-1l-1,1
		l-2-2v-1v-1l2-2l1-1l-3-1v-1h-1l1-1l2-2l1,1v-1l-3-3h-1l1-1l3-1v-1h-1l1-1v-5h-1l-2,2l-1,1h1l-3-3l3-3h-1l3-3l-2-2v-1h-1l-2,3v-1
		v-4v-1h5l-2-4v1h-1l-2-2v-1v-1l5,1l-2-3l-3-3l3-3l-3-2l-1-1h1v-1l3-2l3,3l3,3h-1l-2,2v1l3,3l3,3v-1v-4l-1-1h1h5h1l3-3l3,3v-1l2-2h1
		v-1l2,4h1v1v4v1h-1l-2,2v1h-1l1,1l2,2l-2,2v1l-3-3v6l2,3l-2,4v-1l3,3l3,2l-1,1l1,1v5l3,9v6l3,2l-1,1l1,1v-1l-3,3h-1l1,1l-3,1v1h-1
		l-2,2v1v1l-1-1l-2-2v5h-6h-1l-2,2v1h-1l-2,2v1v1l-1-1h-5h-1l-2,2l-1,1h1l3,3v1l2,2l3,3l1,1v-1v-1l3-1l-1-1h1l-3-3l2-3h1l9-3v-1
		l-3,3v1v5l-1,1h1l-3,3l3,2l-1,1h1v1l-6,5l2,3l1,1v-1l3-3h-1l1,1l2,2h1v1l2,2l3,3l-3,3h1l3,3v-1l5-5l1,1v-1v-1l-3-1v-1v-1l-3-1l-1-1
		h1l3-2v-1v-1l2-2h-4h-1v-1l2-2h1v-1v-4l2,2l1,1v-1v-1l3-2v-1l-3-1v-1v-1l2-2l1-1v1l3,3h-1l1-1l2-2l-2-3v-1l2-2h1l-1-6h1h6l-3-3h-1
		l-2-4v1h-1l-2,2v1v1l-1-1l-2-4l3-1v-1v-1l-3-2v-1l-4-2l1-1v-5l-3-3v-5l-1-1h1v-1l2-2l-2-2v-1h-1l1-1l2-2l-2-3h-1l-2-4l3-2l2,3h1
		l3-3v-1l-4-2l1-1l-3-7v-1h-1l3-3l-3-3h1v-1l-3-1l-1-1l1-1v1h1l1-3l1-1v1v1"/>
	<path fill="none" stroke="#000000" d="M612,595l2,2h1v1l2-4l-2-3l-3-3h-1l1-1l2-2l1-1v1h5h1l-12-6h-1l1-1v-5h-1l1-1l2-2h1l3-4l3-2
		l2-3l1-1l2-2h1v-1l2-2l1-1v1l3-3l2-3l1-1l5-5h1h5l-2-2v-1v-1l-1,1l-5,1l-3,2h-1l-2,2l-4,4l-2,2v1h-1l-3,3l-2,2v1h-1l-2,2l-1,1h1
		l-3,3v1l-1-1l-3,3l1,1v-1l-3,3v5v1h-1l-2,2v1v5l-1,1h1v1l2,2h1l3,3h-1l-2,2v1h-1l-2-2v-1h-1l-2,3l3,3h-1h-6l-2,2v1h-1l-2-2v-1v-1
		l3-1v-1h-1l-2-2v-1h-1l3-3l1,1v-1v-1v-4l-1-1h1l-3,3v1l-1-1l-2-3l3-3v-1v-4v-1h-1l-2,2v1l-3-3l3-4v-4v-1h-1l-2,4v-1h-1l-2-3v-1l3-1
		l-1-1h1v-1l-3-2l2-3l-2-2v-1l-3,3v1l-1-1l-2-3l3-2v-1l-3-3v-1l-1,1l-2-2v-1v-1l2-2l-2-2v-1h-1l-2-4l-1,1l-2-3l-81-9v-1l-1,1l1,1v4
		l-1,1l-2-2v-1v-1l-1,1l-2,3v1l3,1v1v1v4v1h-1l-2-3h-1l-2,2l-1,1h1l2,3l1-1v1v1v4l-3-2h-1l-2,2v1h-1l4,2v1v1l-3,1l-1,1h1v1l2,2h-5v1
		l3,1l-1,1h1v5v1h-1l-2,2l-1,1l1,1l3,1v1h-1l-3,3h1l3,2v1h-1l-2,2v1h-1l4,2l-1,1l1,1l-3,1v1h-1l1,1l2,2h1l-3,2v1v1l3,1v1h-1l-2,2v1
		l3,3h-1l1-1l3-1v-1h-1l1-1l2-2h1v-1l-3-1v-1l2-3l1,1v-1v-1l2-2h1v-1l2-2h1v6h-1l-2,2v1l3,3h-1l-2,2v1l3,3h-1l-2,3h-1l3,3l-3,3h1
		l3,2l-1,1h1l-3,3h-1l1,1l2,2h1l-3,2v1v1l3,1l-1,1h1v1l-4,2h1l3,2l-1,1h1v1v4v1h-1l-3-3l-2,3l2,3h1l-3,3l3,3h-1l3-3h1v1v5v1l-3,1
		l-1,1l1,1l3,1l-1,1h1v1l-3,1l-1,1h1l3,3h-1l1,5v1l3-2v-1h-1l1-1v-4l-1-1h1v-1l3-1l-1-1h1v-1l2-2l1-1l2-2h1v1l2,2l-2,3h-1l1,1l2,2
		l-2,2v1l-3-3v-1l-1,1l1,1l-3,1v1l3,3l3,2v1v1l2,2l-2,4v-1h-1l-2-3l-3,3h-1l-2-2v-1h-1l-2,2l-3-2h-1h-5h-1l1-1l-3-1v-1h-1h-5v-1
		l-1,1l-2-2l-1-1l-2,2l-3-1v-1l-6-1l-1,1l1,1l3,1l-1,1h1l3,2l2-2h1v1l2,2h1l3,4v4v1h-1l1,1l-2,2l-2,6h-5l-3,2"/>
	<path fill="none" stroke="#000000" d="M456,689l-1,1h1l3,3v1l-1-1l-2,2v1l3,2l2-2l3-3h1v-1l2-2h1l2-3l1-6v-1l2-2l1,1v-1v-1l2-2l1,1
		v-1h5l4,3l6-1v1v1l2,2l3-3h1v-1l2,4l1,6l-3-3l-6,1l-3,2h-1l-2,3h-1l-2,3v1v4l-1,1l4,2v1l3-3v-1l-1,1l-2-2l-1-1l3-3l1-1v1l3,3v-1
		l3-1l5-1l1-1l2-2l1,1v-1v-1l5,1h1l-3-3l3-3h-1l1,1l3,1v1l2-3l1-1v1v1l3,7v1v1l-1-1l-2,2v1v1l-1-1l-3,3h1l2,3l-2,2v1h-1l-2-4v1h-1
		l-2,2v1l3,2v1v1l-1-1l-2,3h-1l-2,2l-1,1h1l3,3v-1l-1,1l-2,2v1l2,3l-5,1v-1v-1l-1,1l-2,4v-1h-1l-2-3h-1l-2-2v-1h-1l-2-2l-1-1h1v-1
		l-1-5v-6l-2,3v1v5v11l-1,1h1v1l2,2h1v-1l6,1v1l2,2h1v1l3,1v1l3-3l3,3v-5l-1-1l1-1l3,3l3-2v1l3,1l3-2l3,2l2-2h1v1v5h-1l-8,2v1h-1
		l3,9h1l3,2l-1,1l-2,2l3,4h5l1,1v-1v-1l2-2h1v5l-1,1h1v1l3,1v1l-3,3l-3,3v1l-1-1l-2-3l2-3l1-1l-3-3l-1,1l-5-1h-6v1h-1l-2,2v-5v-1
		l-1,1l-2-3v-1l-1,1l1,1v4v1l-3,2v1h-1l1,5v1h-1l-2,2l-1-5l-2-3l3-2v-1h-1l-2-2v-1v-1l-3-3v1h-1l-2,2l-3-1v-1l-3,3v-1l-4-2v6h-5h-1
		l1-1v-5v-1l-3-1v4l-1,1l-2,2l-3-3v1h-1l-2-2l-1-1l-5,1v-1h-1h-11v-1l-1,1h-4l-1-1v1h-1l1,1l-3,1v1h-1l-2-2l-1-1h1l-3-3h-1l-5-1v1
		h-1l-5-1v1h-1l-5-1v1h-1l-2-3h-1h-5v-1l-4-2h-5h-1l-2,2l-3-1l-1-1l-2-3h-1l-2-3h-1l-2-3l-6-1l-3-2v-1l-1,1l-2,2l-1,1h1l3,3l3,3h-1
		h-5l-3-3v-1v-4l-1-1h1v-1l2-2h1v-5v-1v-1l-1,1l-2,2v1v1l-1-1l-2,2v1l-3,3v-1l-3,3v1l-3-3h-1l1-1l-3-1v-1h-1l-2,2v1h-1l-2-4v1l-6,1
		l-1-1h1l6-5v-1h-1l1-1l2-2l1-1v1l2,3h1l3-3v-1l2,4h1l-3,2l-1,1h1v1l3,1l-1,1h1l3-3l3-3v1l-3-3v-1v-1v-4v-1l3-2v-1h-1l1-1v-4l-1-1
		l1-1l-3,3v1v1l-3,1v1h-1l-2,2v1h-1l-3,3h1l-3-3l-3,3v-1l-3-3l2-2l-3-3l1-1v1h5h1l-3-3h-1l-2-2v-1v-1l3-1l-1-1l-5-5l-1-1h1v-1"/>
	<path fill="none" stroke="#000000" d="M339,692l-3-2l-6,6v1l2,2h1l-3,3h-1l3,3l1-1l1,1l2,2v1h-1l1,1l3,1v1h-1l-2,2v1v1l-1-1l-2,2
		l-3-2h-1l1-1l2-2h1l-3-2v-1h-1l-2-2l-1-1h1v-1v-4l-1-1h1l-3-3l2-3l1-1l2-2h1v-1l-3-1v-1l-3,3h-1l1-1l-1-5l-2-2l-1-1h1h6v-1l3-1v-1
		h-1h-5l-3-2l2-4l-2-2v-1h-1l1-1l3-2l8-3h1l2-3h1v-1l2-2l1-1v1l3-3h5l1-1v1l3,3v1l-1-1l1-1l2-2l-2-2l-1-1h1v-1v-4l-1-1l1-1l2-2l-2-2
		l-1-1h1h5h1v5v1h-1l1,5v1h-1l1,5v1v1l2,2h-5h-1l-3,3h1v1l2,2l1-1l5,1h1v1v4v1l2,3h1v-1l2-2l-2-2v-1h-1l1-1v-4v-1h-1l3-3h1l3,3v-1
		l2,4h1v6l-1,6l-2,2l-1,1l1,1v-1l3,3l-3,2v1h-1l-2,3v-1l-3-3l2-2h1l-3-3v-1l-6,2l-1-1l1-1v1l-3,3l3,3v-1l-1,1l-2,2v1h-1l-2,2v1h-1
		l-2,2v1h-1l3,3h1l3-3l3-2v-1h5h1l3,4v4l-1,1l1,1v-1l3-3l2-3l1-1l3-1v-1l20,3h1l-3,2l-3-1l-3,1v1v1l-3,3l-1-1l-2,2v1h-1l1,1l3,2h-1
		l-3,3l1,1l-3,1v1v1l2,2l1-1v1l-3,3l-3,3v1l3,3v-1v-1l3-3v1l3,4l2,2l1,1v-2v-5v-1l3-1l2,2h1v-1l3-1l2,2l1-1v1h6v-1l3-1l2,2h1l2-3h1
		l3,3l-3,3h-1l4,2l2-2h1l-1-6h1v-1l3-1l5-1h1v5v1l3-3h-1l6-6l1-1l-3-2v-1l-1,1h-5h-1l1-5l-1-1l1-1v-4v-1h-1l1-1l5,1h1l2-3l-2-4l-3-1
		v-1h-1l-3,3l1,1v-1v-5v-1v-1l3-1v-1v-1l-1,1l-2-2v-1h-1l1-1l3-1v-1h-1l1-1l-4-2h1l6-1v1v1l2,2l-3,3h1v1l3,1l-1,1h1l3,2v1h-1l1,1
		l-3,2v1l3,1h6l3-1l-1-1h1l-3-3h-1l-3-3h1l3-3l-3-3h-1l1-1l2-2l-2-2v-1l2-3l-3-3h1l2-3h1l3-3v-1l-3-2l-3,3l-3-3v-1l-1,1l-2,2l-3-2
		v-1l3-1l-1-1h1v-1l-3-1v-1l-3,3v-1l-3-1v-1h-1l1-1l-3-2h-1l-2,2l-3-2v-1l2-2h1v-1l-3-1l-1-1l-2,3l-3-2v-1v-1l2-2h1v-1l-4-2l-2,2v1
		h-1l-2-2v-1v-1l2-2h1l-3-3v1l-3,1l-1,1h1v1l-3,3l2,2l-2,4l-1-1l-2-2l-1-1h1v-1l-1-5h1l3-3l-3-3h-1l1-1l-1-5h1"/>
	<path fill="none" stroke="#000000" d="M399,621v-1l2,4l1-1v1v1l2,2l1,1v-1v-1l5-5h1l3,3h-1l1-1v-4v-1v-1l2-2l10,2v1l2,3l1-1v1l3,3
		h-1l3,3h1v1l2,2h1l2,3l1,1l2,2l1-1l-2-2h-1v-1l-3-3l-1-5l-2-3h-1l-3-3l1-1l-1-5l-2,2l-3-1v-1v-1l3-1v-1h-1l1-1l-3-2v-1l-3-1l-1-1
		l3-3h1v-1l-3-1v-1h-1l1-1l2-2l-3-3l1-1v1l-3,3l-3,2l-1,1l-2,2v1v1l5-1l-2,2v1l-3,2v1v1l2,2l-2,2v1v1l-1-1l-2-3v5v1h-1l-2,2v1l-3-2
		l-1-1h1v-1v-4v-1h-1l-2,3h-1l-2-3v-1l3-2v-1v-4v-1v-1l-1,1l-3,3h1l-3-3v-1l3-2v-1l-4-2l1-1l3-1l-1-1h1v-6v-1v-4v-1h-1l1-6h-1h-4h-1
		l3-3h-1l1-1l2-2l-2-2l-1-1l1-1l-3-1v-1l-1,6l1,1l-3,2h-1l-2,2v1h-1l1,1l-3,1l-3-1l-1-1h1l-3-3h-1l3-3l-2-2v-2v-5h-1l3-3l1-5v-1h-1
		l1-1l-1-5h1v-1l2-2h1v-6l2-3h1l2-3l-2-3h-1l-2,2v1v1l-3,2v1v4l-1,1h1l-3,3v5l-1,1h1v5v1h-1l-2,2v1v1v4v1v5l-1,1h1v1v4v1l2,3h1l3,2
		l-1,1h1v1l-3,1v1l2,3h1l3-2v-1l3-3v-1h6v1v1l2,2l-2,2v1l-6,6v-1l-3-1v-1h-1l-14,8v1v1l-1-1l-2,2v1l3,2v1l-4,3l1,5v1h-1l1,1l2,2l1,1
		v-1l3-3v-1l2-2l1,5v1h-1l1,1l3,3v4v1h-1l-2-2l-1-1l-2-4l-1,1l1,1l-3,1l-1,1l1,1v-1h1l1,3l-3,3l3,3l1-1v1l2,3l1,1v-1l3-2v-1v-1l2-2
		l1-1v1l3,3h-1l-2,2v1h-1l1,1l2,2h1l2,3h1v1l2,2h1v1l2,2l1-1v1v1l3,1l-1,1l1,1l2,2l1,1v-1v-1l3-2l2-3l1-1v1l3,3h-1l-2,2l-1,1l1,1
		l2,2h1v1l2-4h1l3,8l-1,1l1,1l3,1v1v1l2,2h-5v-1l-3-1v-1h-1l-2-3l-3-2l1-1l-1-1v1h-1l-2-2v-1v-1l-1,1l-2,2l-3-2l-3-3v-1l-3-3l-9-2
		h-1l-2-4v1h-1l-2-4l-3,3l-3-3l-3-2v-6h-1l1-1l-3-2h-1l1-1l3-1v-1v-1v-5h-6v1l-3,2l3,2v1l-3,3h-1l1,1v4v1v1l-1-1l-5,1v-1h-1l1-5v-1
		h-1v-6l1-5v-1v-1l6,1v-1v-4v-1h-1l-5,1v-1v-1l3-2v-1l2-2l-2-4v1l-3,3h-1l-2-3l3-3h-1l-2-2v-1v-1"/>
	<path fill="none" stroke="#000000" d="M348,593l6,1v-1l-1-5l-2-2v-1v-1l2-2l-2-2v-1v-5l-1-1h1v-6h-1l1-1l-3-2v-1l2-2l-2-4v1h-1
		l-2,2v1h-1l-2,3h-1l1,1l-1,5h1l2,3h1v1l-3,1v1v1l3,2l2,3l-5-1v1v1l2,2l4,3h-1l-5,1v-1l-3,3l-3-3v-1l-2-2l-1-1l2-2l-2-2v-1h-1l-2-4
		l6,2v-1l3-2v-1v-1l-1,1l-2-2v-1v-1l-1,1h-5h-1l1-1v-4l-1-1h1h5l-2-2v-1h-1l-3-3l3-3l1,1v-1v-1v-4l-1-1h1v-1l-3-2h-1l3-3h1v-1l-3-2
		h-1l1-1l3-1v-2l-4-2h1v-1l2-2l1,1v-1v-1l-4-2h1l3-2v-1v-1l-3-1v-1v-1l3-1v-1v-1l2,4h1v-1v-4v-1l3-2v-1h-1l1-1l-3-2h-1l-1,3h-1v1
		l-1-1l-2-3l-3-2l-1-1h1l-3,3h-1l-2-2l-1-1h1l2-3l-5-1l-1,1l1,1l-3,1l-3-2v-1l-1-5l-2-4v1h-1l-2-2v-1v-1l3-1l2,2l1-1v1l3,3l3,3l3-2
		v-1h-1l-2-3h-1l1-1l5,1h1l2,3h1l2-3h1l2,3h1l3-2v-1h-1l1-1l2-2l1-1v2l2,2l3-3h1l-3-3h-1l1-1l2-2h1v-1l2,4h1v-1l3-1v-1v-1l-4-2l1-1
		l2-2l1-1v1v1l2,2h1v-1l3-1l-1-1h1v-1l-3-2h-1l1-1l2-2l1-1v1v1l2,2l3-3h1l2-3h-5h-1l1-1l2-2h1v-1l2-2h1l3-2l-1-1l-2-3l3-3h-1l1,1
		l2,2h1v-1l2-2l1-1l-3-2l3-3v-1l2-2l-5,1v-1v-1l3-1v-1l-3-3l2-3l-2-3h-1l1-1l-3-2v-1v-4v-1h-1l1-1l-1-5l1,1l3,1v1v5v1h-1l1,1l2,2
		l1,1l6,5l3,3h-1l-1,3h-2h1l3,3v-1l3-1l2,2h1v-1l2-2h1v1v4l2-2l3-3h1l3,3v-1l-1,1l-2,2l-1,1h1h5h1l2-3h1v1l3,1v1l-3,3h-1l1-1l5,1
		l1,1v-1l3-3h-1l3,3l-2,2l-1,1l1,1v-1h1l2,2v1h-1l-2,2l-1,1h1v1l2,2l-2,2l-1,1h1v1v4v1h-1l-3-3l-2,4v-1h-1l-2-2v-1h-1l-2,2l-1,1h1v1
		l3,2h-1l-2,2l-3-1v-1v-1l-3,4h-1l1,1l-3,1v1h-1l-2,2l-1,1h1l-3,3h5l1-1v1v1l-3,2h-1l-2,3h5l-2,2v1v1l-3,2l3,2v1h-1l4,2l-1,1l-2,2v1
		v5l-1,1l1,1l-3,2v1l-3,2l2,3h1v-1l2-2l1,1v-1v-1l2-2h6l-2-2v-1h-1l-2-2l-1-1h1l3-3v-1v2l3,1v1h-1l4,2l3,4"/>
	<path fill="none" stroke="#000000" d="M408,516v-1l2-2l1,1l3,3v-1v-1l2-2h1v1l2,2h1h5l1-1l-3-1l-1-1h1v-1l2-2h1v-1l2,4l1,1v-1v-1
		l2-2h1v-1l3-2l3-3v1l-3-3v-1l2-3h1v-1l2,4h1l2-3l-2-3h-1l1-1l-3-1v-1v-1l5,1v-6l-2-3h-1l-2,2v1h-1l-2-4l3-1v-1v-1l-3-1v-1h-1l-2,2
		l-3-2h-1l1-1l3-3l-3-2h-1l-2,3l-3-3h-1l3-3h1l-3-2v-1h-1l4-2l-1-1h1v-1l-3-1v-1h-1l1-1l3-1v-1v-1l-1,1l-2-2l-1-1h1l3-3h-1l1-1l2,4
		h1v-1l2-2h1v-1l2,4l1,1l3,1v-5h-1l1-1l2,4h1v1l1-1l1-3h1v1v4v1h5l-2-2l-1-1h1v-1l2-2h1v1l5,5l1-1v1h5h1l-3-3v-1l3-1l2,2h1v-1l3-1
		l3,1l-3,3l-1,1h1h5h1v-1l2-2l1-1v1v1l2,2l3-3h1v1l2,2h1l2-3h1l3,3v-1v-4l2,2l1,1v-1v-1l2-2h1l3,3v1l-1-1l1-1l2-2l1-1v1l2,3h1v-1
		l2-2h1l2,3h1v-1v-4v-1h5h1v-1l3-1l3,1v1h-1l-3,3h1h5h1h5h1v-1l-3-1v-1v-1l-3-1v-1h5h1l2,3h1l3-3h-1l1-1l2-2h1v1l-1,5h1v-1l3-1v-1
		l3-3h1l1,3l1-1v1l3-3v-1l3,3l3-1l1-1h-1h-1l1-1l-3-2h-1l1-1l3-1l2,2h1v1l3,1l3-1v-1v-1l-4-2h1v-1l5,1l1-1v1v1l2,2h1l2-3l1,1v-1v-1
		l-3-2l6-1v2l2,2l3-3l-1-3h-1h-1l-2-4l-3-2h-1l1-1v-4l-1-1h1v-1v-4v-1v-1l-3-3v1h-1h-5h-1l1,1l-3,1l-1,1l-3-3l1-1v1l-3,3v1l-3,2h-1
		l1-1v-4v-1l-3,3h-1h-5l2,3l1,1l-3,1v1h-1l-2-3h-1h-5h-1l3,3h1v1l-3,1l-1,1l-2-3h-1l-5-1l-1,1h1l3,3h-1l-2,2v1h-6h-1l1-1v-4l1-1h-1
		h-1l-5,1l-3,2v1l3,2v1l-3,1v1h-1h-5h-1l1-1v-4v-1h-1l-2,3h-1l-2-2l-3,1l-1,1h1l3,3h-1l-2,2l-3-1l-1-1h1l-3,3h-1l-2-2v-1v-1l3-1v-1
		h-1l1-1l5-5l1-5l-3,2l-3,3h-1l-2-3v5l-3-1v-1v-1l-3-1v-1h-1l-2,2v1h-1l-2,2v1h-1l-2-3h-1l-5-1l-1,1h1v1l2,2h1v1l2,2h1v1l3,1l3-1
		l-1-1h1h5h1v1v4l-1,1l-2-2l-3,2h-1l-2-3v1l-3,1v1h-1"/>
	<path fill="none" stroke="#000000" d="M476,429l-2-4l-3-2v-1l-3-1v-1l-3-2v-1h-1h-5l-3,2l-1,1h1l3,3h-1l1-1l2-2l1-1v1v1l3,1v1h-1
		l1,1l3,1v1h-1l1,1l3,1v1h-1h-5h-1l-2-2v-1h-1l-2,3l-3-3h-1l-2,2l-3-1v-1h-1l1-6v-1l-1,1h-5v6h-1h-5h-1l1-1v-5h-6h-1l1,5v1h-1l-2-2
		l-3,1v-4v-1l-3,3v1l-1-1l-2,2v-5h-1l-2,2v1v1l-1-1h-5v-1l2-2h1v-1l-3-1l-3,1v1l-3-3h-1l1,1v4v1h-1l-2-3l-3,3v-5v-1v-1l-1,1l-3,3
		l-2-3v-1l-1,1l-2,3l-3-3v-1l-1,1l-2-3h-1l1,5v1h-1h-5h-1l1-5l-1-1h1v-1l-3-1l-3,1l-3-3v1h-1l-2,4l-1-1l-2-3l-3,3l-3-3v1l-1-1l1-1
		l3-1l-1-1l1-1l-3-1l-3,2h-1l-2-3v-1l-1,1l-2,2v1l-3-3h-1l1-1l3-1l-3-4h-1l-2,2v1v1l-1-1l-2-2v-1h-1l1-1l-3-2l3-3v1l-1-1l1-1l-3-1
		v-1h-1l1-1l-3-2v-1l-3-3l-1-5l-2-2v-1h-1l-2-4v1h-1v6h1v1l2,2l1,1v-1l-3,3h-1l-2,2v1v1l5-1l1-1v1l3,2v2l3,1v1h-1l-2,2v1h-1h-5v-1
		l-3-1v-1v-1l-1,1l-2-2v-1h-1l-2-2l3-3v-1h-1l-2-2l-3,1l-1,1l-5-1l3-1l2-4l-5-1l-1,1l-2-2v-1h-1l1-1l3-1v-1h-1l-2-4l-1,1l1,1l-3,1v1
		v1l-1-1l-2-3v-1l3-1v-1v-1l-3-1l-1-1h1v-1l2-2l-5,1v-1v-1l3-1l-1-1h1v-1v-4v-1h-1l-3,3l-2-2v-1h-1l1-1l3-1v-1v-5v-1h-1l-3,3l-2-4v1
		l3-3v-1l2-2l-2-2l-1-1l-2,4v-1h-1l-2-2v-1v-1l-1,1l-6,6h1l-3-9h-1l-2-3v-1l3-3v1l2,3l1,1v-2l2-2h1l2,3l1,1v-1h5h1v-1l-3-3l3-2l-3-3
		v-1v-4v-1h-1l1-1v-5l-3,2v1v5v1v1l-1-1l-2,2v1h-6h-1l-2,2v1h-1l-2-4l2-2l-2-2v-1l2-3h1h1l1-3l-5,1l-1-1l1-1v1l3-3v-1l2-2l-5,1v-2
		l2-2h1h1l1-3l-2-3l-3,3h-1l1-1v-4l-1-1l1-1v1h5h1v-1v-5h-1l-5,1v-1v-1l2-2h1v-1l3-1v-2l-3-1v-1h-1l1-1l2-2l3,3l1,1v-1v-1v-5v-1l2-2
		l1-1v1l-3-3h-1l1-1l3-1v-2l3-1l-1-1l1-1l2-2l-1-3l-1-1v1h-1l-3,3l-2,4v-1h-1h-5l3,3h-1l-2,2v1h-1l1,1l3,1v1h-1h-5h-1h-5v-1l2-2h1
		l-3-3h-1"/>
	<path fill="none" stroke="#000000" d="M263,258l-2,2l-1,1h1l-3-3l-3-3l3-9h-1l1-1v-4v-1v-1v-4v-1v-1l2-2h1v-5l-1-1h1v-1v-4v-2l2-2
		h1v-1v-5v-1l2-2h1v-6l2-3l1-1l2-2v-6h1v-1l2-2l1,1v-1v-1l2-2h1v-1v-4l3-3v-1l3-2v-1h-1l3-3l1,1v-1v-1l2-2h1v-1l2-2h1v-1l2-2h1v-1
		l2-2l1-1v1v1v4l-3,3v1h-1l-2,2v1v1l-1-1l-2,2l-1,1l1,1v-1l-3,3l-1,6l-2,2v1h-1l-2,2v1v1l-1-1l-2,2v1v1l-1,5l-2,2v1l-3,2l-1,1l1,1
		l-1,5l-2,2l-1,1h1l-3,3v1l2,2l-2,2v1h-1l-2,3v5v1v1v5h-1l1,1l-1,5l-2,3l2,3l-2,3v1l2,2h1l2,3l1,1v-1v-5v-1v-1l2-2h1v-1l2-2l1-1v1
		l2,3l1,1v-1v-1l2-2h1v-1l-3-1v-1v-1l2-2l1-1l2,4l1,1v-1v-1v-5l2,3l1-1l3,3l3-1v-1h-1l1-1l3-1v-1h-1l1-1v-4l-1-1h1l3-3h1l-1-1l-1,1
		l1,1v5v1v4l-1,1h1l3-3h-1l3-3l1-1l2,4h1l3-2l3,1l3-1l-1-1h1l-3-3v-1l-1,1h-5l-3-3v-1l3-3l2-2h1v-1l-3-2v-1l2-2h1l2,3h1l3-3h-1l-2-2
		v-1v-1l-1,1l-2-3h-1l1-1l3-1l-1-1l-3-3h1l3-4l3-1l-1-1l1-1l-3-1v-1l2-3h1l3-3l2-3h1l2-3h1v-1l3-1v-1v-1l-5,1h-1v1l-3,1v1v1l-3,2v1
		l-5,5l-1,1l-1-1h1l-3-3l3-3v-1l-1,1l-2-2v-1v-1l2-2h1l2-3l1-1l-3-1v-1h-1l1-1l3-1v-1h-1l1-1l2-2h1v-1l-4-2h1h5h1l3-3h-1l1-1l-3-2h5
		h1l3-4l2-2h1v-1l3-1v-1v-1l-3-1l-3,2l-3,3v1l-1-1l1-1l-4-2h1v-1v-5v-1l-1,1l-2,2v1l-3,3v1l-3,2l-3,3h-1l-3,3l-2-3h-1l1-1l3-2l3-3v1
		l-1-1l1-1l3-1v-1h-1l1-1l2-2l1,1v-1l3-3l2-3l1-1v1l3,3l2,3h1v-1l5,1h1l3,3l3,3h-1l1-1l8-8h1v1l5-1l1,1v-1v-1v-4v-1h-1l-2,3h-1l-2-2
		l-3,1v1l-3,2v1h-1l-2-3v-1l-1,1l-2,2v1h-1l-2-3h-1l-2,2l-3-1v-1h-1l1-1l-3-1l-1-1l1-1l2-2l1-1v1l3,3v1l-1-1l3-3h1v-1l-3-3l2-2h1v-1
		l2,4l3-3l1-5v-1v-1l2-2h1h5l-2-3v-1l2-2l1-1l3,3v1l3-3v-1l-4-2l1-1l2-2h1v-1l2,4h1h1"/>
	<path fill="none" stroke="#000000" d="M358,105l1-3l1,1v-1v-1l-3-1l-1-1h1v-1l3-1v-1l3,3h5l-3-3l1-1l2-2l1-1v1l3,3v-1l3-3l-4-2l1-1
		l2-2l1-1l2-2l4-2l-3,8h5l1-1l2-2l1-1v1l3-3l-3-2v-1h-1l4-2l2,2l1,1v-1v-1l3-3l2,4h1l3-2l-1-1l1-1l-3-1v-1h-1l4-2v-1v-1l3,4h5h1v1
		l5-1h1v-1l3-1v-1h-1l-2-2v-1h-1l-2,2v1h-1l-5,1v-1l-3-3l2-3h-5h-1v-6l-2-3l2-3h1l3,3l2,3v-6l-2-3l-3-3h-1l1-1l5,1l1-1l2-2h1l2-3h1
		h5l1-1v1l-3-3v-1l2-2l-5-1v1v1l-1-1l-2-2v-1v-1l-1,1l-2,2v1h-1l-2,3l-3,3h-1l1-1l-1-5h1v-6h5l1-1l3-1l-1-1l1-1l3-1l2,2h1v-1l3-1
		l-1-1h1h5l1,1v-1v-1l5,1h1l3,3l3,2v1l3,3v-1l-1,1h-6l-2,2l-3-2h-1l1-1l-4-2l-5,1l3,3l3,1l-1,1l1,5l2-2h1l3,2l3-2l3,3h-1l1-1l2-2
		l1-1v1v1l3,2h-1l-1,3l-4,2v1l2,3l1-1l2-2h1v1l2,2l-2,3h-1l-2,2v1l2,3l1,1v-1v-1l2-2l1-1v1v1l2,2h1v1l2,2h1v-1l3-1l3,1l2-2h1h5h1v1
		v5h-1h-5h-1h-5l-3,2l-3-1v-1h-1l-3,3h1l-3-3v-1l-1,1h-5v1l3,1v1h1l-1,6v1l-3,1v1l-3,3h-1l-2-2l-1-1h1v-1v-5v-1l3-1v-1l-3-3l-3,4
		l-3-3v-1h-1l-2,2l-1,1l3,3l1-1v1v1v5v1l3,1l-1,1h1v1l-3,1l-3-1v-1v-1l-1,1l-2,2l-1,1l-3,9l-3-3l-2,2l-1,1h1v6h-1l-3-3l-2,2l2,4
		l-2,2v1l-3-2v-1h-1l-2,2v1h-1l1,1l3,1l-1,1l-2,2v1h-1l-3-3l-3,3h1v1l-3,1v1l-3,3v1v4v1l2-3h1l3-3h-1l1-1l3-1l-1-1l1-1l3,3v1l-3,3
		h-1l1,1l3,1l2-2h1v1l3,1l-1-5h1v-1l1,1l1,3h1v1l3,1v1h5l1-1l-3-1l-1-1l-2-2v-1v-1l5,1h1l6,1l3,1v1h-1l-2,2l-1,1h1h5h1l2-3h1v1l2,2
		h1v1l3,1l-1-5h1h5l-2,3l2,3h1l3-3v-1l2,4l1,1v-1l3-3v1v5h5l1,1l3,1v-4l-1-1l1-1v1h5h1l-3,2v2l2,2h1l2-3h1v-1l2,4l1,1v-1l2-3h1v1
		l2,2h1l-3,2l-1,1h1v1l3,1l3-1l2,2h1v-6h-1l4,2l-1,1h1v1l3,1l-3,3l-1,1l4,2l6,1l3-3v1l-1-1"/>
	<path fill="none" stroke="#000000" d="M500,141l-2-2v-1h5h1v1l3-3v-1v-1l2-2h1l-3-3v-1l3-1l-1-1l1-1l2,4h1v1l3-3l-1-1l1-1l-3-1
		l-1-1l1-1l2-2l1-1v1v1l2,2h1l2-3l-2-3v-1l2-2l1,1v-1v-1l2-2h1v-1l3-1l-1-1l1-1l-3-2l3-3v1l2,2l1,1v-1v-1l3-1l-1-1h1v-1l2-2l1-1v1
		l-3-3l-3,2v1h-1l-2-4l3-2v-1l-3-1v-1l-3,3v1l-1-1l-2-3l-3,3v-1l-1-5l-2,3h-1l-2-2v-2l-3-2v5l-3-1l-1-1h1l-3-3l-3-3l-3,3h-1h-5h-1
		l1-1l2-2h1v-1l-3-1v-1h-1l-2,2l-3-2h-1l-2,3h-1l-5,1l-1-1h1v-1l2-2h1v-1l-3-1l-3,1l-3,3v1h-1l-2-2l-4,2h-5l-3-3h-1l-2,2v1h-1h-5v-1
		l-1,1h-5h-1l1-1l3-1v-1v-1l2-2h1v1l2,2h1l3-2v-1v-1l5,1l1-1v1v1l2,2h1v1l3-3l-1-1h1h5l1,1v-1l3-9h-1l1-1l3-1l-3-3v-1h5h1v1v5v-1
		l3-1l3,1v1h5h1v-1l-1-5l3,3h1v-1l3-2l3,3v-1l-1,1l-3,3h1v1l3,1v1h5h1v-1l-1-5h1v-1l3,3l2-2h1v1v5v1l1-1l2-4l5,1l1-1v1l-3,3l3,3h5h1
		v-1l-3-1l2-4h1v1l2,2h1l2,3l1,1l3,1l-1-5h1v-1l3,3l2-2h1v1l3,1v1l-3,3h-1h6h1l3,3l3,2l3-2l2-3h1v5l-1,1h1h5h1v-1v-4v-1h-1l-3-3l1-5
		v-1h-1l-2,2v1l-3,3h-1l1-1l-3-1l-3,1l2-2h1l3-4v-5l-3-3v-1v2l5,5l1-1l3-1v-1h5l1-1v1v1l3,2v1l-1,5h1l3-3v-5l-1-1h1v-1l2-2l-5,1v-1
		h-1l1-1l2-2h1v-1l3-1v-1v-1l3-1v-1h-1l1-1l-3-1v-1l3-3v-1v2l2,2h1v-1l3-3l-3-2v-1l2-2h1v-1l2-2h1v-1v-4l3,3v-1v-1l2-2l1-1v1l-3-3
		l3-3v1l2,2h1l3-2l-1-1l1-1l-3-1v-1l3-3l2,3h1v-1l3-1v-1v-1l-4-2h1l3-3h5h1v1v4l2-2l1,1v-1v-1l2-2h1"/>
</g>
</svg>
