<?xml version="1.0" encoding="utf-8"?>
<!-- Generator: Adobe Illustrator 14.0.0, SVG Export Plug-In . SVG Version: 6.00 Build 43363)  -->
<!DOCTYPE svg PUBLIC "-//W3C//DTD SVG 1.1//EN" "http://www.w3.org/Graphics/SVG/1.1/DTD/svg11.dtd">
<svg version="1.1"
	 id="Layer_1" xmlns:dc="http://purl.org/dc/elements/1.1/" xmlns:sodipodi="http://sodipodi.sourceforge.net/DTD/sodipodi-0.dtd" xmlns:cc="http://creativecommons.org/ns#" xmlns:inkscape="http://www.inkscape.org/namespaces/inkscape" xmlns:rdf="http://www.w3.org/1999/02/22-rdf-syntax-ns#"
	 xmlns="http://www.w3.org/2000/svg" xmlns:xlink="http://www.w3.org/1999/xlink" x="0px" y="0px" width="3200px" height="800px"
	 viewBox="0 0 3200 800" enable-background="new 0 0 3200 800" xml:space="preserve">
<sodipodi:namedview  inkscape:showpageshadow="false" showgrid="false" showborder="true"></sodipodi:namedview>
<g transform="translate(1415, 545) scale(1, -1)">
	<path fill="none" stroke="#000000" d="M267,0l-10,2v6l-6-2l1,8l-1,1v5l-2,2l-3-2l1-5h-5l-4,2l-2-1l-13,13v-6l-5-2l-2-1h-4h-2l-5-1
		l-6-2l-6,1l-7,1l3-2l4-3l-2-8l-3-2l-3-1l-2,1l-5,1l2,10l1,5l-1,3l-3,2l-2,3l-5,5l4-1l4,2h3l-5,7l-9-2l-5,1h-6h-4l-4,1l-1,4l-5,6
		l5,4l-4,2l-3,1l1,8l-1,5l5,4l-9-2v4h-3l-4,1l-1,2l-5,1l2,6l4-2l-1,2v9l-1,6v7l4,2l2-1v7l3,6l2,6l5,3l4-2v3l5,4l4,4l4,2h3l3,1l6,1
		l4,2l4-1h3h4h4h3h3l2-1l3,4h3l-1-5l2,1h3h2l6,3l2-2h4l5-1l5-1l1-8l-1-4l-3-6l1-5l9,10l-2,2l1,7l3-1v7l4,3l-3,1l-3,2l-4,2h-3l-6,2
		l-8,2h-5l-12,1h-6h-3h-4l-4,7l4,4l1,5l-3,3l-4,4h-5l-4-3l-3-6l2-5l3-1l8-9h-3l-3-1l-2-1l-5-1l-6-4l-2,8l-1,4l-3,2l-1,2l-3,1l-2,4
		l-6,2h-4v4l7,4l-1,1v8v4l1,5l1,4l2,6l1-5l2-3l9-4l3-6l5,8l-1,3l-3,1l-2,2l6,4l2,6l4,1l1-3l2-5l1,5l3,6l3,4l-10,3l-4-5l-1,4h-6l-4-1
		v-3l1-3l-3-6l-4,2l1,5l-1,4l-2,3l2,6l-4,1l-5,2l-3,5v5l1,6h3l3,3l-2,7l4-2l1-3l4,2l3,1l-3,4l3,1l7,2v-5l-2-6l2-5l1-1l-6-2l-2,3
		l-2,2l-6-4l3-5l3-4l2-3l10-5l4,3l1-2l6-2l3,2l5,3l2,1l4,1h3l-4,11l-7-1l2-4l-4-1l-3,3l1,6l-1,7l-4,1l1,9l14,2l4,1h3l2-1l7,3l3-1h3
		l5,4l2-3l-5-4l5-3l1-5h-8l-4-2l-5,2l-2-6v-8l2,1l8,2l1-1v-4l-5-1l-5-2l-1-6h3v-3l-5-3v-5v-4v-5v-6l1-1l-4-2v-5v-5l2-4l2-5h32l4,6
		l1,5l2,1l1,9l-2,2l-2,3l1,5l1,5l-2,1v4l1,5v5l-2,2l-5-4v4v7l-9,4l9,3l-2,5l9,7l3-2l8-3l3,1h3l2-2l1-6l4-2l8,3l5-3l-4-2l2-3l3-1v-5
		l9,3l3-3l2-1l2-3l1-5l1-4l-5-3l1-4l-1-5l-1-6l1-3l-4,6l-2,1v7h-4l1,5l-3,5l-3,2l-4,2l-6,6l-2,3l-1,1l-12,4l-4-2l-3-4l7,1l2-1l1-2
		l2-2v-5l-6-9l1-2l-1-7l-5-1l5-2l1-4l-4-1l2-4l1-5l3-2l1-1l4-3l1-1l3-13l3,1l7,2l4,3l3,2l2,5l4,1l2-2l2,10l4-6l3-3l-4-2l2-2l1-4v-7
		l2-2l2,1l3-2l1-4l-7-1v-8l-1-8l1-4l-4-6v6l-1,5l1,5l-3,5l-1,3l-1,7l-4,7l-9-5l-1,1l-6-2l-4-2l-5-1l-3-2l6-6l-4-2l-2,1l-2,2l-5-2
		l2-8l1-2l-4-6l5-3l6-3l1-1l3-3l2-1h7l-7-4l3-3l1-1h3l9-3l1-7l5-1l4-2l-5-3l-3-1l7-4l-1-5l-6-5l-8-5"/>
	<path fill="none" stroke="#000000" d="M277,94l-4,1l-3,3l-1,4h-5l-3-2l-2,3h-3l-4-1l-7,3l-6-1h-3l-2,2l-1,1l-4,6l1-3l-2-8l-2,4
		l-1,2l-6,2h-5l-6-1l-2-1l-8-6l-3-2l-4-3l-6-7l-1,1l-3-3l13-7h5l3-2l1-1l-2-10l-6-2l-4,2l-4,8l-12,7l-4-3l-5-1h-4l-1,9l-2,5l1,5l1,7
		h-9l3-2l2-4l-1-19v-5l1-1l6-2l6,1l4-6l2-3l-10-1l-3,2l-5-3l8-10l14,5l6-9l9-3l-2-1l-3-9l5,1h3l2,1l5,2l11-2l-3,4l-2-1l-6,8l7,2
		l-2,6l8,5l1-7l5,1l5,3l6,5l4,3l2,5l3,3l5-3h4l3,1l4,2l5,5l-5,3l-5-4l-3-1l3,6l-3,4l-2,1l-1-7l-6-2l-4,1l-3-4l-3-5l-2,3l1,12l6,3v8
		l3,1l7,1l1-3l2-2l7,3l3-2l1-1l3-2l3-3l6,2l3-3v-5l1-1l1-3l-2-6l1-7l1-5l-6-3l-4,1l-3-5l-3-3h-2l5-6l6,3l4,5l3-6l4-4l-2-8l2-1l4,2
		l2,1l2-3l-4-5l-3-2h-4l-5,3l-3,2h-4l-2,3l-1,3l-7,6l-2-4l-2-6l3-4l4-1l-4-5l2-1l3-5l2-6l2-2l2-5V0"/>
</g>
</svg>
