<?xml version="1.0" encoding="utf-8"?>
<!-- Generator: Adobe Illustrator 14.0.0, SVG Export Plug-In . SVG Version: 6.00 Build 43363)  -->
<!DOCTYPE svg PUBLIC "-//W3C//DTD SVG 1.0//EN" "http://www.w3.org/TR/2001/REC-SVG-20010904/DTD/svg10.dtd">
<svg version="1.0" id="Layer_1" xmlns:svg="http://www.w3.org/2000/svg"
	 xmlns="http://www.w3.org/2000/svg" xmlns:xlink="http://www.w3.org/1999/xlink" x="0px" y="0px" width="936px" height="900px"
	 viewBox="0 0 936 900" enable-background="new 0 0 936 900" xml:space="preserve">
<title>Retro-looking abstract flower patterns in late 60&apos;s - early 70&apos;s style.</title>
<g id="gee" transform="translate(2,600) scale(1,-1)">
	<path fill="none" stroke="#231F20" d="M98.688,202.427c0,2.999,0.484,6.094,1.517,9.27c5.113,15.736,19.913,21.93,37.263,21.93
		c9.626,0,20.038-1.906,30.015-5.148c23.463-7.623,42.145-19.024,54.735-30.368c-6.898,15.479-11.968,36.771-11.968,61.44
		c0,29.4,11.025,58.8,36.75,58.8s36.75-29.399,36.75-58.8c0-24.67-5.069-45.961-11.968-61.44
		c12.59,11.344,31.271,22.745,54.735,30.368c9.977,3.242,20.389,5.148,30.015,5.148c17.351,0,32.15-6.194,37.263-21.93
		c1.033-3.177,1.517-6.271,1.517-9.27c0-20.102-21.751-35.946-46.082-43.852c-17.986-5.844-35.004-8.241-49.561-8.241
		c-4.433,0-8.637,0.223-12.571,0.638c14.68-8.469,31.296-22.714,45.797-42.672c10.073-13.865,17.115-29.932,17.115-43.917
		c0-10.007-3.605-18.948-12.285-25.255c-5.417-3.935-11.198-5.674-17.092-5.674c-16.754,0-34.418,14.049-47.201,31.644
		c-14.501,19.959-22.914,40.163-26.432,56.741c-3.518-16.578-11.931-36.782-26.432-56.741
		c-12.783-17.595-30.447-31.644-47.201-31.644c-5.894,0-11.676,1.739-17.092,5.674c-8.68,6.307-12.286,15.248-12.286,25.255
		c0,13.985,7.042,30.052,17.116,43.917c14.5,19.958,31.117,34.203,45.796,42.672c-3.935-0.415-8.139-0.638-12.571-0.638
		c-14.557,0-31.575,2.397-49.561,8.241C120.439,166.48,98.688,182.325,98.688,202.427z M232.3,164c0-8.118,6.582-14.7,14.7-14.7
		s14.7,6.582,14.7,14.7s-6.582,14.7-14.7,14.7S232.3,172.118,232.3,164z"/>
</g>
<g id="gee_1_" transform="translate(2,600) scale(1,-1)">
	<path fill="none" stroke="#231F20" d="M129.069,196.993c0,2.385,0.385,4.845,1.206,7.371c4.065,12.513,15.833,17.438,29.63,17.438
		c7.654,0,15.933-1.516,23.867-4.094c18.657-6.062,33.512-15.127,43.522-24.147c-5.485,12.309-9.516,29.238-9.516,48.854
		c0,23.378,8.767,46.755,29.222,46.755s29.222-23.377,29.222-46.755c0-19.616-4.031-36.546-9.517-48.854
		c10.011,9.02,24.866,18.086,43.523,24.147c7.933,2.578,16.212,4.094,23.866,4.094c13.796,0,25.565-4.925,29.63-17.438
		c0.821-2.526,1.206-4.986,1.206-7.371c0-15.984-17.295-28.583-36.643-34.869c-14.302-4.647-27.833-6.553-39.408-6.553
		c-3.524,0-6.867,0.177-9.996,0.507c11.673-6.735,24.885-18.061,36.416-33.93c8.01-11.025,13.609-23.801,13.609-34.922
		c0-7.957-2.867-15.066-9.769-20.081c-4.308-3.128-8.904-4.512-13.591-4.512c-13.322,0-27.367,11.171-37.532,25.161
		c-11.53,15.871-18.22,31.937-21.017,45.119c-2.797-13.183-9.487-29.248-21.017-45.119c-10.165-13.99-24.21-25.161-37.532-25.161
		c-4.687,0-9.284,1.384-13.591,4.512c-6.902,5.015-9.769,12.124-9.769,20.081c0,11.121,5.6,23.896,13.61,34.922
		c11.53,15.869,24.743,27.195,36.415,33.93c-3.128-0.33-6.471-0.507-9.996-0.507c-11.575,0-25.106,1.906-39.409,6.553
		C146.365,168.41,129.069,181.009,129.069,196.993z M235.311,166.438c0-6.455,5.234-11.689,11.689-11.689
		s11.689,5.234,11.689,11.689s-5.234,11.689-11.689,11.689S235.311,172.893,235.311,166.438z"/>
</g>
<g id="gee_2_" transform="translate(2,600) scale(1,-1)">
	<path fill="none" stroke="#231F20" d="M152.495,192.803c0,1.911,0.309,3.883,0.966,5.907c3.258,10.027,12.688,13.974,23.744,13.974
		c6.134,0,12.769-1.214,19.126-3.28c14.951-4.857,26.855-12.123,34.877-19.351c-4.396,9.864-7.626,23.431-7.626,39.15
		c0,18.734,7.025,37.467,23.417,37.467c16.392,0,23.418-18.733,23.418-37.467c0-15.72-3.23-29.287-7.626-39.15
		c8.022,7.229,19.926,14.494,34.878,19.351c6.357,2.066,12.992,3.28,19.125,3.28c11.056,0,20.487-3.947,23.744-13.974
		c0.658-2.024,0.966-3.996,0.966-5.907c0-12.809-13.86-22.905-29.364-27.942c-11.461-3.724-22.305-5.251-31.581-5.251
		c-2.824,0-5.503,0.142-8.01,0.407c9.354-5.397,19.942-14.473,29.182-27.19c6.418-8.836,10.906-19.074,10.906-27.986
		c0-6.376-2.297-12.073-7.828-16.092c-3.452-2.506-7.135-3.615-10.891-3.615c-10.676,0-21.931,8.951-30.077,20.163
		c-9.24,12.719-14.601,25.593-16.842,36.157c-2.241-10.564-7.602-23.438-16.842-36.157c-8.146-11.212-19.401-20.163-30.076-20.163
		c-3.756,0-7.44,1.109-10.892,3.615c-5.531,4.019-7.829,9.716-7.829,16.092c0,8.912,4.488,19.15,10.907,27.986
		c9.24,12.717,19.828,21.793,29.182,27.19c-2.507-0.265-5.186-0.407-8.011-0.407c-9.275,0-20.119,1.528-31.581,5.251
		C166.355,169.898,152.495,179.995,152.495,192.803z M237.633,168.317c0-5.173,4.194-9.367,9.367-9.367s9.367,4.194,9.367,9.367
		c0,5.173-4.194,9.367-9.367,9.367S237.633,173.491,237.633,168.317z"/>
</g>
<g id="gee_3_" transform="translate(2,600) scale(1,-1)">
	<path fill="none" stroke="#231F20" d="M171.688,189.371c0,1.523,0.246,3.094,0.77,4.707c2.596,7.991,10.112,11.136,18.922,11.136
		c4.888,0,10.175-0.967,15.242-2.614c11.914-3.871,21.401-9.661,27.794-15.421c-3.503,7.861-6.077,18.672-6.077,31.2
		c0,14.929,5.599,29.858,18.661,29.858c13.063,0,18.662-14.929,18.662-29.858c0-12.527-2.574-23.339-6.078-31.2
		c6.394,5.761,15.879,11.55,27.795,15.421c5.066,1.646,10.353,2.614,15.241,2.614c8.811,0,16.326-3.145,18.922-11.136
		c0.524-1.613,0.77-3.184,0.77-4.707c0-10.207-11.045-18.253-23.4-22.268c-9.133-2.967-17.775-4.185-25.167-4.185
		c-2.25,0-4.385,0.113-6.383,0.324c7.455-4.301,15.892-11.534,23.256-21.668c5.115-7.041,8.691-15.201,8.691-22.303
		c0-5.081-1.831-9.621-6.238-12.824c-2.751-1.996-5.687-2.881-8.68-2.881c-8.507,0-17.477,7.134-23.969,16.068
		c-7.363,10.137-11.635,20.396-13.422,28.814c-1.786-8.419-6.058-18.678-13.422-28.814c-6.491-8.935-15.461-16.068-23.968-16.068
		c-2.993,0-5.929,0.885-8.68,2.881c-4.408,3.203-6.239,7.743-6.239,12.824c0,7.102,3.576,15.262,8.692,22.303
		c7.363,10.134,15.801,17.367,23.255,21.668c-1.998-0.211-4.133-0.324-6.384-0.324c-7.392,0-16.033,1.218-25.167,4.185
		C182.733,171.117,171.688,179.164,171.688,189.371z M239.536,169.857c0-4.122,3.342-7.464,7.464-7.464
		c4.123,0,7.465,3.342,7.465,7.464c0,4.123-3.342,7.465-7.465,7.465C242.878,177.322,239.536,173.98,239.536,169.857z"/>
</g>
</svg>
