<?xml version="1.0" encoding="utf-8"?>
<!-- Generator: Adobe Illustrator 14.0.0, SVG Export Plug-In . SVG Version: 6.00 Build 43363)  -->
<!DOCTYPE svg PUBLIC "-//W3C//DTD SVG 1.1//EN" "http://www.w3.org/Graphics/SVG/1.1/DTD/svg11.dtd">
<svg version="1.1"
	 id="Layer_1" xmlns:dc="http://purl.org/dc/elements/1.1/" xmlns:sodipodi="http://sodipodi.sourceforge.net/DTD/sodipodi-0.dtd" xmlns:cc="http://creativecommons.org/ns#" xmlns:inkscape="http://www.inkscape.org/namespaces/inkscape" xmlns:rdf="http://www.w3.org/1999/02/22-rdf-syntax-ns#"
	 xmlns="http://www.w3.org/2000/svg" xmlns:xlink="http://www.w3.org/1999/xlink" x="0px" y="0px" width="3200px" height="800px"
	 viewBox="0 0 3200 800" enable-background="new 0 0 3200 800" xml:space="preserve">
<sodipodi:namedview  inkscape:showpageshadow="false" showgrid="false" showborder="true"></sodipodi:namedview>
<g transform="translate(1155, 648) scale(1, -1)">
	<path fill="none" stroke="#000000" d="M265-5l-1,1h-1h-1l-2,1l1,1v1l-2-1v1l-1,1v1l-2-1v1v1h-1h-2l1,1l-1,1h-1v1v1l-2-1l-1,1l1,1
		l-1,1l2,2l-1,3v3v2v3h-3l-2-3l-1,3l-1,1l2,2l-2,1l-1,2h-3l-2,1l-1,1l-1-3l2-1l2-1l1-3l1-3v-2l1-1l1-1l2,1l2,1v-3v-3V9V8l1-1l-1-1
		l-1,1l-1,1h-1l1,1v1v1h-1l-1,1l-1-1v2h-2v1v1l-1,1h-1v1h-1l-1,1l-1,1v1l2-1v2h-2l-1,1l-1-1l-1,1l1,1l-1,1h-1h-1v1v1l-1,1l-1-2v2h-2
		l1,1v1l-1,1l-1-1l-1,1l-1,1l-1-1l1,3l1-1l1-1h1l3,1l2-1l1-2l2,1l2,1l1,3l-2,1l-2-1l-3,1h-2l-2-1h-2l-1,1l-1-1l-1,1v1l1,1h-2v1v1
		l-1,1v1l-1,1v1l-1-2v-1l1-1l-1-1l1-1h-1l-1-1l-1-1h-1l2-1l-2-1l1-1l-1-1l-1-2l-1-2l-2-1v-1v-1h1l-1-2h-1l-2,2l-1,2l-3,2l-1,1l-1,2
		l-2,2l-1,2h-3l1-3l1-3l1-1l-2-2l3-1l1-1l3,1l1-2l1-2h2l1-1v-1l-1-1l-1-1l1-1h-1l-1-1l1-1h-2v-1l-1-1l1-1l-1-1l1-1l-2-1h-2l1-1V6
		l1-1h-2h-2l-1,1l-1,1l1,1v1v1l-1,1l-1,1v1v1h-1v2l1,1v1l2-1l1-1l1-2l1-3l1,3l2,2l-1,1l-1,3l-1,1h-2l-1,2l-2-1l-1-3v1l-1,1l-1,1l1,1
		l-1,1l1,1v1l-1,1v1l-1,2l3-1l-1,1v1l-1,1h-1l1,2v1l-1,1v1v2v1v3l1-1l2-2l1-2h2h2l1-1l2-2l1-2h2l1-3l2,1l1-2l2-1l1,1v1l-1,2l-1,1
		l-2,1l1,3l2,1l1-1h2l2,1l-2,3l-2,1l2,1l-2,2l-3-1v2l2,2v2l-3,1l-1-2l-1,1h-2l-2-4h3l1-1v-3l1-1l1-1l-2-3l-1,1l-2,1v3l-2-1l-1,2
		l-2,1l-2-1l-2,1v2l-3-1v2l1,1l-1,1v1l2,1l-1,1l-1,1l-1-1l-1,1l-1-1v3l-1,2l-1,1l-2,1l1,3l-3,1v3l-3,2h-2l-1,1l-1-3v-1l1-1l1-2l2,1
		l1-2l1-2l-3-1l1-2h2l2-2l1-1l1-1l1-1l-2-1l-1,1l-1-1h-1h-1l-1-2l-1,1l-1-1l-1,1h-2l1-1l-1-1l-1,1l-1-1l-1,1l-2-1l-1,1h-1l1,2h1l2,1
		l-3,1l1,1l1,1l-1,1l1,1l2-1l2-1v-2l3,1l1-1l-2,4v2l-2,1l-2-1l-2-1v1l1,1l1,1v1v1l2,1l-1,1l1,2v1v1v1v1h2l1,1l-1,1v1l1,2l1,2l1-1
		l-1-1l1-1l2-1v-2l2-2l1-1l2-2l1-1v-2l2-1v-3l1-2l2,4l1-1l1-1l-1-3l1-1l2,1v-3v-3v-2l2-1l2,1l-1,3l2,1l-2,2l2,1"/>
	<path fill="none" stroke="#000000" d="M201,55l-1,2v1l-1,1h-1l-1,2l-1-1l-1,1v1l-1,1h-1l-1,1h-1v1v1l-1,1l-1,1v1h-1l-1,1l1,1l-1,1
		h-1h-2l1,2h1h2l2,1l2-1l2-1l1,2l-2,2l-3,1l-1,2l-1,1h-1l-1-1h-1l-1-1l1-1v-1l1-1h-1h-2l-1,1l1,2h-1h-1l-1,1l-1-1v-1l-1,1v2v1l-1,1
		h-1l-1,1h-2v2h1h1v-1h2h1h1l1-1v-3h2h1h2l1,3l-2,1l-1,1v1l1,1l1,1l1-1v-1l2,1l-1,1v1h2l1,1l1-1v2v1v1l-2-2h-1l-1,1v-1l-2,1h-1l-1,1
		l-1-1v-1l-1-1l-1-1l1-1l1,1l1-1l-1-1l-1-1v-1l-2,1l-1,2h-3h-3v-2l-1-1l-2,1v1h-2v1l-1,1l-1-2l-1,1v1h-1l-1-2v2v2h1v2l1,1l1,1l1,1h1
		v2h1l1-1l1-2l-1,1l-1-1l-1-1l-1-1h-1l1-2l3,1l1-2l2,2l2-1l3,1l1-1l2,1v1h-1l-1,1l-1,1l-2-1l1,1l-1,1h-1v1l-1,1h1l-1,2l-1-1l-1-1h-1
		v1v1v1h2l-1,1v1v2h1v2h-1l1,2l-1,1v2v1l1-1h2l1-1h1l1,1v1h-1l-4,2h-1l1,2v1l2,1v1v1l-1,1l-1,1v2l1-1l1-1l1-1l1,1v1v1h-1l-1,1v1v1
		l-1,1v1l1,1v1h-1h-1l-1-1l1,2v1l-2-1l-1,1l1,1h1l1,1l-1,1v1l1-1l1,1l1,2h-1l1-1l1-1l-1-1v-1l2,1l2-1v2l-1,1l-1,1v1l-1,1l1,1l2-1
		l1-1h-1l1-1l2,1v1l-1,1l2,1v-1l1-1v-1l-1-2h-1l1-1l-1-1v-1v-1l-1-1l-3-1l1-2l-1-2l-2,1v-1l1-1v-1l1-1l1-1l1,1l-1,1h2l1-1l1,1v1h-2
		v1l1,1l-1,1v1h2v1v1l1,1l2,1l1-1h-1l-1-1v-1l2-2l-2-1v-2h1h1l2,1v-1l1-1l1,1l1-1h1h1l1-1h1l1-2h1l1-1v-1l1-1l1-1v-1l1-1l1-1v-1
		l-1-1l1-1v-2v-1l1-1l-1-1v-1v-1l1-1l-1-1l1-1l-2-1l1-1v-1l1-1l2-1v1l1-1h1l1-1h1l1-1v1l-1,2l-1,1l-1,2h1l-1,1l-2-1v3h2v1v1l-1,1
		l1,1h5l1-1l1,1l-1,1l-1,1h-4h-1l-2,1l2,1h1l1,2h-1l-1,1l-2,1l-1,2l-1,1l-3,1v3l-1,1l-1,1l-1-1v2v1h1l2,1l1-2l1-1l1-2h2l2,2l1,3h-2
		l-1,1l-2,1l-2,1l2,2l-1,2l-1,2l-2,1l-1,2h-3v-2h-1v1l-1,2h2v1v1h-1l1,2v1h2v1l1,1l1-1h1h1v-1v-1l-2-1l2-2l1-2h2"/>
	<path fill="none" stroke="#000000" d="M204,143l1,1l1-1l1,1l1-1l-2-1v-1h2h2l1-1l-2-1v-1l-1,1l-2-1v-2l2,1l1-1l3,1l-1-3l2,1l2-1v-2
		l-2-1h-2l1-3l-2-2l-3-1v-2l2-1v-3v1l2,1v1l1,1v1l2,1h1l-1,1h1l2,1l1,1l-1,2l3-1l-1-2h1l1,1h1h2v1h2h1l1-1l2,1v-1h1l2-1v1h2v-2h1h1
		v-1h1h1v-1l1-1h1v-1l1-1h1l-1-1l1-1l1-1v-1h1l-1-2l1-1v-1l-1-2v-2l1,2l1-1l2,1l2-2l4-1l-2-2l1-2v-3l1-1l2-2l1-1v-3v-2l2-1l2,1h2
		l-3,3l3,1l-1,1v3l-2-1v2l-2,1l2,2l-1,1l-3-1l1,3l1,3l-3,1l-2-1l-1,2l-2,1l-1,2l-2,1l1,3v2l-1,1l-2,2l1,2h-2l-1,3l-2,2l-1-2l-1,2h-3
		l-2,1h-3h-3l-1,1l-3-1l-2-1v2l-1,1l-2-1l-1,2v3l-3,1l1,3l2-1l1,3l-1,1l-1,3l-2-1l-1-3l-1,1l-1,1l-1,2v2l3,1l2-1l3,1l1-2l1-1h3l1,2
		l2,1l-1,2v3l-2-1v2l-1,2l-2-1l-1-2l1-2l1-2l-4,2l-2,1l-2-1l-2-1l-1,3v2h3l2,1l2-1l1,3v2l1,2v-1l1-1l1-1v2h1h1h1l1-1l2-1l-1-3h3l2-1
		v-2h3l2-2l1-1l1-1l-1-2l2-1l1-2l2-1l1-2l2-1l2,1l2-2l-1-3h2v-3h2v-3l1-1h3l1-2l2,2l-3,3l3,1v2h-3l-2,2l-1,1l-1,2l2,1l-2,1l-1,2
		l-1,1l-3-1h-3v2l-1,3l-2-1v3l2,1v3l3,1l1-2l2,1l2-1l1-1l-3-1l-3-1v-3l2,1l1-2l2,1l2,2l1-1l1-2l1-1v-2l2-2l2-1l-2-2v-2l3,1h3l1-1
		l2-1l2,1l-1-3v-1v-1l1-1l1,1v2l1,1l1,1l1,1l1-1v-1l-2-1l1-1l2-1l2,1l2-1h3v3l-2,2l-3-1v2l-2,1v-1h-2l-2,2l-3,1l-1,1l-3-1l-1,1l-2,2
		l-1,2l-1,2l-1,2l3-1l2-2l1-1l1-1l4,1l1-1l2-2l2-1l2-1v-1h1l2,1l3-1l2,1l-1,1l-1,2h-2l-2-1h-1v1l1,1l-1,1l-2-1l1,2l1,1l-1,1h-1l-1-1
		l-2,2l2,2l1-1h1l1,1l1,3l-1,2v2l-1,3v2l-2-1l-3-1l1-2l2-1v-3v-2l-1-1l-1,1v1l-1,1l-1-1l-2-1l2-2l-1-3l-2-1l-1,2l-1,3l-2-1l-1,1h-3
		h-3l-1,1l-2,3l-1,1l-1,1h-2h-3l-2,1v1h-1h-2v-2h1v-1l-1-1l-2-1v-2l-3,2h-2l-1,1l-1,1l-2,1l-2,2l-1,1h-2l-1,2v2l-3-2l-1,1v2l2,2l1,2
		h-3h-3v-2h-3l-1,2l2,2l-1,1l-1,1l-3,2v2l-2,2l-2-3l-1,2v2l-1,2l2,1h2l2-1l2-2h2v-3l2-1l1-2l2-2"/>
	<path fill="none" stroke="#000000" d="M220,177l1,3l3-1l-1-3h3l1-3l3,1v3l-1,1l-2,1v2l-1,1v3l-1,2v3l2,1l-1,3l-2-1l-2,2l-3,1l-2,1
		v2l-2-1l-1-3l2-1l1-1l2-1l2-1l1-2l-1-3l1-2l1-1h-3l-2,2v3l-1,1l-1,2l-2-3l-1,2l-2,2l-1,1l-1,1h-2v-3l-3-1v3l-3-1l-2-2l1-1l1-3l2,1
		v-3l-2-1l1-3l2-1l1-2v-2h3v3l2-1l1-1l-1-3l-3-1v-3l-2,1l-1,2l-2,1l-1,1l-1,2v2l-1,2l-2,1l2,1l-1,3h-2l-1-3l-1-3l1-2l1-1l1-2h-3
		l-3-1v-2l2-1h2l2,1h2l3-3l-1,1l-3-1v-3v-2h-1l-1,1l-1-1v-2l1-2h2v-2l2-1h4l-1,1l-1,2l-1,1l-1,2l-1,1l1,1v1l1-1l1-1h1l1,1v1l2,1l1-1
		l2,1l2,2l-1,2l3,1l1-2l2-1l1-1v-2l1-1l-1-1v1l-1-1l-1,1h-1l-2,1h-1l1-1l1-1l1-1l-2-1h-2l1,2h-1l-1,1l-1-1h-1l-1,1l-1-1v-2l1-1l1-3
		l1-2v-2l1-1l-2-2v-2l-1-3l-1,1h-1l-1,1v1v1l1,3l-1,1h-2l-3,1l-3-2l-2,1l1,3l-1,2l-2-3l-2-1h-2l1-2l2-1l2-1l1-2l-2-1l-2-1l1-2l1-2
		v-2v-3v-1l2-1v2l1,2h1l1-1l-1-1v-1h1h1l2-1l-2-1h-1l1-2h-1h-2h-3l-1,2l-1,2h-1v1v2v3h-2l1,3h-3v1v1h-1h-1v2h1l3-1l-1,2l-1,1h-1l1,2
		l1,2l-1,1l1,1l-1,1h1l1,1l1-1l2-1l1,3l-1,1l-1,2l-3-1l-2-1l1-1l-1-1l-1,1l-1,1l-1-1l-1,1v1v1l2-1v1v3l-2-1v-1l-1,1v1v2h1l1,2h-1
		l-1,1l1,1v1l1-1l1-1l1,1h1l1-1v-2l1-1l-1-2l1-1h1l1-1l1,1l2-1v1l1-1h1h1l1-1l1,1v1v2h-2l-4,1l-1,2l-2,2l-1,1v1h2l1-1v1l-1,2h1h2v1
		l-1,1h-1l1,3v-1l1-1l1,1v1l-1,1l1,1l1,1l1,1h-2l1,1v1l1,1l1-1l1,1l1,2h-1l-1,1h2v1v1h2h1l1,1l-1,1h-1v1l2,1l1-1v-1l2,1l-1,1v1l2,1
		l1-1v1l2,1v1v-2v-1l2-1h3l-1,3h-2v1l1,1v1l2-1v1h2v-1h1l1,1l1-1l1,1h2v-3v2l2,1h1h1l-1-3v-2l2-1l2,1l2-1l2,2h3l-1,2h1l-1,1h-1h-1v1
		l-1,2l-1-2v-1l-2-1l-1,1l-1,1l1,1l1-1l1,1v1l-1,1h1l1,1h1h2l2,1l-2,1l-1,1l-1,1v-2h-1l-2,1v-1v-1l-1-1l-2,2l1,1l-1,1l-1,1v-1h-2v1
		l-1,1l-1,1l-1-1l-1,1v1l-2-1v2h-1h-2v1"/>
	<path fill="none" stroke="#000000" d="M212,217l-1,1l-2,1v-1l-1,1l-1,1h-1v1l-1,1l-1-1l-1,1v1l-1,1h-1l1,2l-1,1v2h-1l-1,2h1v2v1h-1
		v2l1,1v1l-1,1l1,1l-1,1h-1v2h1h1l-1,2h-1l1,2h-1l1,2h-1v2v2v2l1,3l-2-1v1v2v1v2v2v1v2v2h-1v2h1v1l-1,1l1,1v1l-1,1v1l1,1l-1,1l1,1
		l-1,1l1,1l-1,1l1,2l-1,1h1v2h-1v1l1,2h-1v1v1l1,2h-1v1v1l1,1l-1,1l1,1l-1,1l1,1l-1,1l1,2h-1v2h1l-1,1v1v2h1l-1,1v2v2v2v1l-1,1l1,1
		l-1,1v1v2h1v1l-1,1v2h1l-1,2v2l1,1l-1,1l1,2l-1,1v1l-1,1v1l1,1l-1,1v2v1l-1,2h1l-1,2l-1,1v1l1,1l-1,1l1,1l-1,1v1l-1,1l1,1l-1,1
		l-1,1v2h1l-1,1l1,2l-1,1v-1l-1,1v1v1l1,1l-1,1l-1,1l1,1l-1,1l1,1l-1,1l-1,1l1,1l-1,1l1,1l-1,1v1v2h-1v2l1,2l-1,1l-1-1v2l1,1l-1,1v2
		l-1,1v1v2v1v1h-1l-1,1l1,1l1,1v1l-2-1v1v1v2v2l-1,1v1v2v1h-1l1,2h-1v2l-1,1l1,2h-1l-1,1l1,1l-1,1v2h1l-1,2l-1,1l1,1l-1,1v2h-1v2h1
		l-1,1v1v2l-1,1l-1,1l1,1l-1,1l-1,1v1h2l-1,2h-1v1v2v1v2l-1,1l-1,2v1h2l-1,2h-1v1l2,1v2l-1-1h-1l1,1l-1,1l1,1l-1,1v2l1-1l1-1l1-1
		l2-1v-1l-1-1l1-1l1,1l1,1l1-1v-1l2,1v2l1-2l1,1l1-1h1l1,1l1,1l1-1h1v1h2h1l2-1h1l-1,1l-1,1l-1,1l-1,1l-1,1l1,2l-1,1l-1,2l-1,2l-1-1
		v-1v-1v-1v-1l1,1l1-1v-1v-1l1-1l-3-1l-3,1h-2l-1,1h-2l-2-2h-1l-1,1h-1v1l-1,1l-1,1h1l1-1h2v1l-1,1h-1l-1,1l-1,2h1v2v1l1-1h1l2-1h-1
		h-1l-1-1l1-1h1h1v-1l1-1l1,2l1-1l1-1v1l-1,1l1,1l2-1v-1v-1h2v1v1v1l1,1v1l-1,1l1,1l-1-2l-1-1l-1,1v1l1,1v1l-1,1l-1-1v-1h-2v2v1
		l-1,1h-1v1v1v1l-1,1l-1-1v-1v-1v-2l-1-3l-1,1l-1,1v-1h-2v1l1,2h-1l1,1l-1,1l-1-1h-1v1l2,1l-1,1h-1h-1l-1,2h2h1h3l1-1l1-1l1,1v1h3
		l1-1v-1l1-1l1,3l1-1l3-2l-3-1h-2v-1v-1l1-1h1l1,1l1-1l2,1l1-2l1-1h3"/>
	<path fill="none" stroke="#000000" d="M192,480v-3v-1l2-1l2,1l2-2l1-1v-2l-4,2v-3l1-1l1-1l3-1h3l-1,3h2h2v-2l2-1l1-1l1,1l1,1l-1,1
		v1l-1,2l-2,1l-2,1l-3-1l-1,3l-1,2l2,1l2-2h3l3,1v-1v-1v-1v-1h1l1-1h-1l1-1l-1-1l1-1v-1l1-1l-1-1l1-1l-1-1l-2-1h2h1l1-1l-1-1h-1l1-1
		v-1l-2-1h2l1-1l1,1l1-1h1l1-1h-1l-1-2l-1,1l-1,1v-1v-2h-1l-1-2h-1v1l-1,2l-2-1l1-2v-1l-1-1h-1h-1v2v3l2,3l-1,2l1,2l-1,1v1v1h-2v-1
		v-2l-1,1l-1-1l-1,1h-1h-1h-1l-1-1l-1,1l-1-1h-1l1-1v-1l2,1h1h1h1l1-2l2-1v-2l-1-2v-3l1-1l-1-1h-2l-1-1l-1,1l1,1h-1l-1,1v1h2l-1,1v1
		h-1l-1,1l1,1l-1,2h-1l1-1l-1-1l-1-1l-1-1l1-1l-1-1l-1-2l1-1l1,2l1-1l1-1h-1l-1-2h-1l1-2l1-1v-2v-1l1-1l-1-1l1-1v-1v-1l1-1h1l-1-2
		l1-1l-1-1l1-1h1v-1l-1-2h1l1-1v-1v-2l1-1v-2l1-1v-2h1l-1-2h1v-2l1-2l1-1l-1-1l1-1l1-1v-2l1-1v-2h1l-1-2h1v-2l1-1v-1l1-1l-1-1l1-1h1
		l-1-2h1l1-1l-1-1v-1v-1h2l-1-1l-1-1l1-1l1,1l1-1l1-1l-1-1l-1,1h-2l1-1l-1-1l1-1v-1l1-1v-1v-1l1-1l1,4v1v1l1-1l1-2l-1-1l1-1l-1-1h1
		v-2l1-1l1-1l-1-1l-1,1l-1-1l-2,1l1,1l-1,1l-1,1v-1v-2l1-1v-1l1-2h-1l1-1v-1v-1l1-1l1,1v1v2v1l1,1h1v-2l1-1v-1l1-1v-2l1-1v-1l1-2
		l1-2l-1,1l-1,1l-5,4l-1-1l1-1l-1-1v-1l1-1h-1l1-1l-1-1l1-1l-1-1v-1v-1v-2l-1-2h1l-1-2v-1v-1v-2v-1v-2l-1-1l1-1v-1l-1-1v-1l1-1l-1-1
		v-1h1l-1-2l-1-1l1-1v-1l-1-1v-2v-1l1-1l-1-1v-2v-2l1,1l1,2l-1,1l1,1v2v1v1l1,1h1l-1,1l-1,1l2,1h1l1,2v1l-1,1l1,1l1,2v1l1,1l-1,1h1
		v2l1,1v1v1l2,1v1l-1,1h1l1,2v1v1v1l1,1l-1,1l-1,1l2-6l1-2v-1l1-1v-2l1-1v-1l1-1l1-1v-1v-2l-1-1l2-1l1-1l-1-1l1-1l1-1v-2v-1v-1v-1h1
		l1-1l1-1l-1-1l-1,1h-1v-2v-1l1-1l1,2l1-1v-2l1-1h-1l-2,1l-1-1l1-1l-1-1l1-1h-1v-2h1l3,2v1h2l-1-1l1-1l-1-1h1v-2h1l1-1l-1-1v-1l1-1
		h-1l1-2h1l1-1v-1"/>
	<path fill="none" stroke="#000000" d="M245,301l1-2l-1-1l-1,1l-2,1l-1,1l-1,2l-1,2l-1,3l-3,1v-1l1-1l-1-1v-1v-1l1-1h-1v-2v-1h3
		l-3-1l-1-1l1-1v-1l-1-1h1v-2h-1l1-1l-1-1l1-1l-1-1v-2l-1-1l1-1v-1v-1v-2v-1v-1l-1-1v-1v-1h1v-2h-1l1-1l-1-1l1-1l-1-1l1-1l-1-1l1-1
		l-1-1v-1h1v-2h-1l1-1v-1l-1-1v-1l1-1l-1-1v-1l1-1l-1-2h-1l1-1h1l-1-2h2l2,1v-2l2-1l-2-1v-2l1-2l2,2l4,1l3,1v-2l1-1l3,1l2,2v2h-3
		l-2,1l2,2l-1,1v3l-2-1l-2,1l-2-1l2-3v-3l-3-1v3l-1,1l-1,1l-1,1v3h-2l-1,2l2,3l2-1h2v-2l2-1l2,1v3l2,1v-3l2-1h3v-2l1-2v-2l4-2l-2-1
		l1-2l1-2h-3v-3l-2-1l1-2l2-1l2,1v3h3l1,1l1-1l1,1l-1,1v1h-1l-1,1l1,1h1l-1,1l-1,1h1v2h-1l-1,1l1,1l-1,1v1v2l-1-1l-1-2l-1,1l-1,2
		l2,1h1v2h-1h-1v1l1,1l-1,1v1v1l-1,1l1,1v1h-1l-1,1v1v2l-1,1l-1,1l-1-1v-2l-2-1v-3l3,1l1-1l1-2v-2l-1-2l-2,1l-1,2l-2,1l-2,1l-1,1
		l1,3l-2,2l1,2l3-1v3h2h2l1-1l-1,2l-1,1v1l-1,1l1,1h-1l-2-1l-2-2l-1,2v3v2l-1,3l-1,1h-3v-3l1-2l1-2l-1-3l1-1l1-2l-2-2v-3l-2-1l-1-2
		l2-1l3,1v-3l-1-2l-3,1h-2l-1,1v5l2,2l-1,1l-1,2v3l3-1v3l-1,2l-2,1l1,3v2v2l1,3v3h2l1-3l1-1l1,3h2h1l-1-2h1l-1-1l1-1h1l1-1l-1-1v-1
		h1h1l-1-2h1l-1-2h1l1-1l25,3v-1l-1,1l-1,2l1,1l-1,1l-1,1v1v1l-1,2l-1,1h1v2h-1v2l-1,1v1l-1,1v1v1l-1,1l1,1l1,1v1l-2-1h-1v1v2v1l1-1
		l1-1l1,1v1v1l-1,1l1,1v1v1v1l1,1l-1,1l-1,1l2,1h1v2l-1,1v-1h-3l-2,2l-1-2l1-4l1-3v-4h-1l-1,1v1l-1,1l1,1v1l-1,1l-1,1l1,1l-1,1l-1,1
		v1v1l2,1l-1,1h-2v1v1l-1,1l1,1l-1,1v1l-1,1l-1,1v2v1l1-1l2-1l3,1l1-2l-2-1l1-3l3,2l2,1l-1-3l1-1v-2l1-1l1-1l1,1v1l-1,1h1l1,2l-1,1
		h1l1,2h-2l1,1v1v1l2,1l-1,1h-1l1,2h1l-1,1l1,1v1v1l1,2v1v1l1,1l-1,1l-2-2l-2,1l-1,2v3l3,1l2-1l-1-2l1-1l1,1l1,2l-1,1l1,1l1,1v1h-2
		l-1,1h-2l-2-2l-2,1l-2-1l-1,1l-2-2l1-2h2"/>
	<path fill="none" stroke="#000000" d="M268,356v-3l1-3v-2h-3l-1,1l-2,1l2,2l-1,1l-1,1l-2,1l-1,1l-3-1v-2l1-2h2l-1-3l1-1l3-1l2-1h3
		l4,2v-2l-1-3v-2l-1-2l-2,1v3l-2-1l-1,1l-3-1l-1,2l-2-1v-2l-2,1v1l-1,1l1,1l-2,1l2,1h-1l-1,1v1l-1,1v1l-1,1l1,1l-1,1v1l-1,1l-1,2v1
		l1-1h3l1,1l-2,2h-3l-1,1v1h-2l2,1v1l-1,1l-1-1v2v1l1,2h-2l-1,1v1h2l-1,1v1l-1,1v1l-1,1l-1,1h1v2h-1l1,1l-1,1h-1v1l-1,2h1v1l-1,1v1
		l-1,1v1v1l-1,1l-1,1l1,1l1-1l-1,2l-1,1l1,1l-1,1h-1v1l-1,1l1,1l1-1v2v1l-1,1l-1-1v-1l-1,1v2l-1,1v1l1,2h-1l-1,1v2h-1l1,1l-1,1l-1,1
		l1,1l-1,2l-1,1l1,1l-1,1h-1v1v1l-1,2v2v1l-1,1v2v1l-1,1v2l-1,1v2v1l-1,2l-1,1l1,1l-1,1l-1,1l1,1v1h-1v2l-1,2l-1,2h1v2h-1v2l-1,1v2
		h-1l1,1l-1,1l-1,1v-1l-1,1l-1,1h-1v2h1l-1,1l-1,2l1-1l1,1l-1,1v1h-1l-1,1l1,1h2l-2,1v1l-1,1l-1,1v1l2-1v1v2h-1h-1h-1l-1,1h-2h-2
		l-1,1l-1,2l-2-1l-3,1l-2-1l1-2h-2l-1,3h-2l-2,1l-1,1l-1,3v1h3l2-3l2,2l3,1v-3h3l1-1l1,3l4,1v-1v-1l1-1h-1l-1-2l2,1l1-1l-1-1l1-1h1
		l1-1h1l-1,1l1,1v1l-1,1l-1-1l1,2v1l-1,1v1l2-1l13,1v-1l1-1l-1-1v-1l1-1h1v-1l1-1l-1-1l1-1l1,1l1-1h1h1l1,1l1-1l-1-1l1-1l1,1l1-1v-1
		h1l1-1l1,1l1-1l-1-1l1-1l1,1l1,1l-1,1v1l-1,1l-1-1l-1,1h-1l-1,1l-1,1v1l-1,1l-1-1h-1h-1l-1,1h-1v1v1v1h-1h-1l1,1l-1,1l2,1h1v-1l1-1
		v-1v-1v-1h1l1,1l1-1v1l-1,1v1l-1,1v1h2h1v-1v-1l1-1v1l1,1v1h2h2v-1l1-1l1,1l1,1l1-1h1v1l1-1l1,1l1-1l1,1l1-1l-1-1l-1-1l-1,1l-1-1
		v-1l1-1l1,1l1-1l1,1v1l1,1l1,1v1h2v-1l-1-1v-1l-1-1h-1l1-1v-1l-1-1l-1,1l-1-1l1-1v-1l1-1l1,1v1l1,1l1-1v-1l-1-1l1-1l1,1h1v2l-1,1
		l-1,1v1h1l-1,1l1,1l2,2l2-1v-2l1-1v-2h3l-1-2l2-1l2,1v-3l2-1h2l-4-2l1-1l2-1l3,1h2l2-1l2-1l1-3l-2-1h-2v2l-4,1l1-1v-3v-2h-3v3h-3
		l1,3l-3,1l-2,1l1,3"/>
	<path fill="none" stroke="#000000" d="M265,475l-3-1l-2-1l-1,1v1l-1,1l1,1l1,2l-2-1l-1-1v-1l-1-1l1-1l1-1v-1v-1h1h1l1-1v-1l-1-1
		l-1,1l-1-1l-1,1v-1l-1-1h-1l-1,1l1,1h1l-1,1l1,1v1v1l-1,1h-1l-1,1l1,1h1l-1,1l-1,1v-1l-1-1l-1,1v1v1l-1,1v1v1l-1,1l-1-1l-1,1v-1
		l1-1v-1l1-1v-1v-1v-1l1-1h1l1-1v-1h2v-1v-1l-1-1l-1,1v-1l1-1l-1-1l1-1v-1v-1v-1l-1-1l1-1v-1l1-1l1-1l1,1l-1,1v1l-1,1l1,1h1l-1,1
		l1,1l1-1l1,1l1,1l1-1l-1-1l1-1h-1l-1-1h-1v-1l1-1l1,1h1v-1l-1-1v-1l1-1v-1v-1h1h1l1,1l1,1l-1,1l-1-1l-1,1v1l1,1l1-1v1l-1,1v1l-1,1
		l1,1l-1,1v1h3l2-1v-2h2l1-2l1-2l3,1l1-1l1-2l2-1l1-2l2,1l-1,3l-2,1v3l2,1h2l1-1v-4l2,1l1-1l1,1v1l-1,1h1l1,1l-1,1h-1l2,1v1h-1l-2,2
		v2l-1,2l1,3h-2l-2,1l-2-1l-2,1l-1,1l-2,2l-2,1l-1,3l-1,2l-2-2l-1,2l-1,2v2l2-1l3,1l2-2l1-2v-2h2l2-1v-2h3l2-1h3l2-1l1-1l1-1l-1-1
		l-1-1l1-1l1,1v-1l-1-1l-1-1v-1v-1v-1h1l1-1v-1v-1l1,1l1-1l1,1l-1,1v1l-1,1h-1v1v1l1,1l1-1h1v-1v-1h1h1h1v-1l-1-1h-1l1-1l-1-1v-1
		l1-1l1,1v1l1,1v1l1,1v1v1v1h-1h-1h-1l-1,1l-1,1h-1v1l-1,1l1,1l-1,1v1v1l-1,1v1l-2,1l-3,1h-3l-1,1l-2,1l-1,2l-1,1l-1,1h5l1-1l2-1h2
		l1-2l2,2l1-2l1-1l-1-1l1-2l1-1l1-1l-1-1l1-1v-1l1-1h1v-1v-1h1h1h1l-1,2l-1,1l-1,1v1l-1,1l1,1l1-1l1,1v1l-1,1l-1-1h-1l-1,1l-1,1h1
		l1-1l1,1l-1,1l-1,1h-1l1,1l-1,1v1h1l1,1v-1l1-1v-1v-1l1-1l1-1l1,1l-1,1v1v1l-1,2l1-1l1,1l1-1l1,1h1h1v-1l-1-1l1-1l1,1h1v2h1l1-1h1
		l1,1v-2h1h1l1,1l-1,1h2v-2l-1-1v-1v-1l-1-1l-1-1l-1,1l1,1v1h-1h-1h-1v1l-1,1v-1l-1-1l1-1l-1-1h-1l-1,1v1l-1,1l-2,1v-1v-1l1-1l1-1
		l-1-1l-1,1l-1-1l1-1v-1l-1-1l-1-1v-1l1-1l1,1v1l1,1l1,1v1l1,1l1-1v-1l1-1l1,1v1v1l1,1l1-1v-1v-1h1l1,1l1-1l-1-1v-1v-1l-1-1h-1v1v1
		l-1,1l-1-1v-1v-1v-1l1-1"/>
	<path fill="none" stroke="#000000" d="M305,474h1h1v-1v-1v-1l-1-1l-1,1v1h-1l-1-1v-1v-1h2v-1v-2l-1,1l-1,1l-1-1l1-1v-1v-1l1-1v-1
		l-1-2h-1v1v1v1l-1,1h-1l-1,1h1l1,1l-1,1l1,1v1v1v1l-1,1l1,1l1-1l1,1v1l-1,1l-1-1l-1,1l1,1l1,1v1l-1,1l-1-1v-1l-1-1l-1-1v-1l1-1
		l-1-1l1-1v-1v-1v-1l-1-1v-1l-1-1v-1l1-1h1l1-1v-1v-1l-1-1l1-1l1,1l1-1v-1v-1v-2h-1v1l-1,1v1l-1-1l-1,1v1l-1,1l1,1v1h-1v1l-1,1l-1-1
		v-1v-1l1-1l-1-1l-1,1l-1,1l-1-1l1-1v-1l1-1l1,1h1l1-1l-1-1h-1v-1v-1l1-1l1,1v1l1,1l1-1v-1l-1-1l-1-1l1-1l1,1l1,1h1v-1l-1-1v-1v-1
		v-2l-1,1l-1,1l-1,1v-1l-1-1l1-1h1v-1l1-1h-1l-1-1l1-1h1l-1-1v-1l-1-1l-1,1v1v1l-1,1l1,1l-1,1v1l-1,1l1,1v1l1,1l-1,1l-1-1v1l-1,1v1
		l-1,1h1l-1,1v1l-1,1v1h-1v1l-1,1l1,1l1-1l1,1h1l-1,1v1h-1h-1l-1,1l-1-1l1-1l-1-1v-1l-1-1l1-1v-1l1-1l1-1v-1v-1v-1h1l1-1v-1v-1l1-1
		l-1-1l1-1v-1l1-1l-1-1l1-1v-1v-1l-1-1l-1-1l1-1l1-1h1v1l-1,1l1,1l1-1l1-1v-1l-1-1h1l-1-2v-1l-1-1l1-1h-1h-2v-1l1-1h1l-1-1v-1l1-1
		h-1l1-1l-1-1h-1h-1v1v1v1v1v1l-1,1v1l-1,1h1l-1,1v1l-1,1l-1,1l-1,1l-1-1l1-1v-1l1-1h-1l1-1l1-1v-1l1-1v-1l-1-1l-1,1l-1,1h-1v1v1v1
		l-1,1v1l-1,1h1l-1,1l1,1v1l-1,1l-1-1v-1l-1-1v-1v-1l1-1l1-1v-1v-1v-1l1-1l1-1h1v-1l1-1l1,1h1v-1v-1l1-1v-1h1h1v-1l-1-1l1-1v-1l-1-1
		l1-1l-1-1l-1,1l-1,1l1,1h-1v1l1,1l-1,1l-1,1v1l-1,1l-1-1l-1,1v1h-1l-1-1v-1l1-1v-1l-1,1l-1-1l1-1l-1-1v-1l1-1l-1-1l-1,1h-1v1v1l1,1
		h-1l-1,1v-1l-1-1h-1l1-1v-1v-1v-1h1h1h1v-1v-1l1-1h1v2v1l1,1l1-1l1-1l1,1l-1,1l-1,1l-1,1v1l1,1v1l1,1l1-1l1-1h-1l-1-1l1-1h-1l1-1
		l1-1l1-1l-1-1h2l-1-1l1-1l-1-1v-1l1-1h-1h-1l-2,1l2-3v-1h1l-1-2l-1-1l-1,1l-1,2l-2,1h-1v1l1,1v1v1l-2-1h-2l-1,2l-2,2v1v1v1v1v1h-1
		h-1"/>
	<path fill="none" stroke="#000000" d="M275,418v1l1,1h1h1l1,1v1v1l1,1v1h-1l-1,1v-1v-1l-1-1v-1l-1-1v1l-1,1l1,1v1h-1l-1,1h1v1l-1,1
		l-1-1l-1,1l-1-1v-1l1-1h-1h-1h-1v1v1l-1,1l-1,1v-1l-1-1l1-1l-2-1h1h1l1-2l-3-1v-2v-2v-2l1-1l1-1l1,1l1-1l1,1l-1,3l2,1l-1,2l2,2l1,1
		l1-1l-1-1l1-1h-1l1-1l-1-1v-1v-1v-1h1h1v-1v-1l-1-2l-1,1v1h-1l-1,1v-1l-1-3l-1-2l-3-1v2l1,2l-1,1l-1,1h-1l-1,1l-1,3l-1,2l-1,2l-2,2
		v1v1l-1,1v1v1v1l1,1h1v-2l1,1h1h1l1-1h-1l1-1l-1-1h-1l-1,1l-1-1l1-1v-1h1l1-1l1,1h1l-1,1l1,1l1,1v1v1l1,1l1,1v-1l1-1l1-1l1-1l1,1
		l-1,1v1l1,1l-1,1l-1-1h-1l-1,1v1l1,1l1-1l1,1h1l1-1l1-1v1v1l-1,1v1v1l1,1l1-1v-1v-1l1-1l1-1v1l1,1l-1,1h1l-1,1l1,1h1l1-1v-1v-1
		l-1-1v-1v-1l1-1v-1l1-1v-1l-1-1l-1,1v1l-1,1v1l-1,1l-1-1l-1,1l-1-1l-1-1l1-1l1-1v1l1,1l1-1v-1v-1l1-1h1h2h1l1-1v-1v-1l-1-1v-1l1-1
		v1l1,1l1,1v1v1l-1,1l-1,1v1v1v1l-1,1l-1,1v1v1l1,1v1v1v1l1,1h1v-1h2l1,1l-1,1l-1,1h1l1-1l1,1l1-1l1,1l1-1v-1l-1-1l-1,1l-1-1l-1-1
		l1-1l1,1l1-1v-1l1-1l1-1l1-1v-1l1-1l1,1v1v1l-1,1h-1l-1,1v1l-1,1l1,1l1,1v1v1l-1,1l1,1l-1,1v1l-1,1l1,1l-1,1v1l-1,1l-1,1v1v1v1h-1
		l-1,1v1l-1,1l-1-1h1v-2h-1l1-1l1-1h-1l1-1l1-1l1-1v-1l1-1l-1-2h1v-1l1-1l-1-1l-1,1h-1l-1-1v1v1v1l1,1v1l-1,1v1l-1,1h-1l-1,2v-1
		l-1-1l1-1l1-1l1-1v-1l-1-1l-1,1v-1l1-1v-1l-1-1l-1-1v-1l-2,1v-1v-1h-1l-1,1v1l-1,1v1h1h1l1-1l1,1h1l-1,1l-1,1h1l-1,1l-1,1l-1-1v-1
		l-1-1l-1,1l-1-1v-1v-1l1-1v-1v-1l-1-1l-1,1v1v1l-1,1v1v1h-1l-1,1h1h1l1,1h1h1l1,1l1,1l1,1l1-1l1-1h1l1,1l-1,1l-1,1l-1,1l-1-1l-1,1
		l-1-1v-1l-1-1h-1h-1v1l1,1l1,1h-1l-1,3l-2,2l-2,1h-3l2-3l-2-1l-2,1l-1,1l-1-1l-1-1l-1-1v-1l-1-1l-1,1l-1-1v-1l1-1h-1l1-1v-1l-1-1
		l1-1v-1v-1"/>
	<path fill="none" stroke="#000000" d="M259,443h1l1,1v1l-1,1l1,1v1v1v1l1,1l1,1v1l1,1l1-1v-1h1l1-1l1,1h1l1-1h1v1h2v-1l-1-1v-1v-1
		l-1-1l-1,1h-1v1v1h-2v-1v-1l1-1v-1h1v-1l1-1l-1-1h-1l-1,1h-1v1v1l-1,1l1,1l-1,1v1l-1,1l-1-1v-1v-1l1-1h-1l-1-1l1-1h1v-1l-1-1h-1
		l-1-1l1-1h-1l1-1l1-1l1-1h1l1-1v1v1l-1,1h-1v1v1l1,1l1-1l1-1v1l1-1v-1v-1v-1l1,1l1,1v1v1l1,1l1-1v-1v-1l-1-1l-1-1v-1l-1-1l-1,1
		l-1-1l-1-1h-1l-1-1v-1h1v-1l-1-1h-1l-1,1h-1h-1l-1,1v1l-1,1l-1-1v-1v-1l-1-1l-1-1h-1l1-1v-1v-1l1-1v-1v-1h-1l-1-1v-1h1h1l-1-1l1-1
		v-1l1-1l1-1v-2v-1l1-1v1l1,1l1-1h1v-1l1-2h-2l-3-3l-2-1v2v2v2h-1v1l1,1l-1,1v1v1l-1,1v1h-1l-1-1l1-1v-1v-1l1-1l-1-1l-1-1v-1l-1-1
		l-1,1v1l-1,1l-1-1v1v1l-1,1h-1l-1,1v-1v-1l1-1v-1h-1l-1,1v-1h-1v1l-1,1h-1v1v1l2-1v1v1l1,1l1-1h1l1,1l1,1l1-1v-1h-1l1-1v-1l1-1l1-1
		l1,1l-1,1v1v1v1l-1,1l-1,1v1h1l1-1h1v1v1h-1l-1,1v1h1h1l1-1l1,1v1l-1,1h-1l1,1l-1,1v1v1l1,1l1-1l1,1v1l-1,1v1l1-1l1,1l1,1v1h-1v1
		l1,1h1h1v-1v-1v-1l1,1l1-1v-1l-1-1l1-1l1,1l1,1l1,1h-1l-1,1v1l-1,1l-1,1l-1,1h-1h-1v1v1v1v1l-1,1l1,1l-1,1v1v1h-1l-1,1l-1,1l-1-1
		l1-1v-1l-1-1l-1-1l-1,1l1,1h-1v1l-1,1l-1,1v1l-1,1h1l1,1l1-1v-1v-1h1l1,1v1l1,1l1-1v-1l1-1l1-1l1,1v1l-1,1l1,1l1-1l1-1l1,1l-1,1
		l-1,1v1v1l-1,1l-1-1v-1v-1l-1-1l-1,1v1v1h-1v1l-1,1l-1,1h-1v-1l1-1v-1v-1l1-1l-1-1l-1,1l-1,1v1l-1,1v1v1l1,1h1l-1,1l1,1h1v1v1l-1,1
		l1,1l-1,1l-1-1l-1,1l-1-1h-1l-1,1l1,1h1l1,1l1-1l1,1h1l-1,1v1h-1v1l-1,1l-1,1v1v1v1l-1,1h-1h-1l1,1v1v1l1,1v1v1l-1,1l-1-1v-1v-1h-1
		l-1,1v1l-1,1l-1,1l-1-1l1-1v-1l-1-1l-1,1h-1l1-1l-1-1l1-1h1v-1l1-1l1,1v1l-1,1"/>
	<path fill="none" stroke="#000000" d="M240,483l1,1l1-1l1-1v-1l-1-1l1-1l1-1h1v-1v-1v-1h-1l-1-1v-1l1-1l1,1l1,1h1v-1v-1h-1l-1-1
		l-1-1l-1,1l-1-1v-1v-1l-1-1l1-1v-1l1-1v-1l-1-1l-1-1h-1l1-1l-1-1l-1-1l1-1l1,1l1,1h1l1,1l-1,1h1l1,1l-1,1l1,1l-1,1v1l-1,1l1,1l1-1
		l1-1h1l1,1l1-1v-1l-1-1l-1,1l-1-1l1-1v-1l-1-1v-1l-1-1l-1-1v-1l-1-1h-1l-1,1l-1-1l1-1v-1h-2v-1l1-1v-1h-1l-1,1l-1,1v1l1,1v1v1v1
		l-1,1l1,1v1v1l-1,1l1,1l1-1l1-1l1,1v1l-1,1h-1v1v1l1,1v1v1l1,1l1,1l-1,1l-1-1h-1h-1v-1v-1v-1v-1l-1-1v-1v-1l-1-1l-1,1v1v1l1,1v1h-1
		h-1l1,1l1,1v1v1l1,1l1-1l1,1l-1,1l-1,1l-1-1l-1,1v1h-2l-1,1v-1l1-1l1-1v-1v-1v-1v-1l-1-1h-1l-1,1l1,1v1v1v1h-1l-1,1v1v1h-1l-1,1v-1
		v-2l1-1v-1v-1l1-1h-1l1-2v-1v-1h1h1l1-1v-1v-1l-1-1l-1,2h-1l1-1l-1-1l1-1v-1v-1l1-1l1,1l1-1v1l-1,1v1l1,1l1-1l1-1v-1v-1l-1-1l1-1
		v-1v-1v-1l-1-1l-1,1v1v1v1l-1,1l-1-1v-1v-1l1-2v-1v-1h1l1,1l1-1l1-1l1-1l1-1h-1l1-1v-1l-1-1l-1-1l-1,1l1,1l-1,1v1v1l-1,1l-1-1h-1
		l1-1v-1l1-1l-1-1l1-1v-1h2l-1-1l-1-1v-1v-1h1l1,2l1,1l1-1l-1-1v-1h1l1-1l1,1v1v1l-1,1l-1,1v1l1,1l1-1v-1h1v-1l1-1v-1l1-1h-1l-1-1
		l-1-1v-1l1-1h1l1,2h-1l1-1l1-1l-1-1v-1v-1v-1l1-1v-1v-1l1-1h1l1,1l-1,1h1l-1,1l-1,1v1v1v1l1,1v1v1h-1v1v1l-1,1h1l-1,1l-1,1v1v1v1
		l1,1l1,1h-1v1l1,1h-1l-1,1l-1-1v-1v-1v-1l-1-1l-1,1v1v1v1l1,1l1,1l-1,1v1l1-1v1l1,1l1,1l1,2h1v-1l1-1h-1l-1-1l-1-1v-1v-1h1l1-1l1-1
		v-1v-1l1-1l1-1v-1v-1l-1-1l-1,1v1v1l-1,1l-1-1v-1v-1l1-1l1-1v-1l1-1l-1-1l1-1v-1v-1l-1-1v-1v-1v-1h1l1,1v1v1l1,1l1,1v1h-1l-1,1l1,1
		l-1,1v1l1,1l1-1h1v1l-1,1v1v1l1,1l1,1l1-1l-1-1v-1h1v-1v-1v-1v-1l1-1l-1-1l-1,1l-1,1l-1-1l1-1l1-1v-1l-1-1"/>
	<path fill="none" stroke="#000000" d="M253,436l-1-1v-1v-1l-1-1l-1-1v-1v-1v-1l1-1l-1-1l-1,1h-1v-1v-1v-1v-1l-1-1v-1l-1-1h-1v1
		l-1,1h1l1,1v1v1v1h-1v1l-1,1h-1v1v1v1l-1,1h-1l1,1v1l-1,1v-1l-1-1l-1,1l-1,1l1,1h1l-1,1v1h-1l-1,1l-1-1h-1l1-1l1-1h-1v-2v-1h1h1v-1
		v-1h-1l1-1l2,1v-1h1v-1v-1l1-1l1-1v-1l1-1v-1l-1,1l-1-1v-1v-1v-1h1l-1-1l-1-1l-1,1v1v1v1v1l-1,1l1,1l1-1v1l-1,1h-1l1,1l-1,1l-1,1
		l-1-1l1-1l-1-1v-1l1-1l-1-1l1-1v-1v-1l1-1l-1-1v-1h1v-1v-1l1-1l1-1h-2v-1l1-1l-1-1v-1v-1v-1h1l-1-2v-1l2-1l1-2l1-3l2,1l2,1l-1,2
		l-2,2v3l-1,2l3,2h1v-1l-1-1l1-1v-2l1-1l1-1l2,1l-1,1l1,1l-1,1v1v1l2-1l1-2v-3l-2-2l1-2l-3-1l2-2l1-3l-3-1l-1,3l-2-1h-2l-2-1l1-2h3
		v-2l1-1v-2l-1-3l3,1l1-2l2,2l1-2h2h2v-4h2l2,1l-1,2l2,1l2,1l-1,2l-2,1l-2-1l-1,3l2,1l-2,2l-1,1l-1-3l-1-3l-3,1l-2,1l2,2l2,1l1,3
		l-1,1v2l2,2l-1,2l2,2h3v2l2,1l2-1l-1-2l3-1l1,2l1-1l2-2v-2l2-1l1-2l1-1l-2-2l2-1l3,1l1,4l1-2l1-2l2-1v3h2v2h-2l-1,2l-2,1l-1,1l-2-1
		l-2,1l-1,2l-1,1l-1,2l2,2l1-1h2l1-3l3,1v-2h2l1-1l2-2l2-1h1l-1-1l1-1l-1-2h-1l-1-1l1-1l-1-1l1-1l-1-1l1-1h-1l-2,1l1-3v-1l1-1l-2-1
		h-1l-1,2v2l-1,1l-2,1l-2-1l1-2v-3l1-1l-2-4l-1,1l-1,2l-1,2l-1,2l2,1l-1,2l-2,1l-2-1l-1,3l-1,1l2,2l-2,1l-1,2l-2,1h-3l-2,1v-2v-2h3
		l2-1l-3-2l2-1v-2l1-2l2,1v-3h3l-1-2l2-1l-4-2l1-1h3l1-1l-1-2l1-2l2-1l1,3l2-1h2l1-1l2,4v2l2,1h1v-1l-1-1v-2l-1-1l-1-1l1-1l-1-1l1-1
		v-1h-2v-1l1-1v-1l-1-2v-2l-1,1l-1,1l-1,1v2v2h-2l-1-3l-2,1h-2l-1,2l-1,2l-1,3h-2h-3l1-3l1-2l2,1v-3l2-2l-3-1l-1,2l-2,1l-3,1l-1,1
		l1,3l-3-1l-2,1v2v2h-3h-3l1-3l2-2l1-2l1-1l-2-3h3l2,2l1-2l1-1l1-1l-3-1h-2l-1-3h2l2-1l2,1v-2v-2h2l2,1v3l-1,3l1-1l2-1l2-1l3,1l-1,2
		l2,1l2-1v-2l3,2l2-1l1-1l-1-1v-1l1-1l5,1l1-2v-1v-2l1-1v-1l-1-1v-1v-1l1-1v-2l1-2"/>
	<path fill="none" stroke="#000000" d="M287,347l-1-1l1-1v-1v-2v-1v-1v-2v-1v-2v-2v-1l1-1l-1-1v-1l1-1v-2l1-1l-1-1l1-1v-2l1-2l-1-1
		v-1l2-1h-1l-1-1l1-1v-1h1v-1l-1-1l1-1h1l-1-2l1-2v-1l1-2h-1l1-2v-1l1-1l-1-1l-2-1v-1l-1-1l-1,1l-2-1l1-1l-2-1l-1-1l-1-1h-1l-1-1
		l-1-2h-1l-1-1l-1-2h-1l-1-1l1-1l-1-1l1-1l1-1v-1l1-1v-1l1-1l-1-1l1-1v-1l1-1l-1-1l1-1l1,1l-1-2h2v-1l-1-1l1-1h1v-1l-1-1l1-1h1l1,2
		v-1l1-2l-1-1h-1h-1l1-2l2,1v-1l-1-1v-1l1-2v-2l1-1v-1l1-1l1-1l-1-1l1-1v-1l1-1v-1l1-2v-1v-2l1-1v-1v-1l1-1v-2l1,1l3,3v1v1v2l1,2h1
		l-1,1v1v1l1,1v1v1v1l1,1v1v1v2v1v2h1l-1,1l1,1v1v2v2v1l1,1v1l1,1l-1,1l1,1l-1,1l1,1l-1,1l1,1l-1,1l1,1v2l1,1v1l-1,2l1,1l1-1l1,3h-1
		l-1,2l1-1l1,1l-1,1l1,1l-1,1l1,1v1l1,1l-1,2l1,2v2h1l-1,1v1l1,1l-1,1l1,2l1,1v2h1l-1,1v2h1l-1,1v1l1,1v2l1,1l-1,1l2,2v1v1l-1,1v1
		l1,1v2l1,1v1v2v1l1,1l-1,1l1,1h1l-1,1v1l1,1l-1,1l1,2l1,1l-1,1l1,2h1l-1,1l1,1l-1,1l2,2l-1,1l1,2v1l1,1l-1,1h1l-1,2h1v2l1,2h-1l1,2
		v1l1,1l-1,1v1l2,1l-1,1l1,1v1v1v2h1l-1,1v2l2-1l-1,1l1,1l-1,1l1,1l-1,1l2,1v1v1v2v1l1,1l-1,1v1l1,1v1v2v3l1-1h1v2l-1,1h1v2v1l-1,1
		l2,1v1v2v1l1,1l-1,1l1,1l1,2l-1-1l-1,1l1,1v1l1,2l-1,1l1,1v2h1v2l1,2l-1,1v1l1,1v1h-1l1,2h-1l1,2v1v1l1,2v1v1v1l1,1l-1,1v1v2h1l1,3
		l-1-1l-1,1l1,1l1,1l-1,1v1l1,1v2v2l1,1v1h-1v1l1,2h-1l1,2v2h1l-1,1l1,2v1h1l-1,1v1l1,1l-1,1l1,1l-1,1h2l-1,1l1,1v1h-1v1l1,2v1v2
		l1,1v1h152h1l1-1l-2-1l1-1h-1l1-1l-1-1l1-1l-1-1l1-1h-1l1-2l1-1l-2-2h1l1-1l-1-1l-1-2l1,1l1-1l-1-1l-1-1h2l-1-1l1-1l-1-1v-1v-1l1-1
		h1v2h1l2,2l-1,2v4h2v-2l2-2v-2h2l2-1l-1-3l-2-1l-1,2h-2v-4h-2l-1,1h-2v-1v-1l1-1v-1"/>
	<path fill="none" stroke="#000000" d="M497,458l-1-1v-1h1v-1l1-1h-2l1-1l-1-1h1l1-1v-1v-1l-2,1v-1l1-1l-1-2h1h1l1,1l1,2l1-1v-1
		l-1-2h2l1,2l2,1h2l2-1v-2l-2,1h-2v-2l1-3l1-2l2-1v3l2,2l1-2h2l1-2l2,1v1v1h2l-1,1l-1,1l1,1h-1v1l-1,1l-1,1l-1,1l-1-2h1v-2l-2,1
		l-1,2v1l1,3l-3-1h-2l-1,1l-2-2l-1,3l-1,1l-1,2v2l2,1l2,1v-3l2,1v-3h2l3,1l1-1l2,1l1-1l-1-1v-1v-1l1-1v-1v-1l1-1l1-1v1v2v1l-1,1v1
		l1,1l1,1l-1,1v2l-1-1l-1,1l-1-1l-1,1l1,1l1,1v1l-1,1v1l-2-1l1-1v-1l-2-1l-2-1l-1,3l-1,2l3,1l-1,2l2,2l-2,1v3h-2l-2-1l1,3l-2,1l-1,1
		v2l-3-1l-2,1l-1,3v2v3l2,3l1-3v-2v-3h2h3l-1,3l-1,1l-1,2l3,2h2l1-1v-2v-2l-1-3l1-1l-1-2l2-1l1-2l2,1h1l-1,1v1h2v1l-1,1h-1l-1,1h1
		l-1,1l1,1l-1,1v1v1l1,1l-1,1l1,1h2h1h1h1h1l1-1l-1-1h-1h-1l2-1l-1-1v-1h1l2,1v2l3,2l2-1v-3h-2l1-3l-2-1l-2,1h-2h-1l-1,1l-1,1v1
		l-1,1l-1,1v-2v-1l1-2h1l1-1l1-1h1l-1-1h-1l-1-1v-1v-1l1-1l-2-1h-2v-1l1-1h-1l1-1l1-1l-1-1v-1l1-1l-1-1v-1v-1l1,1h1h1l1-1v-2l1-1
		l-1-1l2-1l2-1l1-1v-2v-3l-3,1l1-2l1-2l2-2l-3-2l1-1h2l2-2l2-1l2-1h2v-3h4l-1,2l2,2l1-2l1-2l2-1l-2-2l1-2l3,1l1-1l3,1l3-1l-2-1l1-2
		l1-2v-3l-2,1l-1,1l-2,1v2l-3,1v-2l-1-3l-1,1l-2,1l1,3l-2,1l-1,2l-2,1v-3l-2-1l-1,3l-1,1l-2,2l-2-1v2l-1,1l-2,2l-2-3l-1,2l-1,1l-2-1
		l1-1l-1-1v-1l-1-1l-2-1l-2,2l-1,1l-2-2l1-2h-3l-2,2l-2-1v3v2l-1,1l-1,1h-2l-2,2l-1,1l-2,1v-1v-1l1-1v-1v-1l1-1l-1-1v-1h1h1h2l1-2
		l-2-1l-1,1h-1v-2v-1l1-1l-1-1v-1v-1l1-1l1-1h-2v-1v-1h1l1-1l-1-1h-1l1-1v-1l1-1l-1-1l1-1v-1l1-1l-1-1v-1l1-1v-1l1-1l-1-1l1-1l-1-1
		h1l2,4l-1,2l-1,1l3,1l1-2h2v3h3l1-2l1-1h3l1-1h1l-1-2l2-1l-1,1l-1-1v-1l1-1l-1-1l2-1l3,1v-2l-2-2l1-1h2l3,1l1,3l-1,1l-2,1l-1,2
		l-1,1l-1,3l-1,2l-2-1v1v1v1v1l-2,1v-2l-2,1l-1,2l-1,1l-2-2h-2l-2-1l-1,2l-2-2v3l-2,1"/>
	<path fill="none" stroke="#000000" d="M499,422l2,2v3l-1,2l-1,2l3,1l2-1l1-2l1-1l-2-2v-2l3-1l2,1l-1,2l1,2v2l3,1l2-1v-2l-2-1l1-2
		l1-1l3,1v-1v-1l-1-1v-1v-1h1l2,2l2-1h2l2-1l-1-3l-3,1v-2l1-3l1-1l3-1l1-2l2-1l1-3h-2l-1-3l1-1h2l2-1l3-1v-2h2l1-1l-2-2l2-1l-1-2h-3
		l-1,2h-3l-1,2l2,1l-1,1l-2,1l-3,1h-2v-3l-2-1l-1,2l-2,1l-3,1l-1,2v3l-2,2v3l-1,2h-3l-3-1v-2l2-1l2-1v-2l2-1v-2l1-3v-2l2-1h2l2-1v-3
		h-3l1-2l3-1l-2-1l-3-1l1-1h3v-2l2,1v-3l1-1l2,4l2-2l1-2l-2-2v-2h2l3,2h3v-2l-2-1l-2-1l1-2l2-1l-1-1l-1-2l-1,1l-1,1v-1h-1l-2-1v1
		l1,2l-1,1l-2,1l-1,2v2h-3l-1,2h-2l-1,2l-2,2l-1,2l-1,2l2,2l-1,1v2l-1,2l-2-2v3v2l-1,2v3l-2,1l-2,1l-1,1l-1,1l-1-1v-1l1-1v-1v-1v-1
		l1-1h-1v-2h1l1,1h2v-3h-1l-1,1l-1-1l1-1v-1v-1h1l1-1l1-1v-1v-1l-2,1l-1,1v-1l1-2l1-1l1,1l1-1v-1v-1l-2,1v-1l1-1l1-1l1,1l1-1v-1
		l-1-1l1-1h1h1l1-3h-1l-1,1v-1v-1l1-1v-1l1-1l1,1v1l2,1l1-2h2l2-2l1-3h1l1-1l1-2l-3-1v2h-1l-1,1h-1l1-1l-2-1v1l-1,1l1,2h-2l-1,1v1
		h-1l1-2l1-1l-1-1l1-1v-1v-1l1-1l1-2h2l4,1l1-2l3-1l1-2l1-1l3,1l1-1v-2l2,2h2v3l-3,1h-3l-1,1l-2,2l-2,1l1,2l3-1l1-1h2l2-1l-1,4l-2,2
		v1l1,1v2l1-2l1-1h1l-1,1l1,1l1-1l1-1v-1v-1l-1-3l2-1v-2l1-2l2,1l2-1l-3-3l1-1h2l3,1l1-3h2v-3l-1-2l-1,1l-3,1l-2,1l-2,1l-2,1l-3-1
		l2-2l2-1l2-1l2-1l2-2l-1-3l-3,1v2h-2l-2,1l-2-1l-1-3h2l2-1l1-1l1-1l3-1l2,2l1-2h3v-2v-3l-3-1l-1,1l-1,2l-2-1h-2v2l-2,1l-1-3l-3,1
		l1,3l-2-1l-2,2v2l-2,2v2l2,1h2l1,3l-3,1l-3,1l-1,1h-2l-1,1v3h-2h-2v2l-2-1h-3l-2,2l-1,2v2v1l-2-1v-1v-1l-2,1l-1-1h1v-1v-1l2-1v-2
		l1-1l3-1h3l2-2l1-1l-1-2l-3,1l-2,1h-3h-2l-1,1l-1,1l-1,2l-1,1h-1l1,1l2,1l-1,1h-1l-1-1l-1-1l-1-1l1-2l-1,1l-1-1h-1l1-1l1-1l1-2l3-1
		l1-1l-2-2h-3l-2,1v2l-1,1l1,1l-1,1l-1,1v-2l-1-2l-1-1h1v-1l-1-1h-1l-1-1v-1h1h3l1-1l2-3v2"/>
	<path fill="none" stroke="#000000" d="M502,343l2,1l2-1v-2h2l2-1l2-1v1l1,1v1l-2,1l-2,2l1,2l2,2l1-1l1-2l2,1h2l3,1h3v2h3l3-1l-3-3
		l-2-1l2-2l1-2l1-2l1-2v-3l2,1l1-1l1-1l2-1l-1-2h3l2-1v3l3-1v-2h2h2l2,1l2,1l1-2l3-1l-2-2l-3,1l-2-1l1-2l2-1l2-1l2,1l2-2l5,1l-2,2
		h-2l-1,2l1,1l2,1l-1,3h-3l-2,1l-1,2l-1,2l1,3h2l1-2l1-2l2-1l2,2l-1,1l-1,1v3l-3,1h-3h-3l-1,2v2l2,1l1-2h3h2l1-1l3-1l2,1v2l-3,1
		l-1,2h-2l-3-1l-1,2l2,1l-1,3l-1,2h-2l-1,1l-1,2l-2,2l2,2l-2,1l-1,2l-1-3l-3,1v3l2,1l-2,1v2h-1h-1l-1,1h-1v3v2l-3-1v2l2,1l-1,2l-1,1
		l-2,2l-2,1v-4l-2,1l-2,2v2l-3,1l-2,1v2l-1,2l3,1l2,1l1-2l-1-2l2-1l2-1l1,2l1-2l2-1h3v-2l2-2l3-1l-1-2l1-2l-1-3h2v-2v-1l1-1h1l1,1
		l1-1l1-1v-2l2-1l2,1v-3l3,1l2,1h2h3l1-2v-2l3-1v3v3l2-1l1-2v-2l2-1v-3v-2l-1-3l1-1l1-2h2v3v3v3v2l3-1v3l-1,1h-2l-1,1l-1,2l-1,1v1v1
		h-1h-1l-1,1v-1l-2-1v2h-1l-1,1v-1h-1h-1v-2l-1,2l-1,1h-1l1-1l-1-2l-2,1l1,1l-1,1l-1-1l-1-1h-2l-1,1h-1l-1-1l-1,1h-1v3h-2l1,3l-2,1
		l2,3h2v-3l1-2l2-2l1-2l1-1l1,1l1,3l1,2h-2l-3,2v2l-1,3l-2,2l1,3l2-1l1-1l1-3l1-3h2v3l2-1l1-2h2l2-2l-2-1h-3l1-2l2-2l2,1h4l-1,2l2,1
		h2v-3v-3l1-1l1-1l1-1v1l2-1v-1v-1h2v1l1-1h1l1-1h1l1,1l-1,1l-2,1l-2,2l-1,1l-1,3h-2v2l2,2v2h-2l-2,2l-2-2l-3,1h-2l-1,2l-1,1l-1,2
		l-1,2l-2-3l-1,2h-2l-1,2l-3,1l-2,2l-2-2l-2-1l-2-1v-2l2-1l1-2l-3-1l-2,1l-1,1l-1,2l-1,2l2,2l3,1l2,2l-2,1l-1,1l-1-2l-1,3l4,2l-1,1
		h-2h-2h-2v3l-2-1h-3v2l3,1l3,1l-2,2l2,1l2-1v3l-3,1l-1,2l-2-1v-2l-2-4v2l-2,1l-2,1l-1,1l-2,1v3h2l1-1l2-1l3,1l-1,2l-2,2l-2,1l-1,2
		h-2l-3,1l-1,1l-1,2h-3v-1l-1,1v2h1l-1,1l1,1l-1,1l-1,1h1l1,2v-1l1-1h2h2l1-1l-2-2l2-1l2,2l2-1l1-1l-3-3h3l1-2h2v3l2,1l1-3v-3l1-1
		v-2l3-1l1-2l1-1h3l2,1l-1,2l-3,1l-2,2l-1,1l4,1l1-2h2l1-1h2l3,2l1-1l2-1l2-1l2,1"/>
	<path fill="none" stroke="#000000" d="M559,420v3h-3l-1,2l-2,2l2,1l-1,2l2,1h2v-3l1-2l2-1l1-1v-3h3h2l1-3l1-2v-3l-2,1l-1-3l3-1l1-1
		l-2-3l-2,1l-2,1v2l-2,1v3l3,1l-1,1v2h-2l-3-1v-3v-2l1-4l-1,1l-3,1v-2l-2-2l2-1l1-1l3,1h2l1-3l2,1l2-1l2,1v-2h2l1-1l3,1l3-1l3,1
		l-1,2h-2l-2,1l-1,1l-3-1l-1,2l2,1l3,1l-1,2l-2,1l-1,2l2,1l-1,3l-1,2l-2,1l1,2l-2,2l-1,1l-3-1l1,3l-3,1l-1,1l-1,2l2,1l-2,1l-2,1
		l-1,2l-2-2l-2-1l-1,2l-2,1h-2h-3l-2,1v3l-2-1l-1,2l-1,2l3,1l2-1h3l-1-3l2-1h4l-1,1l-1,1l-1,3l-1,2h-2l-2,2l-2-1h-2h-2l-2-1v-2l-2-1
		l-1,2l-1,1l-1-3h-3l-1,2l-1,2l-1,3v3l2-1l1-2l1-2h2v3v3h2l1-1h2l1-1l-2-2h3h3l3,1l-1,2l-1,2h-2l-3,2l-2,1l-2-1l-1,1l-1,2l-1,1l-2-2
		v-3h-3v2l1,3l2,1l2,1v3l-3-1l-1,2h-2v2l-2,1l-1-3l2-3v-3l-2,1l-2,2l-1,1v1l-1,1l1,1v1h-1v1l-1,1l-1,1l3-1v1l-1,1l1,1v1l-1,1l1,1v1
		l2-1l1-1l1-2l2-1l1-1l2-1l2-2l3,1v-2l2-2l-1-2l3-2l2-1l1-1l1-2h2l2,1v-3l2-2h2l1-2l-2-1l2-2h3l1-1l-2-2l2-1l3,1l1,3l1-1l1-2l1-1
		l1-3l-3,1l-3-1v-2l1-2l2,2l2-1h2l-1-3l3,1l1-2h2l1-3h-3l1-2l2-1l1-1l2,4l-1,3l2,1v2l-2,1l-2-1l-2,2l-1,1l-1,2l-1,2l3-1h3l2,2l-1,2
		l-2,2v-2l-2-1l-1,2h-2l-1,2l-1,2l-3,1v-2l-3-1l-3,1v2l2,1l2,1v3h3l1-2l1-1l3-2l1-1h2v3l-1,1l-2,1l-2,3v3l2-1l2-1l1-1l1,3l-1,2l2,1
		l2-2l2-2l-2-1v-2l-2-1l2-2l1-3l-2-1l2-2l2-3l1-3h-2l-1-3l2-1l1-2l2,1v3l1,3l1-3l1-2h2l-1-3v-2l3-1l-1-1l-1-1l1-1v-1v-1h-1l-3,1
		l-1,2l-1,2l-1,1l-2-2l1-3l-2-1l-1-2v-3l1-2l1-2l1-2l1-2l2-2l-2-1v-2l2-1v-4l3-1l2-1v2l2,1l-2,2h-2l-1,3l2,1l2-1l1-1l3-1v3l-4,2
		l-1,1v3l-2-1l-1-1v-1l-1,1l1,2l1,2l-1-1l-1,1h-2v3l-1,2v2l2-1l2-1l2,1h1l-1-1v-1v-1l-1-1l2-1l2,1v2l3-1l-1-4v-2l1-2l3,1l1-1l1-2
		l-2-1v-2l2-2l1-1v-2l2-1l2,1h2l1,4h-2l-3,1l4,2l-2,1l-2-1v3l2,2l-2,1h-3l-1,1l-1,1l-1,2v2l-2,2l-1,1l-1,2l1,3l2-1l2-1l2-2v-3h2
		l-1-3l4,2l-1-3h2h2l2,1"/>
	<path fill="none" stroke="#000000" d="M604,424l1,3l-2-1l-2,2v2l-1,1l-2-1l-1,2l-1,1l-1,2h-3v2l-2,1l-2-1h-2h-1v1l1,1l-1,1h1l-1,1
		l1,1l-1,1h1v2h-2l-1,1v3l-3-1l-1,1l-1,2h-2v2l-1,2l2,1l-2,2l2,1l2,1l-2,2l2,1l2,2l-2,2l-2,1v-3l-2,1l-2,2v2l-2,1l-2,1l-1,2l-2-1
		l-2,2l-1,2l-3-1h-2l-3-1l1-2l1-1l2-1l2,1l2-1l3-1v-2l-2-1l-2,1l-2,1l-1-4l1-1l-1-3l-2,1l-2-1l-2-2l-1-3l-2,1l-1,3h-2v2l-3,1l-3,1
		l-1,1h-2v2l-1,2l-1,2v2l-2,1l-3-1l-1,2l2,1l1,3l-2-1l-2-1l-4-1v3l2,1l3,1l-2,2l2,1l-1,2l2,1l2,1l2-2l-1-3l2-1l1-2l-1-3l2-2l2,1
		l-1,2l1,2h2l2-2l1-1v-3l-3-1h-2l1-3v-2l3,2l1-1v-3l1-1h2l2-1l1-1l2-1l2,2v2l2,1l-2,2l-1,1l-3-2h-2l-1,1l-1,3v2l2,1l1-2l2-1v2l-1,4
		h-3l-1,3l-1,1l-2,2h-3l-2-2v2l-2,1v2l2,1h3l2-1l2,1l2-2l2,1v-2v-3l1-1l2-1l1-1l2-1l2,1h3v2l-2,1l-3,1l-3,1v2v3l2-2h2l1-2l3-1v2
		l-1,3l4-2l2-1v3h2l2-1v-3h-2l-2-2l-2-1l1-2l1-2l2-1l2-2l2-1l2-1l2-1l1-1h3l2-2l1-1l2-2l2,2l-1,2l1,3h-3l-1,1l-2,1h-3l-2,1l-2,1
		l-1,2h-2l-2,2l2,2l3-1v2l-1,2h2l3,2l1-1l1-2l1-1l1-2h-3l-2,1l-1-3l3-1l2-1l2,2l1-2l2-1v-2l3,1l1-3l-1-2l2-2l2-1v-1l1-1l1-1h3l1-1
		l1-1l2,1l3,1l-1,3l-3-1l-3,1h-2l-2,1l-1,1l1,1h1h3v3l2,1l1-2l1-2h2l-1,3l2,1l1-2l1-2h3v3l-1,2l-1,1l-2,1l-2,1h-2l-2-1h-2l-2,2h-1
		v-2h-1l1-1v-1v-1l-1-1l1-1h-1l-1,2l-1,3l-2,1v2h-2h-2l-1,3l-1,1v4h2h3l3-1l-2-2h-2l2-2l3-1l2,3l1,1l1,1l-1,1h1l1-1v-2h-1l-1-1l1-1
		l-1-1v-1h1l2,1l3-1h3l-1,2l-1,1l-1,1l-1,3l3-1h3l3-1l-1-3l-2-1l1-2l1-1l3,1l2,2v1v1h-2l2,2v2l1-1l1-1l-1-1l1-1v-2l-1-1v-1h-1l1-2
		h-1l-1-1l1-1l-1-1v-1v-2h-1l1-1l-1-1l1-1l-1-1l1-1l-1-1l-2,1h-3l1-2v-3l3,1l1,1v1l1-1v-1v-1v-2l-1,1h-1v-1v-1l1-1l-1-1v-1v-1v-2
		l-1,1l-1,1l1,2l-2,1l-2-1l-1,2l-1,1h-3h-4v-3h2l2-1l2,1l1-3l-2-1l2-1l2-2l1,3l2-1v-1h1v-2h-1v-2h-1h-2l-1-1l-1,1h-1l-1,1v-1l-1-2"
		/>
	<path fill="none" stroke="#000000" d="M601,446l1-3h-3l-1,2l-2-2l-1,2l-1,1l-2,1l1,1h1l1,1h1v-1h1h1l1,1l1-1v1l-1,3l-1,3l-1-2h-2
		l-1,2l-2-1l-1,1v1v1l1,2h2h-1l-1,1v1v1h2l-1,1l-1,1v1l-1,1h-2l1-2l-3-1l2-4l-2-1l-1,2l-2,1v2l-2-1v-4l1-1l-3-2l1-2l1-1h3v2l2,1h2
		l1-1v-1l1-1l-1-1h1l1-2h-1h-1h-1v1l-2-1h-1l1-1l-1-1l1-1l2-1l1-2l2-1l1-1l3-1l-2-2l2-1l2-1l1,3l2,1l1-1h2l4-2l-1,1l1,3l-1,1l-2,1
		l-1,3h2h1h1h1v-2l1,2l1-1h1v-1l-1-1l1-1l-1-1v-1l1-1v-2l-1,1l-1-1v-1l1-1l-1-1l1-1v-1v-1l-1-1l-1,1v1v1h-2l-2,1l-2,1l-2-1l3-3l2-1
		l2-1l1-1l1-1h-2l1-1l1-1h-2v-1l1-1h-1l1-1l-1-2h1l-1-2h-1l-1,1l1,1l-1,1h-3l-1-3l1-1l1-2l1,1h1l1-1l-1-1h-1l2-1l-1-1h-1l-1-1l1-1
		l-1-1v-1l-1-1v-1l-1-1l1-1l1,1v-1l-1-2l-1,1l-1-1v-1v-1l1-1l-1-1v-1v-1l-1-1l-1,1v1h-2l-1,1l2,2l-1,1v3l-2-1h-3l-1,1l-1,1v3l-2-1
		l-1-2v-3l2-1l-3-1l-2,2l-1-3v-2l2-1l-2-2l1-3l1,2l1-1l1-2l1-2l-2-1l-2-1l1-2l1-3l2,1l2-1l1,4l-1,1l3,3l-1,2l-2-1v4l-1,2v2l2,1l2,1
		v-3v-3h3l1-1l2,1v-1l-1-1l1-1l-1-2v1l-1,1l-1-1v-1v-1l1-1v-1l-2,1l-1-1v-1l1-1h-1l-1-1l1-1h-1v-2h-1v-2l-1,1l-1-1v-1l1-2l-1,1l-1-1
		v-1v-1h-2v1l1,2l-1,1l-1,1h-3v3l-1,1l-1,2v3v2l-2,1l1,1l-1,2v3l-1,1h-2l-2,1l-1-2l-3,1l1-3l3-1h2v-4l-2,1h-2h-2l-2,2l-1,3v2l-1,2
		h-3v-3l-2,1l-1,2v2h-3l-2,1l-2,1l-2,2l-1,2l1,3l2-1v3v2l3-1l-1,3l-2,1l-1,1l-3-2l-2-2l1-1l1-1l-1-3l-2,1h-3v-2l-1-3h2l3,1v-2l2-2
		l1-1l-1-3l1-1l2-1l1-1h2l-2,4l4-1v-3l1-2h2h2l1-1h2l1-3l1-2l2-2l2,1l2,1l3-1l1-1l1-2l1-2l1-2v-3h3l-1-3l1-1h2h1l1-1v-1v-1l-1-1
		l-1,1v1l-1-2l-1-1l1-1l1-1h-1l-2-1l-2,1l1-3h4l1,2l1,1h1l-1-2h1h1l1-1l-1-1h1h1l3,1l-1-1l-1-1v-1h1l1,1l1-1l-1-1l1-1h-1l-1-2l2-1
		l1,2l1,1v-1l1-1h2l-2-1v-1h1l1-1l1,1h1v-1l1-1l1-1l1-1h-1h-1l-1,1h-1h-1h-1v1h-1"/>
	<path fill="none" stroke="#000000" d="M598,351l-1-1h-1l-1,1l-1-1l-1,1l-1-1l1-2h-2l-2-1l-1,2l-1,1l-3,1l-1,2v2l3,1l1-3l3-1v2v3
		l-2,1l-2,1l-2-1l-2,1l-2-1h-2l-1-3h2l1-2l-3-1v-2h3l1-1l2-1l2-2l1-1l1-1h3l3-1h2v3l2,1l2-1l2,1l2-2l-3-1l-2-1l-2-3l-2-1l1-2l1-3h2
		l3,2l-2,1v2l1,2l2-1l1-1l1-2l1-2v-3l3-1h1v-1l1-1h-3h-2v-1l-2,1l-1,2l-1,1h-2l-2-1l1-2l1-2l1-3l1,2l1-1l1,1h1l1,1h1h1h1l1-2l1-1
		l3,1v1l-1,1l1,1v1h-1l1,1l-1,1h1l-1,1l-1,1l-1-1l-1,1l-1,2v2v3h-2l-1,3h2l1,2l-1,1l-2,1l1,1h1l1-1h1l1-1h1v-1v-1h-1h-1l1-2v-1l1-1
		l-1-1l1-1l1-1l1-1l-1-1l-1,1l-1-1l1-1l1-1l1,1l1-1l1-1v-1v-1v-1l1,1l1-1h1l-1,1l1,1h1l1,1l-1,1h1v1v1l1,1v1v1l-1,1h-1l-1-1l1-1v-1
		l-1-1v-1l-1-1v-1l-1,1v1h-1v1l-1,1l1,1l1-1h1l1,1l-1,1l-1,1h1l1,1v1l-1,1v-1l-1,1l-1,1v-1l-1-1l1-1v-1h-1l-1-1v-1l-1,1v2v1l1,1
		l-1,1h1l1,1l-1,1v1l1-1l2,1v-1v-1h1l1-1h1l1,1v-2h1l-1-1l1-1l1,1l1,1h1l-1-2h1h1l1-2l-1-1l-1,1l-1,1l-1-1l1-1v-1l1-1l1,1l1-1h1v-2
		h1l1-1h-1l-1-1v-1h1v-1h1l1,2l1-1v-1l1-1l1,1v1l1-2l-1-1l-1-1l1-1l-1-1l-1,1v1v1h-1l-1,1l-1-1v-1l-1,1l-1,1v1l-1,1l-1-1v-1l1-1l1-1
		v-1v-1l1-1v-1v-1v-1l-1-1l-1-1l1-1l1,1l1-1l1,1l-1,1l1,1l1-1v1l-1,1v1v1l-1,1v1h1l1-1l1-1v-1l1-1v1l1,1l1,1v1l1-1l1-1l-1-1h-1l1-1
		h1v-1l1-1v-1l1-1v-1l-1-1l1-1v-1l-1-1l1-1l-1-1l1-1v-1v-1l-1-1l1-1v-1l-1-1l1-1l-1-1v-1l1-1v-2l-1,1l-1,1l-1,1v1l1,1h-1l-1,1l1,1h1
		l-1,1v1l1,1l-1,1h1l-1,1v1l1,1l-1,1l1,1v1l-1,1l1,1v1l-1,1v1h-1l-1,1h-1v-1l1-1l1-1v-1l-1-1l1-1v-1l-1-1l1-1v-1l-1-1l-1,1h-1v-1v-1
		l1-1l1,1l1-1l-1-1v-1v-1v-1l-1-1l-1,1v1v1v1l-1,1l-1,1v1v1l-1,1h1l-1,1l-1-1h-1h-1l-1-1v-1v-1v-1l1-1v-1v-1l1-1h-1l1-1l-1-1v-1
		l-1,1v1l-1,1v1v1v1l-1,1v1l-1-1"/>
	<path fill="none" stroke="#000000" d="M621,307v-1v-1v-1l1-1l-1-1l1-1h-1v-1l1-1h1h1v-1v-1l1-1h-1l-1-1l-1,1v1h-1v1l-1,1l-1,1v1
		l-1,1v1l1-1l1,1l-1,1v1v1v1h-1l1,1l-1,1v1v1l1-1h1l1-1v1l1-1v1l1,1l1,1l1,1h1h1l1,1h1l1-1v-1l1-1l1,1v1l-1,1h1l-1,1l1,1v1l-1,1
		l-1-1v-1l-1-1l-1,1l-1-1l-1,1v-1l-1-1l-1,1v1v1l-1-1l-1,1l-1-1l1-1l1-1v-1l-1-1h-1h-1h-1l1,1l1,1l-1,1v1v1l1,1l-1,1l-1-1l-1-1v-1
		v-1l1-1l-1-1l-1,1l-1,1v1v1v1h1l1,1v1l1,1l1-1h1l-1,1l-1,1l1,1l1,1h1l-1-1l1-1h1v-1v-1l-1-1l1-1l1,1l1,1v1v1l-1,1h1l-1,1v1v1h-1h-1
		l1,1l-1,1v1v1l1,1h1h1v1v1v1l-1-1l-1,1l-1,1v-1v-1v-1l-1-1l-1-1v-1v-1v-1h1l-1-1v-1l-1-1l-1-1l-1-1l-1,1l1,1l1,1v1v1v1l-1-1h-1
		l-1,1l-1-1l1-1l1-1h-1l-1-1l-1-1l1-1l1,1l1-1l1-1l-1-1h-1l-1,1v-1l-2-1l2-1h1l-1-1v-1l1-1l-1-1v-1h1h1l1-1h-1l-1-1l1-1v-1v-1l1-1
		l-1-1l1-1h-1l1-1l-1-1v-1v-1l-1-1v-1v-1v-1l1-1l-1-1v-1v-1l1-1h-1l-1-1l-1-1h-1l1-1v-1l-1-1l-1,1h-1v-1l1-1l-1-1v-1l1-1l1,1h1l-1,1
		l1,1l1-1l1,1l-1,1l1,1v1v1h1l1,1l1-1v-1h-1l-1-1l1-1h1l1,1l1,1v1v1h1l1-1l1,1l1,1h-1h-1l-1,1h-1l-1-1h-1v1l-1,1h1l-1,1l1,1l-1,1v1
		v1v1l1-1l1-1v-1l1-1l-1-1l1-1l1,1l1-1l1-1l1,1l1,1l1-1v-1h1v-1l-1-1h-1v-1v-1v-1l1-1l1,1v1v1l1,1l1-1l1,1l1-1v1l1,1l-1,1h-1l-1-1v1
		v1l-1,1h-1l-1,1l1,1l-1,1v1l1-1l1-1l1-1l1-1h1v1l-1,1v1l-1,1h-1v1v1h-1l1,1v1l-1,1v1v1l-1,1v1l-1,1h1l1-1l1-1l1-1v-1v-1l1-1v-1v-1
		v-1l2,1h1v-1l-1-1h-1l1-1l1-1v1l1,1l1-1v-1h1v-1l1-1h1v-2v-1v-1l-1-1v-1v-1v-1l1-1l-1-1l-1,1v-1l1-1l1-1l-1-1v-1v-1l1-1h-2v-1v-1h1
		l1-1l-1-1v-2v-1l-1-1l-1-1v-1v-1h1l-1-2l-1,1l-1,1v1v1l-1,1l1,1l1-1l1,1v1v1l1,1l-1,1v1l-1,1v1l1,1v1"/>
	<path fill="none" stroke="#000000" d="M635,281v1l1,1h-1l-1,1l-1,1h1l-1,1l1,1h1v1l-1,1h1l-1,1l1,1h1v1v1v1l-1,1h-1l-1,1l-1-1l1-1
		l1-1h-1l1-1l-1-1v-1l-1-1l1-1l-1-1h-1h-1v1l-1,1v-1l-1-1v-1v-1h1h1h1v-1l-1-1h-1h-1h-1v1l-1,1v1h-1l-1,1l-1,1v1h-1l-1-1l1-1l1-1v-1
		l-1-1l-1,1v1l-1,1l-1-1v-1l1-1l-1-1l-1,1l-1,1l-1,1v-1v-1l1-1h1l1-1h1l-1-1v-1l-1-1l-1,1l-1,1l-1,1v1h-1l-1-1h-1l1-1l1-1l1,1l1-1
		v-1l1-1v-1v-1v-1l1-1v-1v-1l-1-1l-1,1v1h-1l-1,1v1l1-1l1,1l-1,1v1v1l-1,1l-1,1l-1-1l1-1v-1v-1l-1-1l-1,1l-1-1l-1,1l1,1h1l-1,1v1
		l1,1h-1l-1,1l1,1l-1,1l-1-1v-1l1-1l-1-1v-1h-1l1-1l-1-1l1-1l1-1v-1h1h1l1,1l1-1l1-1l1-1l1-1h-1l1-1v-1l1-1l1,1v1v1l1,1l1,1v1v1
		l-1,1h1l-1,1v1v1l1,1l1-1h1v1l-1,1l1,1h-1v1l1,1h1l1,1h1l-1-1l1-1l1-1v1l1-1h1h1v-1l1-1l1,1v1v1l1,1h1v-1v-1v-1l-1-1l1-1v-1v-1v-1
		l1-1l-1-1l-1,1l-1-1v-1l-1-1v-1h1v-1v-1v-1h1v-1l1-1h-1l1-1l1-1h-2l-1,1l-1,1v1l-1,1v1h-1l-1-1h-1v1h-1v1h-1l-1,1h1l1,1h1l1-1l1-1
		v1l-1,1l1,1h1v1v1h-1l-1-1h-1v1l1,1l1,1h1l1-1h1v1v1v1h-1l-2-1v1v1h-1h-1l-1,1l-1,1l-1-1l1-1v-1l1-1v1l1-1v-1l-1-1l-1,1h-1l-1,1
		l-1-1l1-1v-1h1l-1-1h1h1v-1l-1-1h-1h-1l-1-1l1-1h-1v-1l-1-1v-1v-1v-1h1l1-1l1,1v1v1h-1v1l1,1l1-1h1v-1l1-1h-1l1-1l1-1v-1h1l1,1
		l-1,1v1v1l1-1l1-1l1-1l1-1l1-1l-1-1l1-1l-2,1v1l-1,1l-1-1h-1l1-1l-1-1l1-1l1,1l1-1v-1l-2-1l1-2l-1,1l-1-1v-1l1-1h-1l-1-1l-1,1v1v1
		v1h1l1,1l-1,1h1l-1,1v1l-1,1l-1,1v1v1h-1l-1-1h-1l-1-1l1-1l1,1l1-1l-1-1l1-1l1,1v-1v-1v-1l-1-1v-1v-1v-1h-1l-1,1v1v1l1,1v1l-1,1
		l-1,1l-1-1l-1,1l1,1l-1,1v1h1l-1,1l-1,1v1v1l-1,1l-2-1v1v1h-1v1v1v1h-1l-1,1l-1-1l1-1v-1v-1l1-1v-1v-1"/>
	<path fill="none" stroke="#000000" d="M612,265l-1,1l-1,1l-1-1v-1l-1-1l-1,1v1l1,1l1,1v1v1v1l-1,1l-1-1v-1h-1l1-1v-1l-1-1l-1-1v-1
		l1-1l1-1l-1-1h-1l1-1v-1l-1-1l-1-1v-1v-1l1-1l1-1l1,1l-1,1v1v1l1,1l1-1v-1v-1l1-1l-1-1l1-1h-1v-1l-1-1v-1v-1l-1-1l1-1l1,1l1-1l1,1
		h1l-1,1h-1v1v1l1,1l1,1h1l-1,1l-1,1v1v1v1l-1,1l-1,1v1h1l-1,1l1,1v1l1-1l1,1l1-1l-1-1l1-1v-1l-1,1l-1-1l1-1l1-1v-1v-1v-1h1l1-1h1
		v-1h-1l1-1l-1-1l-1,1l-1-1h-1l1-1v-1h1l1-1v1l1-1l1-1v-1l1,1l1,1l-1,1l-1,1v1l1-1h1v-1l1-1v-1v-1l1-1h1l-1,1l1,1v1l-1,1v1l-1,1
		l-1,1h-1v1v1v1l-1,1h-1h-1v1v1l-1,1h1l1,1l-1,1v1l-1,1v1l1,1h1v-1l1-1h-1l1-1v-1l1-1l-1-1l1-1h-1l1-1l1-1l1,1h1v-1l-1-1v-1v-1l1-1
		l1-1l1-1l1,1l1-1l1-2l-1,1h-1l-1-1l1-1v-2v-1l-1-1l-1,1l-1-1v-1l-1,1l-1,1h-1v1h-1l-1-1l-1,1l-1,1h1l-1,1h-1l-1-1h-1l1-1l1-1v-1
		l1,1l1-1l-1-1v-1v-1h1l1,1v1l1,1l1-1h1v-1l-1-1h-1l-1-1l1-1h-1l-1-2l-1,1l-1,1h1l-1,1l-1,1v1v1l-1,1v1l-1,1l-1,1h-1v-1l-1-1v-1h1
		l1,1l1-1l-1-1l1-1h-1l1-1l1-1v-1v-1l2-1h-1l-1-1v-1l-2-1l-1,1h1l-1,1l1,1h1l-1,1v1v1l-1,1l-1,1h-1h-1v1v1l-1,1h1l1,1v1v1l-1-1l-1,1
		h-1l-1,1l-1-1l1-1l1-1h-1l1-1l-1-1v-1h1v-1l1-1l-1-1l-1,1h-1l-1-1l1-1h1v-1l-1-1h-1l-1,1h-1v-1l-1-1l-1,1v1v1l-1,1l-1-1v-1l-1,1
		l-1-1l1-1l1-1h1v-1v-1l-1-1v-1h1h1l1,1l-1,1l1,1l1-1l1,1v1l1-1h1v-1l1-1l1,1v1l-1,1l1,1l1-1l1,1v1h-1v1l1,1h1h1v-1v-1v-1l-1-1v-1
		h-1l1-1l1-1l-1-1l-1,1h-1l-1-1l1-1l-1-1l-1,1l-1,1l-1,1h-1l-1-1h1l1-1l1-1l-1-1l-1-1l-1,1v1h-1l-1,1v-1l1-2h-1l-1,1l-1,1h-1h-1v1v1
		l-1,1h1l1,1l-1,1h1l-1,1h-1l-1,1l-1-1l1-1v-1l-1-1l-1,1v1v1l-1,1h-1l-1,1v-1l-1,1h-1h-1l-1-1v1v1l-1,1h1l1,1l-1,1l-1,1v-1l-1-1
		l-1,1v1v1l-1,1l-1,1h1v1"/>
	<path fill="none" stroke="#000000" d="M576,246v1l1,1v1v1h-2v-1v-1l-1-1h-1l1-1l-1-1l1-1l1-1v-1v-1l-1-1v-1l1-1l1,1v1l1-1l1-1v-1
		v-1v-1h1l1-1l1,1h1l1-1v1l1-1h1l-1-1h1l1-1h-1l-1-1l1-1l1-1v1l1,1l1-1l1,1v-1v-1l-1-1l1-1l1,1l1-1h1h1v-1v-1l-2-1l-1-1v1v1v1h-1
		l-1-1v-1v-1h-2v1l-1,1v1l1-1l1,1v1l-1,1l-1-1l-1,1l-1,1l-1,1l1,1l-1,1l-1,1h-1l1-1l-1-1h-1l-1-1h-1l1-1v-1l-1-1v-1v-1l1-1l1-1l1,1
		h1v1v1h-1l-1-1v1v1l1,1v1l1,1l1-1l1-1v-1h-1l1-1v-1v-1v-1l1-1l1,1l1-1v-1v-1l-2,1v-1l-1-1l-2-1v1l1,1v1v1l-1,1l-2-1l1-1h-1l1-1
		l-1-1v-1l-2-1l-1,1h-1v-1l-2-1v1v1l-1,1l-1-1v-1v-1h-2v1v1l-1,1l-1,1l-1,1l-1-1h-1v-1l1-1l1,1l1-1v-1v-1h-2v1h-1l-1,1l-1-1v-1l-2,1
		v-1h-2v1l1,1l1,1l1-1l1,1v1l1,1v1v1l-1,1l1,1l1-1l1,1h1v-1l-1-1v-1h1l1,1l1-1v-1l1-1l1-1l1,1v1h-1v1l1,1h1h1v-1v-1v-1l1-1l1,1v1
		l1-1l1-1l1,1l-1,1v1v1h-1l-1-1l-1,1l1,1v1h-1h-1h-1l1,1l1,1h1h1v1l-1,1v1l1,1h1l1,1l-1,1h1l-1,1l-1,1h-1l1,1v1h-1l-1,1h-1l-1,1
		l-1-1l-1,1v1l-1,1v1l1,1l1-1v-1l1-1l1,1v1v1h-1l-1,1v1l1,1l-1,1v1v1l1-1l1,1v3h-3v3h2l2,1v3h-2l-2-1h-3l-3,1l1,3l-2,1l-2,1l1,2l2,1
		l2,2l1-1v-2v-2v-3h2h2l1,3v2l-2,1l1,3l1,2v2l-3-1v2h-2l-2-1v-2l-2-2l-1,2l-2,1h-2l-2,1l-1,2l-1,1h-1v1l-1,3h-1v1l1,1v1l1-1l1-1l1-4
		h2v-1l1-1l1,2h1l1-2l1,2l1,1l1-1v-1l1,2l1-1l1,1h1h1h1h1h1l1,1v-1v-2l1-1l2-2v-3l-2-1v-2h2h3v2h3v-2l1-2l1-1l2,2l1-2l1-3h-3l-3-1
		l-2,2l-2,2l-2,1v-3l1-2l2-1l-2-2l1-3l-2-1v-2l1-1l1-1l1-1v-1l-1-1v-1v-1v-1l1-1v1l1,1v1v1l1,1v1l-1,1h1l-1,1l-1,1l1,1l1-1l1,1h1v-1
		l-1-1l1-1v-1v-1l-1-1v-1l1-1v1l1,1v1l1,1l1-1v-1l-1-1v-1v-1l1-1h1v1v1v1l1,1v1"/>
	<path fill="none" stroke="#000000" d="M588,248l-1,1h1l-1,1l-1,1l-1-1l-1,1l1,1v1v1l1,1l-1,1l-2-1l-2,1v2l3,1h2l1-2h1l1,2l1-1h1
		l-1-1l1-1h1v1l1,1l-1,1l-1,1v2l-1,3v2l-1,2l-2,2l2,1l-1,2h-2l-1-3l-2,2l-1,1h-2l-1,2l-1,1l-1,2h-1h-1v1v1l2,1v-1l1-1l1-1v1h1h1l1-1
		l2,2l1-1l-1-3l3,1l1-1l3-2l1-2l1-1l1-2h2h3h2h1l1-1v-1l-1-1l-1,1h-1l-1-1h1l1-1v-1h1v-1l-1-1h-1l1-1v-1v-1l-1-1l-1-1l-1-1h1l1-1
		l1-1h-1h-1h-1h-1h-1v1v1l1,1l1,1l1,1v1v1l-1,1l1,1v1h-1h-1h-1v2h-3v-3l1-2l-1-1v-1l1-1l1,1v1v1l1,1h1v-1v-1v-1l-1-1l-1-1l-1-1v-1
		v-1h-1v-1v-1v-1l-1-1l-1,1v1v1l-1-1v1v1h-1l-1,1l-1-1v-1v-1h1l-1-1l1-1h1h1v-1v-1v-1h1l1-1l1-1v-1l-1-1l-1-1v1v1v1l-1,1l-1-1v-1v-1
		v-1l-1-1l-1-1h-1h-1h-1v1v1l-1,1l-1-1l-1,1v-1l1-1v-1v-1v-1h1l1,1l1-1l1-1l1-1v1l-1,1l1,1h1l1,1l1,1l1-1l-1-1l-1-1v-1v-1l1,1l1,1
		l1,1h1v1l-1,1l1,1l1,1l1,1l1-1l-1-1l-1-1l1-1l1,1l1-1v-1l-1,1l-1-1l1-1l1-1l1,1l1,1v1v1l-1,1h1l1,1l-1,1l-1,1v-1l-1-1l-1,1l-1,1
		l1,1l1,1l1-1l1,1h-1l1,1v1h-1v1h-1h-1l-1-1l1-1h-1v-1l-1-1l-1,1v1l-1,1h1l1,1l1,1v1v1l1-1h1h1h1v-1l1-1l1-1v-1h1h1l1-1l1,1v1v1l1,1
		v1h-1l-1,1v-1h-1l1-2h-1h-1l-1,1v1l1,1l1,1l-1,1l-1,1h1l-1,1l1,1h1l1,1h-1v1v1v1h1l1,1l-1,1l-1,1l1,1l1,1v1l-1,1v1h-1v1l-1,1l-1,1
		l-3-1l-1,2l-2,1l-1,1l-2,1l-2,2v2h3v-2h3h3l1-2l1-1l3-3v-1l1-1h1l1,1l-1,1h1l-1,1l-1,1l1,1l-1,1l-2,2l1,3h-2l-1,1l-1,3v3l-3,1v3
		l-2-1l-1,2v2l-1,2l-2,2v2l-2-1l-1,3l-1,2l2,1l2-2l2,1l1-2l1-2l1-2l1-2l2-1v-2l1-2l1-1l1-2l1-2v-2l3-1l1-1l1,3l-1,1l-2,2v3l-1,3
		l-2,2l-1,2l-1,1l-2,3l-1,2h3l1-2h3v2l-1,2l-1,2l-2-1h-3l1,2l-1,1l-1,1l2,2v2l3-1l1-2l2-1l1-1l1-1l1-3l1-1l1-3l1-1l1-2l-1-2l-2,2
		l-2,1l-2-1v-2l3-1"/>
	<path fill="none" stroke="#000000" d="M607,299l1-2l2-1l-2-2v-2h3h1h1v1l-1,1h1l1,1l-1,1v1v1l1,2v1h-1l1,2h1l-1,1v1v1l1,1l-1,1v1
		l1,1l-1,1h-2l-1-3l-1,3l1,3l-1,2l-2-1l-1,2l-1,1l3,2l-1,1l-1,1l-2,1l-2-1v-2l-3-1l-1,2l-2,2l-1,2l-1,3l-2-1v4l-1,1l-3-1l-2,1v2l3,1
		h2v3l-2,2l-1,1l-1-4l-1,1l-1,2l-1,1l-1-3l-2,1l-1,2l-1,2l2,1l-1,2h-2l-3,1v-3l-2-1l-1,2l-1,3l-2,1l-2,1l-2,1l1,3l1,3l-1,1l-1,2
		l-3-1l1-4h-2l-2,1l-1,3l2,1l-1,2l-1,2l-2-1h-3l-2-1v-2h3l1-3l1-1v-2l2-1l2-1l2-1l1-2l2-2h2l-1-3l3,1l1-2l-1-3l-2,1h-2h-3v-2l3-1
		l2-1h2h3v3h2h2l1-2l2-1l2-2l1-2l1-1l-1-2l-3,1h-2v2l-1,2l-2-1l-2-1l-2,1l-1-3l1-2h3l1,2l2-3h2l2-1l3,1v-2l2-1l1,4l2-1l1-1l1-2l1-1
		l1-2v-2h2v-3h-3l-3-1l2-2l2-1l1-3l-3,1l-2-1l-2,1v3l-2-1l-1,3v2l2,1l2-1l2,1l-1,3l-2,1l-2-1h-2l-2,1l-2-2l-1,2l-2-1v3l-2,1l-3-1h-2
		l-1,2v2l-1,3l-1,1l-1,2l-2-1l-1-3h2l1-2l-2-2l1-2l1-1l2-2v-2l3,1l2,2l1-2l1-2h2l2-1l1-1l3,1l-1-3l1-2l1-2l1-2v-2l-1-3l3-2v-3h3l1-2
		l1-1v-4l1-3l1-1l2-2l2,1l1-2v-2l-3,1l-3,1l-2,1l-2-2h-3l-3-1h-3l-1,1v1l1,1v1v1l1,1v1l1,1h2l1-2l-2-2l2-1l2,1l2,1l-1,2l2,1l-1,2
		l-1,2l-2-1l-1,2l-1,2l-1-4l-1-1l-1-1v1v1v1l1,1l-1,1l1,1l-1,1v1h2l-1,1l-1,1l-1,2h1l-1,1v1l-1,1l2,1h-2l-1,1v1l2,2l-2,1l-1,1v-3h-1
		l-1,1v1l-1,1l-1,1v-1l-1,1l-1,1h-1v1l-1-1l-1,1l-1-1l-1,1h-1v1h-1h-1h-1h-1h-1h-1l-2-1l-1,1l-1-1v1l-1,2l-1-3l-1-1h-1v1l-1,2h-2v2
		h-2v3l-1,1l-3-1v2l-3-1l-1,1l-3,1l-2,2l-1,1l-3-1h-3l2,2l-1,1v3l-1,1l-2,1v-1l-1-1v-1l1-2l-2-1l-3-1l1-2h2l1-2l2-1l3,1h2l2-1l1-2
		l2,1v-3h3l2,1l2-1l1-1l1-3l5-1v-1l-1-1l-1,1v-1l-2-1v1l-2-1v-1v-1h-1l-1-2h-1v1l-1,2l-1,3l3,1l-1,1l-1,1h-3h-2v-2l-2-2l3-1l1-1l1-2
		l1-2l1-1l-1-2v1l-2,1h-3l1,3l-2,1h-3l-1,2l1,3l2,3l-1,1v2l-2,1l-1-4v-2l-1-2l-1,2h-1h-1l-1,1h-2l-1,1h1h2l1-1l1,1l1,2l-2,1l-2-1
		l-1,2"/>
	<path fill="none" stroke="#000000" d="M519,323l-2,2v2l-2,1v2l-2,2v2v1l1-1h1l1-1v1l1-1v1l2,1v-1h1l1,1v1v1v1l1,1l1-1l1,1v1v1l-1,1
		l-1-2v1l-1,1l1,1h-1l-1,1h-1v-1v-1l1-1v-1v-1h-1l-1,1h-1h-1l1,1v1l1,1l-1,1l-1-1l-1,1l-1-1l1-1v-1l-1-1v-1h1l1-1h1h1l1-1v-1l-1,1
		l-1-1h-1h-1l-1,1v-1l-1,1l-1,1v-1v-1l-2-1l-2,2l-1,1h-3l1-3l2-2l2-1v-3h-2l-1,1l-2,1l-1,2l-2,3v2l-2,1l-1,2l-1,1l-2,1l-1,1l-1-1v-1
		l-1-1l1-1h-1l-1-1v-1v-1l-2,1v-1l1-1l-1-1v-1h1l1,1h1l3,3v-2l1-2h2l1-1l1-2l-2-1h-2l-3,1v-3l-2-1v3l-1,2h-2l-1-1l1-1l-1-1l1-1l-1-1
		l1-1l-2-1v-1h1l1-1l-2-1v-1v-1v-2l1-1l-1-2v-1v-2v-1v-2v-2v-2h1l1-1l-1-1h-1l1-2l1-1h1l1,2h1v1h2v1v1l-1,1l-2,2l-1,1v2v4l2-1l2-1
		v-2l2-1v-3v-2l2,1h1h1v2l2-1v1l1-1h1l1,1l1-1l1,1l1-1h1h1v3l2-1v-3v-1l2,1v-1h2v-1l1-1l1-1l1,1v-1l1-1h1v-1l-1-1l2-1v-1v-1l1-1h1v2
		l2,1l1-1l1-1l2-2l2-1l1-1l-1,4l-1,2l-2,2l-1,1l-2,1l-2-1l-1,3l-1,1l-2,1l-1,1l-1,1v1l-1,2l-1-2v-1l-1,1v1v1h-1l-1,1v1l-2-1l-1,1
		l-2,2l-2,1l-1,1l-1,1l-3,1l-1-3l2-2h2l2-1l1-1l-4-1l-3-1l-2,2l-1,1v3l-2,1h-2l-1,2h-2l1,4h2l2-1v-2l3-1v3l2,2l-2,1l-1,1l2,2h2l2-1
		l2-1l1-2l-2-1l-2-1l2-1l3-1l4-1l-1,1v2l-2,2l2,3l2,1l1-2v-2h2l-1-3l2-1l1-1v-1h-1h-1h-1l-2-1l1-1v-1h1l2,1l1-2l3,1l3-1l1-2l-2-1
		l-2-1v-2h1l3,1l3,1l1-2l1-1l-3-1l2-2l3,1l1-2l2-1l2,2l1-1l-1-1v-1l1-2l-1,1l-2-1l1-1v-1v-1v-2v-2v-2l1-1l1-1l-1-1l1-1h-2l1-1l1-1
		l1-1l1-1v-1l1-2l-2-1h-2l-1,2v3l-2-1l-1-3l-1-3l2-1l2-1l3,1v1l1-1l-1-2v-2l2-1l-1-2h3l1,3l2,1l-1,1l-1,1l-2,1v1v1v1v1l2-1v-1h1h1
		l1-1l2,1v1l1-1h1h1h1v-2l2-2l1-3h2v-2l4,2l-1-2l-1-3l1-3v-2l2-2v-2l2-1h3l2-1l-1-2l1-2l1-2l-1-1l1-1h1l-1-1v-1l-1-1l-1-1v-1l1-1v-1
		l1-1v-1v-1l-1-1l-1,1v1h-1l-1,1"/>
	<path fill="none" stroke="#000000" d="M565,238h1l1,1l-1,1h-1v1v1l-1,1l-1-1v1h-1l-1,1v1l1,1l1-1v1l1-1h1v-1l1-1l1,1v1v1l-1,1h-1
		l-1,2l-1,1l-1,2l-2-1l-1,2l-1,2l-1,2l-1,2h-3l2,2l-1,1l1,3h-2v2l-2-1l-2,1l2,3l-2,1l-1,1l-1,1l-2-4l1-2l-3-1l-3-1l1-3l2,1l2,1l2-1
		l2-1l1-1v-2v-2l2-1l2-1l1-2l1-2l-2-2l-3-1l-1,2l2,1l-2,2l-2,1l-2,1l1,3l-2,2h-3l1-2v-2v-3l-2-3h3h2l1,1l1-3l-3-1l-2-1v-1l1-1h-1
		l-1-1l-1,1l-1,1h1v2h-2l-1-1l-1,1l-1-1l-1,1l-1-1l-1,1l-1-1l1-1l-1-1l1-1h1h1l-1-1v-1l1-1h1l-1-1l-1-1l-1,1v-1l1-1l-1-1h-1v-1l1-1
		l1,1h1h1h1l-1,1v1v1l1,1l1-1v-1v-1l1-1l-1-1h1l-1-1v-1l-1-1l1-1l1,1h1v-1l1-1h-1l1-1l1-1h-1l-1-1v-1h1l1-1v-1l1-1h1h1l-1-1l1-1l1,1
		l1-1v1l-1,1l1,1l-1,1h-1l-1,1v-1l-1,1v1l1,1l-1,1v1v1l1,1l-1,1l-1-1l-1,1l1,1h-1h-1l1,1v1l-1,1v1v1l-1,1l-1,1v1h-1l-1,1h1v1l-1,1
		l-1,1h1h2h1l-1-1l1-1h1v-1v-1v-1h1v-1l1-1h1l-1-1v-1l1-1h1v-1v-1h1v-1l1-1l-1-1v-1h1v-1l-1-1l1-1h1v-1h1h1l1,1l1-1h1v1v1l-1,1l1,1
		l-1,1l-1-1v-1l-1-1h-1l-1,1l1,1v1l-1,1v1v1v1l-1,1l-1,1h1l-1,1h-1v1l1,1l-2,1v1l-1,1h1h1h1v-1v-1l1-1h1l1,1l-1,1v1l1,1h-1l-1,1h-1
		l1,1h2h1v-1l1-1l-1-1l1-1h-1l1-1l1-1l-1-1l-1,1l-1-1h-1l1-1v-1v-1l1-1v-1v-1v-1l1-1l1,1v1v1v1l-1,1l-1,1l1,1l1-1l1-1l1-1v-1v-1v-1
		v-1h1l1,1l1-1l1,1l-1,1h-1v1v1l-1,1l-1,1l-1,1h1l-1,1l1,1l-1,1v1v1v1h-1l1,1v1h2v-1v-1v-1l1,1h1l1,1v1v2v2l3-1l-1-3v-1l-1-1l-1-1
		l1-1h1v1l1,1l1-1v-1l1-1l1,1l1-1l-1-1l1-1l-1-1l-1,1l-1,1v-1v-1v-1l1-1l1-1v-1l1,1l-1,1l1,1h1l1-1v-1l-1-1l1-1l1,1l1,1v-1v-1v-1
		l1-1v-1v-1l1-1l1,1v1v1l-1,1l-1,1h1h1l1-1l1,1v1l-1,1l-1,1v-1l-1,1v1l1,1l1-1h1l1-1l-1-1l1-1h1v-1l-1-1l-1-1v-1v-1l-1-1l-1-1h-1v-1
		"/>
	<path fill="none" stroke="#000000" d="M570,225v-1l-1-1l-1,1v1v1v1h-1h-1l-1-1l-1,1v1l1,1l1-1l1,1v1l-1,1l-1-1l-1,1v1h-1l-1-1l1-1
		v-1v-1l-1-1v-1v-1l-1-1l-1,1v1v1l1,1v1h-1v1l1,1v1v1v1l-1,1v-1l-1,1l-1,1l1,1l-1,1h1l1,1l-1,1l-1-1h-1l-1,1v1h-1h-1l1-2h-1l1-1v-1
		v-1l1,1l1-1l-1-1l1-1h1v-1v-1h1v-1l-1-1v-1v-1v-1v-1l1-1h-1l-1-1l-1,1v1v1v1v1l-1-1l-1,1l-1-1l1-1v-1v-1l1-1l1-1l1-1l1,1h1h1l1-1
		h-1l1-1l-1-1h-1l-1,1l-1-1l1-1l-1-1l-1-1h-2v1l1,1h1v1v1l-1,1l-1,1l-1,1l-1-1l1-1l1-1h-1l1-1l-1-1l-1-1v-1h-2l-1,1l1,1h1l1,1l-1,1
		v1v1l-1,1l-1-1h-1l1-1v-1v-1l-1-1l-1-1l-1,1l-1-1l-1,1h-1l-1,1h-1v1v1v1h-1l-1,1l-1,1h-1v1l1,1h1v1l-1,1l-1-1l-1-1h-1l-1-1l1-1v-1
		v-1h1h1l1-1v1l1-1v-1v-1h-2l-1,1l-1-1l-1,1v1l-1,1v1l1,1l-1,1v1l1,1l-1,1l-1-1h-1l-1,1v-1l-1-1v-1h1h1v-1l1-1l-1-1l-1,1h-1l-2,1v1
		l-2-1l-1,1v1h2h1l1,1v1h-1h-1h-1l-1,1v1l1,1v1h-1h-1v1h-1l-1-1l1-1l1-1l-1-1l-1,1l-2,1v1v1v1l-1,1l1,1h-1l-1,1v-1l-1-1v-1l1-1v-1
		l-1-1l-1,1l-1,3l1,1l-1,1h1v1l-1,1l-1-1l-1,1v1h2v1v1h-1l-1,1v1l-1,1l1,1l-1,1l1,1l-1,1h1l1-1v-1l1-1l-1-1l1-1l1-1l1,1l-1,1h1l1-1
		v-1l-1-1v-1v-1v-1l1-1l1,1l1-1h1l-1,1l-1,1v1v1h1l1-1h1v-1v-1h1l1,1h1l1-1h1h1v1v1h-1l-1,1h1l1,1v1l1,1l1-1v-1l-1-1l1-1h1v-1h-1
		l1-1v-1l-1-1l-1,1v-1l1-1l-1-1v-1l-1,1l-1,1v1h-1l-1,1v-1l-1,1l-1-1h-1v-1v-1l-1-1h1l1,1h1h1l1-1v1l1-1l1-1v-1v-1l-1-1l1-1l1,1h1
		l1-1l1,1h1v-1l1,1l1-1l1-1h1l-1,1l1,1l-1,1l1,1h-2v-1l-1,1h-1l-1,1l-1-1v-1l-1,1v1l1,1v1l1,1v1l1,1v1v1v1l-1,1v1v1l-1,1l1,1h-1
		l-1,1h-1l-1-1v1v1l1,2l-1,2l1,3l-3-1l-2,1l-1,1l-1,1l-3,1l-1,1l-1,1l-1,1l-2,2l-1,2l2,1l2-2l2-1h3l2-2l1-1h2l1-2l2,1l2-1l1-2"/>
	<path fill="none" stroke="#000000" d="M532,257l2-2l-3-1v-2h2l1-1l2-1h2l1,2l-1,2l2,1v3l-3-1l1,3l-3-1l-1,2l2,1l2,1l-2,2l-1,2l-2,1
		l1,3h-2l-3,1l-2-1l1-2v-2h3l1-4l-2,1l-2-1l-2,1l-2,1l-1,2l2,2l-1,2v2l1,1h2l1,2l-1,2l2,1l-1,2l-1,1l1,4l2-1l2,3h-2l-1,1l-1,2l-3,1
		l-1,1h-1l1-2l1-1l-1-1v-1h1l-1-2h1v-1l-1-1l1-1v-1h-1l-1-2h1l1-1l-1-1l-1-1l-1-1l1-1v-1l-1-1l-1,1v-1h-2v-1l1-2l1-1l-1-2l-2,2l-1,2
		v1l-1-1h-1l-1,1v-2h-1l-1,1l-1-1v-1h-2v-1l-1,1l-2-1v-1h1l1-2l3-2l-2-1v-1v-1l1-1h1h1l1-1l1-1v-1h2l-1-1l-1-1v-1l1-1l1-1l1-1h1v-1
		v-1l1-1l1,1v1v1v1h-1l-1,1h-1v1l-1,1h1h1l1-1h1l1-1l1-1v-1l1,1l1-1h1v-1v-1v-1v-1l1-1h-1l-1,1l-1,1v1l-1,1v-1l-1-1l1-1l1-1l1-1
		l-1-1v-1l-1,1l-1,1h-1v1v1l-1-1l-1,1l-1,1l-1,1h-1v1v1l-1,1h-1v1l-1,1l-1-1l-1,1v1h2l1,1l-1,1h-1h-1v1l-1,2l-2,1v1v1l-2,1v-1v-1h-2
		v1v1l-1,1l-1-1h-1v2h1v1l2,1l1-1v1l-3,4l1,2l-1,1v-1l-1-1h-1l-1-5l1-1l-1-1l-1,1l-1,1l-1-1l-1,1l-1,1v1l-2,1v-1v-1v-1l-2,1v1v1l1,1
		l1,1h-2v1v1h-1l-1,1l1,1l-1,1h-1l-1,1l1,1l-1,1v1h2l-1,2h-1l1,2h-1v2l1,1v1h-1v2v1l1,1v1l-1,1h1l1,1l1,1v1l-1,1l-1-1v-1l-186-56
		l-1-1l1-1l-1-3l-1-1l1-1h-1l-1-2l-2-1l1-1l1-1h-1l1-1v-2l-1-1v-1v-1l1-1l-1-1v-1v-2h-1l-1-2l1-1l-1-1v-1l-2-1l1-1l-1-1l-2-1v1l-2-1
		h-1l1-1l-2-1l-1,1l-1-1h-1l-2-1l-1,1l-2-1l1-1h-1l-2,1h-1l1-1l-2-1h-1v1h-2v-1h-2l-1-1l-1,1l-1-1h-2l-2-1l-1,1h1l3,5l1-1l1,2v1l1,1
		l1,2l1,1l-1,1l1,1l3-1l1-1h1l-1,2l-1,1l-1,1h-1v1l1,1l-1,1v1l-1,2v2h-1l1,2h-1v2l-1,2v1l-1,1l1,1l-1,1l-1,1v1l-1,1v1l-1,1l2,1h-2
		l-3-1v-1l1-1l-1-1v-1v-1v-2v-1v-2l-1-1v-1l1-1l-1-1l-2,1l-2-1l1,3l-1,3h3l-1,3l-2-1l-2,1l-2,1l-1,3l-2,2h-3l-3,1l-2-1v-2l2-1v-3
		l3-1v3l2,1l1-2v-2l1-2h2l1-3l-2-1l2-1l-2-2l2-1l1-1l3-1l2,1l1,2l1-1v-1"/>
	<path fill="none" stroke="#000000" d="M261,224l-1-1l1-1v-1v-1h-3l1-1l1-1l1-1h-1l-1-1l2-1l-1-1v-1l1-1l-1-1l-1-1l1-1v-1v-1l-1-1
		l1-1h-1l-1-1l1-1v-1h-1l-1-1l1-1v-1h-2v-1l-2,1h-2v4l2-1l2,2v2l2,1h-1l-1,1h-1v1h-1v1v1l3,1v3h-3l1,3v2l-1,1h-3v-2h-3l-1,1v3h2
		l-1,3l-1,2l1,3l-2,1l-1-3l-2,1h-3l2,2l-1,1l-1,2v2l-2,2l-1-2l-1,1l-2-1h-2l-1,1l1,1v2h2l-1,1l-1,1l1,1l-1,1l1,1v1h-1v2l-15-2l-1,2
		h1l-1,2l-1,1l-1,1l1,2h-1l-1,2v2l-1,1v1l-1,1l-1,1l1,1v1l-2,1v2l-1,1l-1,1l1,1l1,2l1,2v2h1l-1,1v1l1,2l-1,1h1v2v2v1l1,2h-1v2l1,1v2
		v1v2l1,1l-1,1l1,1l-1,1v1h2l-1,1l-1,1l1,1l-1,1l1,1l-1,1l1,1v2v1v1l1-9l2-1l-1-1l1-1l1-1v-1l1-1h2l-1-2l1-1h1l1-1l-1-1l3-1l-1-1
		l1-1v-1h2l1-2h-1l1-1l-2-1h-1l-1-1l-1-1l-2-1v-1h-1l-2-1v-1l-1-2h-2v-1l-1-1h-1h-1l-1-2l-2-5v-2l1-2v-2v-1v-1v-2v-1v-2l-1-1l1-1
		l-1-1l1-1l-1-1v-1l1-1l-1-1l1-1l-1-1l1-1l-1-1l9,3v-1v-1l1-2l1-1v-1v-2l1-1v-1l1-1l1-2h-1v-2h1v-2l1-1l1-1l-1-1l1-1v-1l1-1l-1-1
		l1-1v-1l1-3l1-1l-1-1l1-1v-1l3,1l1-1v1l1-1v-1v-1h2v1v1l2-1l1-3l-2-4l1-1l5-1l-1,2l-1,1l2,2l-1,2l1,2l-1,1l1,2l-1,1l-1-1l-1-1l-1,1
		l-1-1l-1,1l-1,2l-2,1v-1l-1-1l-1,1v2h1l1,1l-1,1h-1v1v2h1l1-1l1-1l1-2l2-1l1-2l1,3l1,3l-2,1h-2v2h-2h-1l-1,1v1v1l1,1l-1,1l1,1l-1,1
		v1l1,1l2-1l2-1h2l-3-3l2-1l1-2h3l2-1l1-1v-2l-2-1l-1-2h3v-2l1-2l-1-1h-1l1-2v-3l2-1v3l1,2h-1l1,2l2-1h2l-2-1v-1h1l1-1h2l-1-1h-1
		l-2-1l2-1l1-2l-2-2l-2,1l-2,1l-2-1v-3l2-1h2l1-1v-2l-2-2h-1l-1-1h-1l1,2h-1h-1l-1,1h-1l-1,1l-1-1v1l-1,1h-2v-1l1-2l1-1l1-1l2-2l1-1
		l2-1l1-2v-2v-2l-3,1l-1,2h-2l-1,3l-2,1l-1,1l-2,2l-2-1l-2-1v-2l-1-3l1-1l1-2l1-1l1,3v3l3-1l1-1l-1-3h2l2-1l1-1v-3l3-1v2l2,1h2l2-1
		h3l2-1v3l-2,1l-1,1l-3,1l2,2l-1,2l-1,1l-1,1v2l1,1l1-1h2l-1-1"/>
	<path fill="none" stroke="#000000" d="M250,194l1-1v-1h2v1v1l1,1l1,1l1,1l1-1l-1-1l-1-1v-1l1-1l-1-1l-1,1l-1-2v-1h1l1-1l1,2v-1l1-1
		l-2-1l1-1l1,1l1-1l-1-1v-1h2l-1-1l-1-2l2,1l1-1v1l2,1v-1v-1v-1v-1l-2,1v-1l1-1l1-1h1v-1v-1h-2h-2l-1,2l-1,1h-2l1-3v-4l-2,1l-2,1
		l-2,1l2,1v3l-2,1l-2-1l-1-2l-1,3l-2-2l-3,1h-3l-1,3l-1,2h-2l-4-1l1-2h3v-2l1-2l-2-1l1-2l2,1v-1v-2h-2l-2,1l-2-1l-2-1v-2h2l1-2v-1h1
		h1v2l2,1l1-2h-1l1-1l1-1h3l1,2h-2l-1,1h1l1,1l-1,2l3-1h1l-1,2l-1,2h-1h-1h-1v1h1l2,1l2-1v-1l1-1l1,1l1-1v-1v-1v-1v-1v-1v-1l3-1
		l-1,1v3l3,1v-2l1-1l1-2l2-1l2-1l1-2l2-3l2,1l1,1h1l1-1l1,1v1l1-1l1-1h1l1,1v2h-2l-2,1v1v1v1h-1h-2v-3l-2-1l-1,3l-1,2h-3l2,4l2,1
		l1-2l1-1h2l1-1h1l-1,1l-1,1l1,1l-1,1l-1,1l1,1l2,1l2,1l1,3l-2,1h-2v1h-1v1v1h2l1-1l1,1l1-1l3-1l-1,2h1v1l1,1l1-1h1l1-1l1-1v-1h-2
		v-1v-1v-1v-1l-2,1v-1h-2l1-1l1-1l-2-1l-2-1h2v-1l1-1h-2v-1h-1l1-1v-2l1,2h1l1-1l2,1h2l2-1l1,1h2h1h1l1-2l1,2l1-1h1l2,1v-1l1-1l-1-2
		l-2,1l1-2h1l1-1l-2-1l-1-2l-1,1v1l-2,2l-3,2v-2l-2-1l2-2l3-1l1-1l-1-2l-1,1h-2l1-1v-1l-1-1l-1,1v-2v-1h2v1l1-1v-1l-1-1l2,1l1-1l1-1
		h1l1,1v-2h-1l1-2l2,1l1-1l-1,2h2l1-1l1-1l-1-1l-1-3l1-2v-2l2-1l1-1l2-1h2l4,1l-1,1l-4,1l-1,2l-2,1l1,2l-2,1v1l1,1l1-1v-1l1-1l1-1
		l1,1l1-1l1-1h1v-1h1h1h1v-1l1-1l1,1l2,1v-1l-1-1l-1-1l1-1l1,1v-2v-1l-1-1l-1,1h-1h-1l-1-1v-1l-1,1l-2-1l1-1l-2-1l-1,1l-1-1v-1l-2-1
		v1v1v2h-2l-1,2h-3l-1,3l-1,2v3l-2,1l-2-2l1-2l-2-1l1-2l2-1l-2-2l1-1h2l1-1l1-3l2,2l2-2v-1v-1l-2,1v-1h-1l-1-2l-1,1l-1-1v-1l-1-1
		l-1,1v-2v-1l-1,1l-1,1l1,1l-1,2l3,1v3l-3-1l-1,2l-2-2l-1,1l-1,2h-2l-2-1l-2,1l-2-1l-2,1h-1l-1,1l-1,2v1h-2v1l-2,1v-2v-1l1-2v-3h2
		l-1-2v-2v-2v-2l2,2h2v-1l1-1v-1h-2l1-1"/>
	<path fill="none" stroke="#000000" d="M269,120l1-1v-1l1-1h-1h-2l1-2l1-1h-1l1-1v-1h-2l-2-2l-1,3l-1,1l2,3l-1,2h-2l-1-3l-2,1l-1,2
		l-1,1v2h4l-1,3v2l-2-1l-1,2l-2-1l-3,1l-1,1l-2,3l-1,1l-1,2h-2l1,4l-2,1l-2,1h-2l-1,1l-2,2v2l-2-1l-2,3l-1,2l2,1l-2,2l-4,2v-3l1-2
		v-2l-3-1v-3l3,1h2l1-2l2-2l1-1l-4-1l-2,1l-1,1h-3h-2v3l-1,1l-2-4v-3l2-1v-1l2-1l1,1l-1,1h1h2v-1h1h1l2-1v2h2v-2h2l1,1l-1,1h1l1-1h1
		h2l-1-1l-1-1h2h1l1,1l1-1v-1v-1l1-1l1-1l1,1l-1-2l2-1l1-1l2-1l2-1l-2-3h2l2,1v-3l-2-1l-2-1l1-2h2h2l2-1l1-2l1-2l1-2l1-1l2-1l-1-3h2
		l2-2v-1l-2-1h2v-1l1-1l-2-1v-1l1-1l-1-1l1-1h-1l1-1l-1-1l-1-1l-2-1l1-1h1l1-1h1l2,1l-1,2l2,1l2,1v3l-2,1v2l-1,2v3l-1,1h-1l1,2l1,1
		l-1,1v1l1,1h3l2-1l-3-2l1-2l3,1l2,1l2-1l1-1l1-1l-1-2v-2l2-1h2l3,1l-1,1l3,2l-1,2l-2,2l-1-3h-2l-1,4l-2,1l-1,2h-2v2h-2l-2,1l2,1
		l-1,2v3l-1,1v3h-2l-1,1l-1,1l-1,2l1,2h1v-1v-1v-1l3,1h3l1-1l1-2l3,1v-3h2l1-2h-1l1-1h1l1-1h1l1-1v1l1-1v-1h1l1-2v2v2l2-1v-1v-1h1
		l1-1v-1l1-1l2-1v1l-1,1v1h2l1-1v-1l1-1v1l1-1h1l1-1l1-1l1,1l-1-2h1h1l2,1v-2h-1l-2-2h-2l-3,1v2h-3v-2l-3-1v3l-1,1l-3,2l-2,1l-1,1
		l-2,1h-2l-2,1l-1,1l-1,3l-2,1l-1,1l1-3v-3l3-3l2-1l2-2h3l1-1l1-1l2-2v-2l1-2l1-1l2-1v3h2l2-1l2,1v-3h-3l1-2l2-1l2-1l4,1l-1,2l-2,1
		v2l2,1l2-1l2-1v-2h2l3,1v2l-2,2h-2v1l-2,1v1l1,1l1-1l1,1l1-2l1-1l1-1l2,1v-1v-1l1-1h1l1,1l1-1l1-1v-1l-1-2l-1,1l-1,1v-2v-1l-2,1v-1
		l-1-1l-1-1l-1,1l-1-1l-1,1l-1-1v-1l-2-1v1h-1h-1l-2-1l1-1l-1-1h-2v1h-2l-1,1l-2,2l-2-2l1-2l4-1v-1v-1l-1,1l-1,1l-1-1h-1l1-1l-2-1
		l-1,1l-1-2l-1,1l-1-1v1v2l1,3h-3l-1,2l1,1l3-1l1,2l-1,1l-2,2h-2l-3-3l-1,1l-3-1v-3l1-1h2l1-2l1-1l1-1l2-2v-1h-2v-1h-2v1l-1,1l-1-3
		l-1,1l-2-1l-1,1v2l2,2l-2,1h-2l1,3v2l-1,2l-1,1l-1,2l-1,2l-1,2l-2-1"/>
	<path fill="none" stroke="#000000" d="M273,102v-2l2-2v-4l1-1l1-2l-2-1l1-2l-3-1l-2-1l2-1l1-2l2,2l1-1l1-2l1-1h2h1l1,1l1-1l-1-1v-1
		l1-1v-1h1h1l-1-2h1l1-1v-1v-1h1l1-1l-2-1l1-1h1v-2l1,1l1,1v-2v-1l1-1h1l1-1h-1v-1l1-1l1-1h-1l1-1l1-1l1-2h-1l-2-1l-1,1l1,2l-3,1
		l1,3l-2,1l-3,1l-2,2l-2-1l-2,2v2h3v3l-2,1l-1,3l-2,1l-1-3l1-3h-2l-2-1l-2,1l-2-1l-2-1v-2l1-1l2,1h2h3l2-2l-4-1l1-2l3,1l2-2l2,1h2
		l1-2l1-1l1-1l1-2l1-2v-2v-2l3-1v3l2-1l2-2l1,2v1v1l-1,1l1,1l1-1l1-2v-1v-1l1-1l-2-1l2-1h1l-1-1l1-1h2l1,1l1-1h1v-1v-1h-2l-1,1l-1-1
		l-1,1l-1-1l-1,1l-1-1v2l-1-1l-1,1v-1h-2v1l-2,2v-2v-1l-2,1v-1l-1,1v1h-1l-1,1l-1-1h-1l1,3h-2v-2l-1-1l-1,1l-1,1v-2h-1l-1,1v1h-2v-1
		h-2l-1,1l-1-1h-1l-1,1h1l-1,1l-2-1v1l-2-1v1l1,3l-1,1l-2,2h-2v2l-3,1l-1,2l-1,3v3l-1,1l-1,1v1h1l2,1l2,1v-3v-3v-2l2-1l1-2l2,1v-3
		l3-1l2-1v-1v-3l3,1l2-1v-2l2,1l3,3l1-2h2l2,1l-2,3l-1,1l-2,1l-2-1l-1-2l-2,1v2l-2,1l-1,1h-2h-2l1,3h-2l-2,2l-2,1l1,3l2,3h-2l-1,2
		l3,1v2h3l1-1v-3l3,1l1,3l-2,2l-2,1h-3v3h-3l-1,1v-1l-1,1l-1,1v-3h1l1-1l1-2h-2l-1,1v-1l-1-1l1-1v-1l-1-1l-1,1l-1,2v3h-3v3h3l-1,3
		h-2l-2-1v2l-1,1v3l-1,2l-1,3l-2,1v2v2l-1,2l-2,2h-2l-1-1v-1h1l1-2h-1h-1l-1-2h1l2-1l1-2l-3,1h-2v-1v-1v-1l-2-1v1h-1l-1-2v-1l1-2
		l-3-1v3l-1-1l-1-1l-1,1l-1-2l-1,1v1h-2v-1l-1,1l-1-2v1l-2,1v-1l-1-1l-1,1l-1,1l-1-1l-1-1l-1,1l1,1l-1,1l-2-1v-1l1-1l1-1v-1h1l1,1
		l1-1v-1l1-1v-1l1,2l1-1h1l-1-2l1-1l2,1v1v1l-1,2l3-1l1-2v-1l-1-1l-1-2v-3v-1h1l1,1l1-1v-1h1h2v1l-1,3v2l-1,2v1l1-1l1,1h1v-1h1h2v1
		l-1,1l2,1l1-2h1v-1l-2-1l-1-1l2-2l-2-1l-2-2l1-1l-1-1h2l1,1v1l2-1v1h2h2l-1,1l-1,1h2l1,1l1-1l-1,2h-1l-2,1l2,1h1l-1,2l-2-1v1l1,3
		l-2,1v3l-1,1l4,1l1-2l1,2l2,1v-3l-2-2l2-1l1-1l-2-2l1-2"/>
	<path fill="none" stroke="#000000" d="M250,84l3,1l1-2l-2-2l1-3l2,1h2l1-2l2-1l1-1v-1h-2v-1l-1-1l-2,1l-1,1l-2,2l-3,1l-2-2l2-2h2
		l-1-3l2-1h2l1-2v-1l-1,1l-1-1l-1-2l1-1l1-2l2,1v-2l-1-2l1-2h2l2-1l1-2l1-1l1-2h2l-1-1v-1l-1-1l-1,1l-1-1v-2h1v-1l-1-1v-1l1-1h-1
		l-1-1l2-1l-1-1v-1v-1v-2l-1-2l1-1l-1-1v-1v-1l1-1l-2-1v-2l2,1v-1l1-1l-1-1v-1h1v-2h-1l-2-1l1-1h1v-1v-1l1-1v-1l1-1l-1-1l-2,1h-3v3
		l-2,1l2,4v3l-2,1v2l3,3v3l-2-1l-2-1v-2l-2-1l-2-1l-1,3v2l2,1v3h3l2-1l2,1v3l-2,1l-2-1l-2,1l-2-1l-1,2l-1,1l1,3l-1,1l-1,2l-1,2l-1,1
		l1,3l-1,1l3-3l2-2l3,1h2v-2l-3-1l1-2v-2l2-2l3,1v3h-2l3,3l-1,1l-1,3l-2,1l-1,2l-2,2l-1-4l-1,1l-1,3h-2l-2,1l-1-1l-1,1h-2v-1l1-1
		l-1-3l-2,1l1,1l-1,1l-1-1l-1-1l-1,1l1,1l-1,1l-1-3l-1-1l-1-2l-1,1v1l1,2v2l-1,1l-3-1l-1,1l-3-1h-2l-1,2l3,1l-2,2l2,1l-1,3l2,1l2-1
		l1-1l1-1l-2-2l3-1l2,2l1-2l1-1h3l2,2l-2,2l-2,1l-2,1l1,3h3l1-2l3-1l1-2l-1-3l1-1l1-1l1,1l1-1l1,1v1v2l2-1v-1l1-1l1,3l-1,1l1,1l-1,2
		l-2-1l-2,1l-1,1l-1,1l-2,1l2,1l2,1l-3,1h-3l-3-1h-3l-1,2l-2-1l1-3v-2l-3,1l-1,2l-2-1l-3-1l-1,2l-1,1l-2,1l-2,2l-2-1l-2,1l-2-1l-1,3
		l-3-1l1,3l-2-1l-2,1l-1,3l-3,2h-2v2l-1,2h1l-1,1l-1,3l1,3l2-1v-2l1-1v-1v-1v-1l3-1l1-2l2,1v-3l2-1h3v-2l2-2h2l3,1l2-1v-2h2l2-2l3-1
		v2l-1,2v1l-1,1h-1l-1,1l-1-1v1l-1,1h-1v1h-1h-1h-2l1,1l1,2h-2l-1-1l-1-1v2v2h-2v-1l1-1h-1h-2l-1,1l1,1l1,1l-1,1h-1l-1-1l-1,1v1h-1
		l-1,1h-1h-1h-1l1,2l3-1v2h3l1,1l1-1v-2l2,1l1-1l1,1v1h-2l-1,1l-1,1l-1,1l-1-1l-1,1h-2h-2l-3-1l1,3l-1,1l-2,1v-1l1-1l-1-1v-1l-1,1
		l-1,1l-1-2v-1l-1-1l-1-1l-1,1l-1-1v-1v-1v-1l1-2l1-1l1-1l1-1h-1l-1-2h-1l-1-1l-1,1l1,1l-1,2l-2-1v-2v-2h1l1-1l3-1l1,2l2-1l3-1l1-2
		h-3h-2l1-3h2l2-1l2,1l2-1l-1-2h-3l1-3l1-2l-2-2l-2,2v2l-1,2l-2-1l-2,1l-3-1l1-3l3,1l1-2l1-2l2-2l1-1l1-3v-1l1-1l1,1l1-1l-1-2l1-1
		l2,1l-1,1l1,1l1-1"/>
	<path fill="none" stroke="#000000" d="M208,55l1-1h1v-1h1l1-1h1l2-1l-1-3l2-1l2-1l2-1l2-2l2-1v-2l1-2h3h2l1,3l1-1l1-2h2l2,1l2-1h2
		h2v3l-2,1l-2,1h-2h-2l-2,2l-4-1l-1-3l-1,2v3h-2l-3,1l-2,1l-1,1l-2,2l-1,1l-1,1h-1l-1,1l-1,3h3v3l-1,1l4,2v2l-1,2h-3l-2-1l2-2l-2-1
		l-2-1l1-2l-2-1h-3l-2,1l1,3v2l3-1v2l2,2l-2,1l-1,2l2,1l3-1h2l2,1l1-2h2l1-2l1-3l1-1l-1-3l-3-1l1-2l1-2l-3-1l1-2v-1h1l1,1l1-1h1l1,2
		l1-1l2,1h2h3l1-1l-1-1l-1-1l-1,1h-1h-1h-1h-1l-1-1l1-2h3l2-1l1-1l3,1l2-2l2,2l-1,2l2,1l2-2l1-1l1-1l-3-1l3-1l1-1l2-1l-1-3l1-2l1-1
		l1-1l1-3h-3h-2l-1,2h-3v-2l1-2l2-1l2-1l2,1v-3v-3h2l3-1l2-1l1-2l-2-1l1-2l-1-3l1-1l2-1l-2-2l1-1l2-1l1-2V4l3-1v2l-1,2l3,2l1,1l1-1
		l-1-1l1-1l-1-1V5V4l1-1l-2-1l1-1l1,1l1-1V0v-1v-1l-2,2v-1v-1l1-1l1-1l-1-1"/>
</g>
</svg>
